<?xml version="1.0" encoding="UTF-8"?>
<svg width="44px" height="17px" viewBox="0 0 44 17" version="1.1" xmlns="http://www.w3.org/2000/svg" xmlns:xlink="http://www.w3.org/1999/xlink">
    <!-- Generator: Sketch 51.2 (57519) - http://www.bohemiancoding.com/sketch -->
    <title>ic_tablebanquet</title>
    <desc>Created with Sketch.</desc>
    <defs></defs>
    <g id="Web-designs" stroke="none" stroke-width="1" fill="none" fill-rule="evenodd">
        <g id="07-Capdel_Website_Fiche_Evènement_Places-Copy" transform="translate(-920.000000, -1812.000000)" fill="#000000">
            <g id="pourquoi" transform="translate(56.000000, 1685.000000)">
                <g id="tableau" transform="translate(5.000000, 106.000000)">
                    <g id="ic_tablebanquet" transform="translate(859.000000, 21.000000)">
                        <circle id="Oval-7" cx="8.5" cy="1.7" r="1.7"></circle>
                        <circle id="Oval-7-Copy" cx="13.6" cy="3.4" r="1.7"></circle>
                        <circle id="Oval-7-Copy-2" cx="15.3" cy="8.5" r="1.7"></circle>
                        <circle id="Oval-7-Copy-3" cx="13.6" cy="13.6" r="1.7"></circle>
                        <circle id="Oval-7-Copy-4" cx="8.5" cy="15.3" r="1.7"></circle>
                        <circle id="Oval-7-Copy-8" cx="3.4" cy="13.6" r="1.7"></circle>
                        <circle id="Oval-7-Copy-5" cx="1.7" cy="8.5" r="1.7"></circle>
                        <circle id="Oval-7-Copy-7" cx="3.4" cy="3.4" r="1.7"></circle>
                        <circle id="Oval-7-Copy-6" cx="8.5" cy="8.5" r="3.4"></circle>
                        <circle id="Oval-7" cx="35.5" cy="1.7" r="1.7"></circle>
                        <circle id="Oval-7-Copy" cx="40.6" cy="3.4" r="1.7"></circle>
                        <circle id="Oval-7-Copy-2" cx="42.3" cy="8.5" r="1.7"></circle>
                        <circle id="Oval-7-Copy-3" cx="40.6" cy="13.6" r="1.7"></circle>
                        <circle id="Oval-7-Copy-4" cx="35.5" cy="15.3" r="1.7"></circle>
                        <circle id="Oval-7-Copy-8" cx="30.4" cy="13.6" r="1.7"></circle>
                        <circle id="Oval-7-Copy-5" cx="28.7" cy="8.5" r="1.7"></circle>
                        <circle id="Oval-7-Copy-7" cx="30.4" cy="3.4" r="1.7"></circle>
                        <circle id="Oval-7-Copy-6" cx="35.5" cy="8.5" r="3.4"></circle>
                    </g>
                </g>
            </g>
        </g>
    </g>
</svg>