<?xml version="1.0" encoding="UTF-8"?>
<svg width="18px" height="21px" viewBox="0 0 18 21" version="1.1" xmlns="http://www.w3.org/2000/svg" xmlns:xlink="http://www.w3.org/1999/xlink">
    <!-- Generator: Sketch 51.2 (57519) - http://www.bohemiancoding.com/sketch -->
    <title>ic_tablecocktail</title>
    <desc>Created with Sketch.</desc>
    <defs></defs>
    <g id="Web-designs" stroke="none" stroke-width="1" fill="none" fill-rule="evenodd">
        <g id="07-Capdel_Website_Fiche_Evènement_Places-Copy" transform="translate(-1047.000000, -1809.000000)">
            <g id="pourquoi" transform="translate(56.000000, 1685.000000)">
                <g id="tableau" transform="translate(5.000000, 106.000000)">
                    <g id="ic_tablecocktail" transform="translate(985.000000, 19.000000)">
                        <path d="M0,0 C6.45357143,0 12.9071429,0 19.3607143,0 C19.3607143,6.45357143 19.3607143,12.9071429 19.3607143,19.3607143 C12.9071429,19.3607143 6.45357143,19.3607143 0,19.3607143 C0,12.9071429 0,6.45357143 0,0 Z" id="Shape"></path>
                        <path d="M15.8285714,2.86071429 C15.9214286,2.86071429 16.0178571,2.89285714 16.0964286,2.95357143 C16.2857143,3.10357143 16.3178571,3.375 16.1714286,3.56428571 L10.4071429,10.8714286 L10.4071429,18.4714286 L13.3035714,18.4714286 C13.5428571,18.4714286 13.7357143,18.6642857 13.7357143,18.9071429 C13.7357143,19.1464286 13.5428571,19.3392857 13.3035714,19.3392857 L6.64285714,19.3392857 C6.40357143,19.3392857 6.21071429,19.1464286 6.21071429,18.9071429 C6.21071429,18.6642857 6.40357143,18.4714286 6.64285714,18.4714286 L9.53928571,18.4714286 L9.53928571,10.8714286 L6.15,6.575 C6.01071429,6.64285714 5.86071429,6.7 5.71071429,6.75 C5.38214286,6.85357143 5.03214286,6.91071429 4.675,6.91071429 C3.73571429,6.91071429 2.88571429,6.52857143 2.26785714,5.91428571 C1.65357143,5.3 1.27142857,4.45 1.27142857,3.51071429 C1.27142857,2.57142857 1.65357143,1.71785714 2.26785714,1.10357143 C2.88571429,0.489285714 3.73571429,0.107142857 4.675,0.107142857 C5.55,0.107142857 6.35,0.439285714 6.95357143,0.982142857 C7.48928571,1.46785714 7.87142857,2.12142857 8.01428571,2.86071429 L12.8964286,2.86071429 L15.375,0.0214285714 L17.6571429,0.0214285714 C17.8928571,0.0214285714 18.0892857,0.214285714 18.0892857,0.453571429 C18.0892857,0.692857143 17.8928571,0.885714286 17.6571429,0.885714286 L15.7678571,0.885714286 L14.0428571,2.86071429 L15.8285714,2.86071429 Z M12.375,4.775 C12.2178571,4.95357143 11.9428571,4.97142857 11.7642857,4.81428571 C11.5821429,4.65714286 11.5642857,4.38571429 11.7214286,4.20357143 L12.1357143,3.72857143 L5.01071429,3.72857143 L9.97142857,10.0214286 L14.9357143,3.72857143 L13.2857143,3.72857143 L12.375,4.775 Z M5.59642857,5.87142857 L3.775,3.56428571 C3.62857143,3.375 3.66071429,3.10357143 3.85,2.95357143 C3.92857143,2.89285714 4.025,2.86071429 4.11785714,2.86071429 L7.12857143,2.86071429 C7,2.37857143 6.73571429,1.95357143 6.375,1.62857143 C5.925,1.22142857 5.32857143,0.975 4.675,0.975 C3.975,0.975 3.34285714,1.26071429 2.88214286,1.71785714 C2.425,2.175 2.14285714,2.81071429 2.14285714,3.51071429 C2.14285714,4.20714286 2.425,4.84285714 2.88214286,5.3 C3.34285714,5.76071429 3.975,6.04285714 4.675,6.04285714 C4.95,6.04285714 5.21071429,6 5.45,5.925 C5.5,5.90714286 5.55,5.88928571 5.59642857,5.87142857 Z" id="Shape" stroke="#000000" stroke-width="0.3" fill="#000000" fill-rule="nonzero"></path>
                    </g>
                </g>
            </g>
        </g>
    </g>
</svg>