<?xml version="1.0" encoding="UTF-8"?>
<svg width="29px" height="34px" viewBox="0 0 29 34" version="1.1" xmlns="http://www.w3.org/2000/svg" xmlns:xlink="http://www.w3.org/1999/xlink">
    <!-- Generator: Sketch 50.2 (55047) - http://www.bohemiancoding.com/sketch -->
    <title>ic_trend_spabienetre</title>
    <desc>Created with Sketch.</desc>
    <defs>
        <filter x="-7.4%" y="-3.1%" width="114.8%" height="112.5%" filterUnits="objectBoundingBox" id="filter-1">
            <feOffset dx="0" dy="1" in="SourceAlpha" result="shadowOffsetOuter1"></feOffset>
            <feGaussianBlur stdDeviation="0.5" in="shadowOffsetOuter1" result="shadowBlurOuter1"></feGaussianBlur>
            <feColorMatrix values="0 0 0 0 0   0 0 0 0 0   0 0 0 0 0  0 0 0 0.7 0" type="matrix" in="shadowBlurOuter1" result="shadowMatrixOuter1"></feColorMatrix>
            <feMerge>
                <feMergeNode in="shadowMatrixOuter1"></feMergeNode>
                <feMergeNode in="SourceGraphic"></feMergeNode>
            </feMerge>
        </filter>
    </defs>
    <g id="Symbols" stroke="none" stroke-width="1" fill="none" fill-rule="evenodd">
        <g id="icons" transform="translate(-486.000000, -58.000000)" fill="#FFFFFF" fill-rule="nonzero">
            <g id="ic_trend_spabienetre" filter="url(#filter-1)" transform="translate(487.000000, 58.000000)">
                <path d="M5.23333327,-2.45729368e-15 L1.30833332,-2.45729368e-15 C0.585760779,-2.45729368e-15 0,0.585760779 0,1.30833332 C0,6.36634109 4.10032545,10.4666665 9.15833322,10.4666665 L11.7749999,10.4666665 L11.7749999,15.8439165 C10.0569445,14.0777377 7.69729344,13.0819649 5.23333327,13.0833332 L1.30833332,13.0833332 C0.585760779,13.0833332 0,13.669094 0,14.3916665 C0,19.4496743 4.10032545,23.5499997 9.15833322,23.5499997 L11.7749999,23.5499997 L11.7749999,30.0916663 C11.7749999,30.8142388 12.3607606,31.3999996 13.0833332,31.3999996 C13.8059057,31.3999996 14.3916665,30.8142388 14.3916665,30.0916663 L14.3916665,17.0083331 L17.0083331,17.0083331 C22.0663409,17.0083331 26.1666663,12.9080077 26.1666663,7.8499999 C26.1666663,7.12742737 25.5809056,6.54166659 24.858333,6.54166659 L20.9333331,6.54166659 C18.4693729,6.54029835 16.1097218,7.5360711 14.3916665,9.30224989 L14.3916665,9.15833322 C14.3916665,4.10032545 10.291341,-7.10542736e-15 5.23333327,-7.10542736e-15 Z M9.15833322,7.8499999 C6.04928438,7.85063446 3.36930968,5.66290001 2.74749997,2.6166665 L5.23333327,2.61666663 C8.34238211,2.61603208 11.0223568,4.80376653 11.6441665,7.85000004 L9.15833322,7.8499999 Z M9.15833322,20.9333331 C6.04928438,20.9339676 3.36930968,18.7462332 2.74749997,15.6999997 L5.23333327,15.6999998 C8.34238211,15.6993653 11.0223568,17.8870997 11.6441665,20.9333332 L9.15833322,20.9333331 Z M20.9333331,9.15833322 L23.4191664,9.15833308 C22.7973567,12.2045666 20.117382,14.392301 17.0083331,14.3916665 L14.5224998,14.3916666 C15.1443095,11.3454331 17.8242842,9.15769867 20.9333331,9.15833322 Z" id="Shape"></path>
            </g>
        </g>
    </g>
</svg>