<?xml version="1.0" encoding="UTF-8"?>
<svg width="34px" height="34px" viewBox="0 0 34 34" version="1.1" xmlns="http://www.w3.org/2000/svg" xmlns:xlink="http://www.w3.org/1999/xlink">
    <!-- Generator: Sketch 50.2 (55047) - http://www.bohemiancoding.com/sketch -->
    <title>ic_trend_challenge</title>
    <desc>Created with Sketch.</desc>
    <defs>
        <filter x="-6.2%" y="-3.1%" width="112.5%" height="112.5%" filterUnits="objectBoundingBox" id="filter-1">
            <feOffset dx="0" dy="1" in="SourceAlpha" result="shadowOffsetOuter1"></feOffset>
            <feGaussianBlur stdDeviation="0.5" in="shadowOffsetOuter1" result="shadowBlurOuter1"></feGaussianBlur>
            <feColorMatrix values="0 0 0 0 0   0 0 0 0 0   0 0 0 0 0  0 0 0 0.7 0" type="matrix" in="shadowBlurOuter1" result="shadowMatrixOuter1"></feColorMatrix>
            <feMerge>
                <feMergeNode in="shadowMatrixOuter1"></feMergeNode>
                <feMergeNode in="SourceGraphic"></feMergeNode>
            </feMerge>
        </filter>
    </defs>
    <g id="Symbols" stroke="none" stroke-width="1" fill="none" fill-rule="evenodd">
        <g id="icons" transform="translate(-486.000000, -151.000000)" fill="#FFFFFF" fill-rule="nonzero">
            <g id="ic_trend_challenge" filter="url(#filter-1)" transform="translate(487.000000, 151.000000)">
                <path d="M28,4 L26.6666667,4 L26.6666667,1.33333333 C26.6666667,0.596953667 26.069713,0 25.3333333,0 L6.66666667,0 C5.930287,0 5.33333333,0.596953667 5.33333333,1.33333333 L5.33333333,4 L4,4 C1.790861,4 0,5.790861 0,8 L0,9.33333333 C0,11.5424723 1.790861,13.3333333 4,13.3333333 L5.68666667,13.3333333 C6.53131416,16.6012256 8.87281597,19.2765212 12,20.5466667 L12,24 L10.6666667,24 C8.45752767,24 6.66666667,25.790861 6.66666667,28 L6.66666667,30.6666667 C6.66666667,31.4030463 7.26362033,32 8,32 L24,32 C24.7363797,32 25.3333333,31.4030463 25.3333333,30.6666667 L25.3333333,28 C25.3333333,25.790861 23.5424723,24 21.3333333,24 L20,24 L20,20.5466667 C23.127184,19.2765212 25.4686858,16.6012256 26.3133333,13.3333333 L28,13.3333333 C30.209139,13.3333333 32,11.5424723 32,9.33333333 L32,8 C32,5.790861 30.209139,4 28,4 Z M4,10.6666667 C3.26362033,10.6666667 2.66666667,10.069713 2.66666667,9.33333333 L2.66666667,8 C2.66666667,7.26362033 3.26362033,6.66666667 4,6.66666667 L5.33333333,6.66666667 L5.33333333,10.6666667 L4,10.6666667 Z M22.6666667,28 L22.6666667,29.3333333 L9.33333333,29.3333333 L9.33333333,28 C9.33333333,27.2636203 9.930287,26.6666667 10.6666667,26.6666667 L21.3333333,26.6666667 C22.069713,26.6666667 22.6666667,27.2636203 22.6666667,28 Z M17.3333333,24 L14.6666667,24 L14.6666667,21.24 C15.5512026,21.3644069 16.4487974,21.3644069 17.3333333,21.24 L17.3333333,24 Z M16,18.6666667 C11.581722,18.6666667 8,15.0849447 8,10.6666667 L8,2.66666667 L24,2.66666667 L24,10.6666667 C24,15.0849447 20.418278,18.6666667 16,18.6666667 Z M29.3333333,9.33333333 C29.3333333,10.069713 28.7363797,10.6666667 28,10.6666667 L26.6666667,10.6666667 L26.6666667,6.66666667 L28,6.66666667 C28.7363797,6.66666667 29.3333333,7.26362033 29.3333333,8 L29.3333333,9.33333333 Z" id="Shape"></path>
            </g>
        </g>
    </g>
</svg>