<?xml version="1.0" encoding="UTF-8"?>
<svg width="34px" height="34px" viewBox="0 0 34 34" version="1.1" xmlns="http://www.w3.org/2000/svg" xmlns:xlink="http://www.w3.org/1999/xlink">
    <!-- Generator: Sketch 50.2 (55047) - http://www.bohemiancoding.com/sketch -->
    <title>ic_trend_nautiqueaerien</title>
    <desc>Created with Sketch.</desc>
    <defs>
        <filter x="-6.2%" y="-3.1%" width="112.5%" height="112.5%" filterUnits="objectBoundingBox" id="filter-1">
            <feOffset dx="0" dy="1" in="SourceAlpha" result="shadowOffsetOuter1"></feOffset>
            <feGaussianBlur stdDeviation="0.5" in="shadowOffsetOuter1" result="shadowBlurOuter1"></feGaussianBlur>
            <feColorMatrix values="0 0 0 0 0   0 0 0 0 0   0 0 0 0 0  0 0 0 0.7 0" type="matrix" in="shadowBlurOuter1" result="shadowMatrixOuter1"></feColorMatrix>
            <feMerge>
                <feMergeNode in="shadowMatrixOuter1"></feMergeNode>
                <feMergeNode in="SourceGraphic"></feMergeNode>
            </feMerge>
        </filter>
    </defs>
    <g id="Symbols" stroke="none" stroke-width="1" fill="none" fill-rule="evenodd">
        <g id="icons" transform="translate(-286.000000, -151.000000)" fill="#FFFFFF" fill-rule="nonzero">
            <g id="ic_trend_nautiqueaerien" filter="url(#filter-1)" transform="translate(287.000000, 151.000000)">
                <path d="M10.6666667,22.6666667 C10.8093317,22.6670574 10.9511349,22.6445489 11.0866667,22.6 L19.0866667,19.9333333 C19.4868663,19.8008278 19.8008278,19.4868663 19.9333333,19.0866667 L22.6,11.0866667 C22.7597931,10.6075121 22.6351148,10.0792002 22.2779573,9.72204271 C21.9207998,9.36488522 21.3924879,9.24020693 20.9133333,9.4 L12.9133333,12.0666667 C12.5131337,12.1991722 12.1991722,12.5131337 12.0666667,12.9133333 L9.4,20.9133333 C9.26502209,21.3200198 9.33372676,21.7667962 9.58465812,22.114138 C9.83558947,22.4614798 10.2381661,22.6670559 10.6666667,22.6666667 Z M14.3866667,14.3866667 L19.2266667,12.7733333 L17.6133333,17.6133333 L12.7733333,19.2266667 L14.3866667,14.3866667 Z" id="Shape"></path>
                <path d="M4.66666667,27.3333333 C7.65644242,30.3189219 11.7081127,31.9971285 15.9333333,32 L16.0266667,32 C24.8346207,31.9853575 31.9743223,24.8545955 32,16.0466667 C32,16.0466667 32,16.0466667 32,16 C32,15.9533333 32,16 32,15.9533333 C31.9743701,7.15318873 24.8468113,0.0256298747 16.0466667,0 L15.9533333,0 C7.15318873,0.0256298747 0.0256298747,7.15318873 8.51645817e-14,15.9533333 C8.51645817e-14,15.9533333 8.51645817e-14,15.9533333 8.51645817e-14,16 C8.51645817e-14,16.0466667 8.51645817e-14,16 8.51645817e-14,16.0466667 C-0.00242751066,20.2788174 1.67618174,24.3386538 4.66666667,27.3333333 Z M6.55333333,6.59333333 C8.72683417,4.40369547 11.5961534,3.04094565 14.6666667,2.74 L14.6666667,5.33333333 C14.6666667,6.069713 15.2636203,6.66666667 16,6.66666667 C16.7363797,6.66666667 17.3333333,6.069713 17.3333333,5.33333333 L17.3333333,2.74 C23.6378468,3.37646187 28.6235381,8.36215324 29.26,14.6666667 L26.6666667,14.6666667 C25.930287,14.6666667 25.3333333,15.2636203 25.3333333,16 C25.3333333,16.7363797 25.930287,17.3333333 26.6666667,17.3333333 L29.26,17.3333333 C28.6235381,23.6378468 23.6378468,28.6235381 17.3333333,29.26 L17.3333333,26.6666667 C17.3333333,25.930287 16.7363797,25.3333333 16,25.3333333 C15.2636203,25.3333333 14.6666667,25.930287 14.6666667,26.6666667 L14.6666667,29.26 C8.36215324,28.6235381 3.37646187,23.6378468 2.74,17.3333333 L5.33333333,17.3333333 C6.069713,17.3333333 6.66666667,16.7363797 6.66666667,16 C6.66666667,15.2636203 6.069713,14.6666667 5.33333333,14.6666667 L2.74,14.6666667 C3.04002418,11.6058335 4.39521065,8.74462237 6.57333333,6.57333333 L6.55333333,6.59333333 Z" id="Shape"></path>
            </g>
        </g>
    </g>
</svg>