<?xml version="1.0" encoding="UTF-8"?>
<svg width="29px" height="35px" viewBox="0 0 29 35" version="1.1" xmlns="http://www.w3.org/2000/svg" xmlns:xlink="http://www.w3.org/1999/xlink">
    <!-- Generator: Sketch 50.2 (55047) - http://www.bohemiancoding.com/sketch -->
    <title>ic_trend_sensationforte</title>
    <desc>Created with Sketch.</desc>
    <defs>
        <filter x="-7.4%" y="-3.0%" width="114.8%" height="112.1%" filterUnits="objectBoundingBox" id="filter-1">
            <feOffset dx="0" dy="1" in="SourceAlpha" result="shadowOffsetOuter1"></feOffset>
            <feGaussianBlur stdDeviation="0.5" in="shadowOffsetOuter1" result="shadowBlurOuter1"></feGaussianBlur>
            <feColorMatrix values="0 0 0 0 0   0 0 0 0 0   0 0 0 0 0  0 0 0 0.7 0" type="matrix" in="shadowBlurOuter1" result="shadowMatrixOuter1"></feColorMatrix>
            <feMerge>
                <feMergeNode in="shadowMatrixOuter1"></feMergeNode>
                <feMergeNode in="SourceGraphic"></feMergeNode>
            </feMerge>
        </filter>
    </defs>
    <g id="Symbols" stroke="none" stroke-width="1" fill="none" fill-rule="evenodd">
        <g id="icons" transform="translate(-391.000000, -150.000000)" fill="#FFFFFF" fill-rule="nonzero">
            <g id="ic_trend_sensationforte" filter="url(#filter-1)" transform="translate(392.000000, 150.000000)">
                <path d="M26.6272466,14.3408973 L17.9513868,27.6578514 L17.9513868,31.5617815 C17.9513868,32.1988893 17.4349484,32.7153928 16.7978579,32.7153928 L10.7004328,32.7153928 C10.0633423,32.7153928 9.54690389,32.1988893 9.54690389,31.5617815 L9.54690389,27.658501 L0.833058366,14.3480199 C0.799986357,14.2965643 0.771059018,14.2425598 0.746549922,14.1865172 C0.711837063,14.0775197 0.692529224,14.0080027 0.671980824,13.848915 C0.670110745,13.7935942 0.670110745,13.747369 0.671980824,13.7312649 C0.671980931,6.52071942 6.51657196,0.675391866 13.7262718,0.675391866 C20.9359717,0.675391866 26.7805628,6.52071942 26.7796623,13.7012687 C26.7824329,13.747369 26.7824329,13.7935942 26.7805629,13.8096983 C26.7805629,13.8431051 26.7805629,13.8431051 26.7727175,13.9371411 C26.7604382,14.0056392 26.7419873,14.0728808 26.717593,14.1380443 C26.6850654,14.2390484 26.6580737,14.2911104 26.6272466,14.3408973 Z M26.2021394,13.9699812 L25.7877852,13.79372 C25.7847323,13.8008967 25.7811376,13.8078303 25.7770322,13.8144606 L26.0596326,13.9894414 L26.2021394,13.9894414 L26.2021394,13.9699812 Z M25.7808985,13.8032673 C25.7805629,13.8176457 25.7805629,13.819404 25.7805629,13.8256755 L25.7805629,13.848915 C25.7824635,13.8245795 25.7835316,13.8086442 25.7839996,13.7985056 L25.7808985,13.8032673 Z M13.7262718,1.67539187 C7.06888492,1.67539187 1.67198092,7.07297596 1.67108024,13.7612612 C1.67130566,13.7786157 4.62991355,18.3116225 10.5469039,27.3602814 L10.5469039,31.5617815 C10.5469039,31.6466328 10.6156552,31.7153928 10.7004328,31.7153928 L16.7978579,31.7153928 C16.8826355,31.7153928 16.9513868,31.6466328 16.9513868,31.5617815 L16.9513868,27.3609313 L25.7768243,13.8095232 C25.7805628,7.07297596 20.3836588,1.67539187 13.7262718,1.67539187 Z M1.66754824,13.7958634 C1.67198082,13.8413909 1.67198082,13.8401423 1.67198082,13.8329378 L1.67198082,13.8096983 C1.6719037,13.8075032 1.67183126,13.8054188 1.67176331,13.8034383 C1.67066377,13.8016701 1.66916742,13.7990039 1.66754824,13.7958634 Z M16.1475966,26.4659622 L16.4449523,26.6596966 L16.4449523,26.1596966 L16.1739557,26.1596966 L16.1475966,26.2001542 L16.1475966,26.4659622 Z M17.5556567,24.038976 L24.3798493,13.5647812 C24.2709788,13.2577015 24.1191958,12.9752015 23.9526573,12.7540232 C23.4330412,12.2323587 22.6503719,12.0751819 21.9696949,12.3557931 C21.2889962,12.6364133 20.8443811,13.2995732 20.8432524,14.0351942 C20.8432524,14.0655381 20.8432524,14.0655381 20.8426961,14.0947219 C20.8390986,14.1709231 20.8272786,14.2464834 20.80746,14.3200901 L20.7943385,14.4003371 L17.5556567,24.038976 Z M19.8432524,14.0711428 L19.8432524,14.0598352 C19.8433478,14.0618596 19.8433533,14.0654036 19.8432524,14.0711428 Z M21.588559,11.4312741 C22.643273,10.9964649 23.8560317,11.240013 24.7027751,12.0957363 C25.0268276,12.5157432 25.2667445,12.9943747 25.4093534,13.5053502 L25.4701533,13.7231996 L16.7159488,27.1596966 L15.4521204,27.1596966 L19.8322817,14.1239013 L19.8413982,14.0616846 C19.8450026,12.8935408 20.5338667,11.8660742 21.588559,11.4312741 Z M11.3155127,26.1461036 L11.0286132,26.1603084 L11.0533385,26.6596966 L11.3738431,26.4509252 L11.3623079,26.2179433 L11.3155127,26.1461036 Z M6.69141074,14.385563 L6.67811973,14.3051143 C6.65736156,14.2283621 6.64531298,14.1478381 6.64196773,14.0515345 C6.64196773,14.0181277 6.64196773,14.0181277 6.64197377,14.0147761 C6.63835778,13.2793199 6.19337337,12.6180303 5.51352828,12.3377621 C4.83370478,12.0575027 4.05209103,12.2130923 3.57497792,12.6826877 C3.37471616,12.9436501 3.21656391,13.2338362 3.10583096,13.5426539 L10.0007555,24.127697 L6.69141074,14.385563 Z M12.0699391,27.109976 L10.7911642,27.1732897 L2.0146468,13.6996375 L2.07621817,13.4812209 C2.21988728,12.971573 2.45929697,12.4939535 2.82526242,12.0242357 C3.63158864,11.2201904 4.84194212,10.9792551 5.89466412,11.413243 C6.94736453,11.847222 7.63636298,12.8711399 7.64196773,14.0123178 C7.64219604,14.0304683 7.64578361,14.061857 7.65273045,14.1064839 L12.0699391,27.109976 Z M7.64160529,14.0325001 C7.64166101,14.0339627 7.64178205,14.0354207 7.64196768,14.0368698 C7.64196671,14.044239 7.64194851,14.0436479 7.64160529,14.0325001 Z M12.5957206,13.9988419 C12.616251,12.9934342 11.8179771,12.1617703 10.8127591,12.1412386 C9.83523213,12.1212725 9.02192993,12.8757167 8.95898602,13.8418851 L12.5956337,24.5635127 L12.5957206,13.9988419 Z M13.0956164,26.1596966 L12.7786549,26.1596966 L12.7786549,26.6596966 L13.0956164,26.5521871 L13.0956164,26.1596966 Z M7.98205749,14.0748828 L7.95566512,13.9040682 C7.98747025,12.3465191 9.27576412,11.1096367 10.8331799,11.1414471 C12.3905937,11.1732574 13.6273172,12.4617105 13.5956164,14.0090497 L13.5956164,27.1596966 L12.4202696,27.1596966 L7.98205749,14.0748828 Z M16.6953346,12.1510427 C15.6901165,12.1715744 14.8918426,13.0032384 14.912373,14.0086461 L14.9041836,24.721954 L18.5491621,13.852529 C18.4866349,12.885958 17.6731447,12.1310708 16.6953346,12.1510427 Z M14.4026743,26.2174683 L14.4026743,26.5434862 L14.7784534,26.6695008 L14.7784534,26.1695008 L14.4187598,26.1695008 L14.4026743,26.2174683 Z M16.6749137,11.1512512 C18.2323295,11.1194408 19.5206234,12.3563233 19.5524285,13.9138724 L19.5265879,14.083051 L15.1381471,27.1695008 L13.9022867,27.1695008 L13.9124735,14.0235125 C13.8837149,12.4684554 15.1193499,11.1830238 16.6749137,11.1512512 Z M3.64258538,10.0722567 C4.02374064,9.9584764 4.42157134,9.90021156 4.82392377,9.90111925 C5.95444351,9.90560473 7.02454678,10.3690004 7.79848473,11.1686223 C8.57208303,10.3688897 9.64337757,9.9071977 10.7739548,9.9071977 C11.9043959,9.9071977 12.9755685,10.3687785 13.7491454,11.1683333 C14.5227222,10.3687785 15.5938948,9.9071977 16.7243359,9.9071977 C17.854819,9.9071977 18.9260292,10.3688128 19.6996127,11.1684225 C19.7182139,11.1492274 19.7369731,11.1302516 19.755883,11.1115029 C20.8456136,10.010508 22.4291743,9.635708 23.8554674,10.0572766 C22.3234741,5.84577638 18.3063538,2.98042781 13.7493117,2.97607855 C9.18836747,2.98346643 5.17044657,5.85544918 3.64258538,10.0722567 Z M13.7483636,1.9760788 C19.1297003,1.98090908 23.8212888,5.63459811 25.1444574,10.8500701 L25.4584369,12.0876685 L24.387539,11.3923913 C23.1456036,10.5860685 21.5082876,10.7625257 20.4633187,11.8182652 C20.3328697,11.9476257 20.214022,12.0881855 20.1081432,12.2383274 L19.6994319,12.817902 L19.2908468,12.2382384 C18.7025679,11.4036413 17.7453179,10.9071977 16.7243359,10.9071977 C15.7033539,10.9071977 14.7461038,11.4036413 14.1578249,12.2382384 L13.7491454,12.8180361 L13.3404658,12.2382384 C12.7521869,11.4036413 11.7949369,10.9071977 10.7739548,10.9071977 C9.75297282,10.9071977 8.79572281,11.4036413 8.20744389,12.2382384 L7.79928352,12.8172995 L7.39043,12.2387276 C6.80018844,11.4034719 5.84260007,10.9051688 4.82081245,10.901114 C4.21402813,10.8997457 3.62023076,11.0768312 3.11328551,11.4103437 L2.03953191,12.1167518 L2.35364093,10.8704393 C3.66995614,5.64760285 8.36280347,1.98449969 13.7483636,1.9760788 Z M15.6443289,28.4669193 L11.8539618,28.4669193 L11.8539618,30.4081702 L15.6443289,30.4081702 L15.6443289,28.4669193 Z M10.8539618,31.4081702 L10.8539618,27.4669193 L16.6443289,27.4669193 L16.6443289,31.4081702 L10.8539618,31.4081702 Z M26.6272466,14.3408973 L17.9513868,27.6578514 L17.9513868,31.5617815 C17.9513868,32.1988893 17.4349484,32.7153928 16.7978579,32.7153928 L10.7004328,32.7153928 C10.0633423,32.7153928 9.54690389,32.1988893 9.54690389,31.5617815 L9.54690389,27.658501 L0.833058366,14.3480199 C0.799986357,14.2965643 0.771059018,14.2425598 0.746549922,14.1865172 C0.711837063,14.0775197 0.692529224,14.0080027 0.671980824,13.848915 C0.670110745,13.7935942 0.670110745,13.747369 0.671980824,13.7312649 C0.671980931,6.52071942 6.51657196,0.675391866 13.7262718,0.675391866 C20.9359717,0.675391866 26.7805628,6.52071942 26.7796623,13.7012687 C26.7824329,13.747369 26.7824329,13.7935942 26.7805629,13.8096983 C26.7805629,13.8431051 26.7805629,13.8431051 26.7727175,13.9371411 C26.7604382,14.0056392 26.7419873,14.0728808 26.717593,14.1380443 C26.6850654,14.2390484 26.6580737,14.2911104 26.6272466,14.3408973 Z M26.2021394,13.9699812 L25.7877852,13.79372 C25.7847323,13.8008967 25.7811376,13.8078303 25.7770322,13.8144606 L26.0596326,13.9894414 L26.2021394,13.9894414 L26.2021394,13.9699812 Z M25.7808985,13.8032673 C25.7805629,13.8176457 25.7805629,13.819404 25.7805629,13.8256755 L25.7805629,13.848915 C25.7824635,13.8245795 25.7835316,13.8086442 25.7839996,13.7985056 L25.7808985,13.8032673 Z M13.7262718,1.67539187 C7.06888492,1.67539187 1.67198092,7.07297596 1.67108024,13.7612612 C1.67130566,13.7786157 4.62991355,18.3116225 10.5469039,27.3602814 L10.5469039,31.5617815 C10.5469039,31.6466328 10.6156552,31.7153928 10.7004328,31.7153928 L16.7978579,31.7153928 C16.8826355,31.7153928 16.9513868,31.6466328 16.9513868,31.5617815 L16.9513868,27.3609313 L25.7768243,13.8095232 C25.7805628,7.07297596 20.3836588,1.67539187 13.7262718,1.67539187 Z M1.66754824,13.7958634 C1.67198082,13.8413909 1.67198082,13.8401423 1.67198082,13.8329378 L1.67198082,13.8096983 C1.6719037,13.8075032 1.67183126,13.8054188 1.67176331,13.8034383 C1.67066377,13.8016701 1.66916742,13.7990039 1.66754824,13.7958634 Z M16.1475966,26.4659622 L16.4449523,26.6596966 L16.4449523,26.1596966 L16.1739557,26.1596966 L16.1475966,26.2001542 L16.1475966,26.4659622 Z M17.5556567,24.038976 L24.3798493,13.5647812 C24.2709788,13.2577015 24.1191958,12.9752015 23.9526573,12.7540232 C23.4330412,12.2323587 22.6503719,12.0751819 21.9696949,12.3557931 C21.2889962,12.6364133 20.8443811,13.2995732 20.8432524,14.0351942 C20.8432524,14.0655381 20.8432524,14.0655381 20.8426961,14.0947219 C20.8390986,14.1709231 20.8272786,14.2464834 20.80746,14.3200901 L20.7943385,14.4003371 L17.5556567,24.038976 Z M19.8432524,14.0711428 L19.8432524,14.0598352 C19.8433478,14.0618596 19.8433533,14.0654036 19.8432524,14.0711428 Z M21.588559,11.4312741 C22.643273,10.9964649 23.8560317,11.240013 24.7027751,12.0957363 C25.0268276,12.5157432 25.2667445,12.9943747 25.4093534,13.5053502 L25.4701533,13.7231996 L16.7159488,27.1596966 L15.4521204,27.1596966 L19.8322817,14.1239013 L19.8413982,14.0616846 C19.8450026,12.8935408 20.5338667,11.8660742 21.588559,11.4312741 Z M11.3155127,26.1461036 L11.0286132,26.1603084 L11.0533385,26.6596966 L11.3738431,26.4509252 L11.3623079,26.2179433 L11.3155127,26.1461036 Z M6.69141074,14.385563 L6.67811973,14.3051143 C6.65736156,14.2283621 6.64531298,14.1478381 6.64196773,14.0515345 C6.64196773,14.0181277 6.64196773,14.0181277 6.64197377,14.0147761 C6.63835778,13.2793199 6.19337337,12.6180303 5.51352828,12.3377621 C4.83370478,12.0575027 4.05209103,12.2130923 3.57497792,12.6826877 C3.37471616,12.9436501 3.21656391,13.2338362 3.10583096,13.5426539 L10.0007555,24.127697 L6.69141074,14.385563 Z M12.0699391,27.109976 L10.7911642,27.1732897 L2.0146468,13.6996375 L2.07621817,13.4812209 C2.21988728,12.971573 2.45929697,12.4939535 2.82526242,12.0242357 C3.63158864,11.2201904 4.84194212,10.9792551 5.89466412,11.413243 C6.94736453,11.847222 7.63636298,12.8711399 7.64196773,14.0123178 C7.64219604,14.0304683 7.64578361,14.061857 7.65273045,14.1064839 L12.0699391,27.109976 Z M7.64160529,14.0325001 C7.64166101,14.0339627 7.64178205,14.0354207 7.64196768,14.0368698 C7.64196671,14.044239 7.64194851,14.0436479 7.64160529,14.0325001 Z M12.5957206,13.9988419 C12.616251,12.9934342 11.8179771,12.1617703 10.8127591,12.1412386 C9.83523213,12.1212725 9.02192993,12.8757167 8.95898602,13.8418851 L12.5956337,24.5635127 L12.5957206,13.9988419 Z M13.0956164,26.1596966 L12.7786549,26.1596966 L12.7786549,26.6596966 L13.0956164,26.5521871 L13.0956164,26.1596966 Z M7.98205749,14.0748828 L7.95566512,13.9040682 C7.98747025,12.3465191 9.27576412,11.1096367 10.8331799,11.1414471 C12.3905937,11.1732574 13.6273172,12.4617105 13.5956164,14.0090497 L13.5956164,27.1596966 L12.4202696,27.1596966 L7.98205749,14.0748828 Z M16.6953346,12.1510427 C15.6901165,12.1715744 14.8918426,13.0032384 14.912373,14.0086461 L14.9041836,24.721954 L18.5491621,13.852529 C18.4866349,12.885958 17.6731447,12.1310708 16.6953346,12.1510427 Z M14.4026743,26.2174683 L14.4026743,26.5434862 L14.7784534,26.6695008 L14.7784534,26.1695008 L14.4187598,26.1695008 L14.4026743,26.2174683 Z M16.6749137,11.1512512 C18.2323295,11.1194408 19.5206234,12.3563233 19.5524285,13.9138724 L19.5265879,14.083051 L15.1381471,27.1695008 L13.9022867,27.1695008 L13.9124735,14.0235125 C13.8837149,12.4684554 15.1193499,11.1830238 16.6749137,11.1512512 Z M3.64258538,10.0722567 C4.02374064,9.9584764 4.42157134,9.90021156 4.82392377,9.90111925 C5.95444351,9.90560473 7.02454678,10.3690004 7.79848473,11.1686223 C8.57208303,10.3688897 9.64337757,9.9071977 10.7739548,9.9071977 C11.9043959,9.9071977 12.9755685,10.3687785 13.7491454,11.1683333 C14.5227222,10.3687785 15.5938948,9.9071977 16.7243359,9.9071977 C17.854819,9.9071977 18.9260292,10.3688128 19.6996127,11.1684225 C19.7182139,11.1492274 19.7369731,11.1302516 19.755883,11.1115029 C20.8456136,10.010508 22.4291743,9.635708 23.8554674,10.0572766 C22.3234741,5.84577638 18.3063538,2.98042781 13.7493117,2.97607855 C9.18836747,2.98346643 5.17044657,5.85544918 3.64258538,10.0722567 Z M13.7483636,1.9760788 C19.1297003,1.98090908 23.8212888,5.63459811 25.1444574,10.8500701 L25.4584369,12.0876685 L24.387539,11.3923913 C23.1456036,10.5860685 21.5082876,10.7625257 20.4633187,11.8182652 C20.3328697,11.9476257 20.214022,12.0881855 20.1081432,12.2383274 L19.6994319,12.817902 L19.2908468,12.2382384 C18.7025679,11.4036413 17.7453179,10.9071977 16.7243359,10.9071977 C15.7033539,10.9071977 14.7461038,11.4036413 14.1578249,12.2382384 L13.7491454,12.8180361 L13.3404658,12.2382384 C12.7521869,11.4036413 11.7949369,10.9071977 10.7739548,10.9071977 C9.75297282,10.9071977 8.79572281,11.4036413 8.20744389,12.2382384 L7.79928352,12.8172995 L7.39043,12.2387276 C6.80018844,11.4034719 5.84260007,10.9051688 4.82081245,10.901114 C4.21402813,10.8997457 3.62023076,11.0768312 3.11328551,11.4103437 L2.03953191,12.1167518 L2.35364093,10.8704393 C3.66995614,5.64760285 8.36280347,1.98449969 13.7483636,1.9760788 Z M15.6443289,28.4669193 L11.8539618,28.4669193 L11.8539618,30.4081702 L15.6443289,30.4081702 L15.6443289,28.4669193 Z M10.8539618,31.4081702 L10.8539618,27.4669193 L16.6443289,27.4669193 L16.6443289,31.4081702 L10.8539618,31.4081702 Z" id="Shape"></path>
                <path d="M26.2021394,14.0776789 C26.2196056,14.0494703 26.2348988,14.0199726 26.2478864,13.9894414 L26.2478864,13.966565 C26.2624254,13.928454 26.2733653,13.8890655 26.2805629,13.848915 C26.2805629,13.848915 26.2805629,13.8227705 26.2805629,13.8096983 C26.2821327,13.7835774 26.2821327,13.7573858 26.2805629,13.7312649 C26.2805628,6.79684769 20.6598152,1.17539187 13.7262718,1.17539187 C6.79272844,1.17539187 1.17198093,6.79684769 1.17198082,13.7312649 C1.17041094,13.7573858 1.17041094,13.7835774 1.17198082,13.8096983 C1.17198082,13.8096983 1.17198082,13.8358427 1.17198082,13.848915 C1.17917841,13.8890655 1.19011828,13.928454 1.20465727,13.966565 L1.20465727,13.9861734 C1.21854392,14.0179266 1.23493382,14.048525 1.25367194,14.0776789 L10.0469039,27.5093914 L10.0469039,31.5617815 C10.0469039,31.922761 10.3394988,32.2153928 10.7004328,32.2153928 L16.7978579,32.2153928 C17.158792,32.2153928 17.4513868,31.922761 17.4513868,31.5617815 L17.4513868,27.5093914 L26.1988717,14.0776789 L26.2021394,14.0776789 Z M16.4449523,26.6596966 L16.1475966,26.6596966 L20.3203789,14.2410818 C20.3203789,14.2410818 20.3203789,14.2149373 20.3203789,14.2051331 C20.3334264,14.1615669 20.3411077,14.1165707 20.3432524,14.0711428 C20.3432524,14.0711428 20.3432524,14.0482664 20.3432524,14.0351942 C20.3446919,13.096557 20.9114314,12.2512438 21.7791269,11.8935336 C22.6468224,11.5358234 23.6445364,11.7361859 24.3069055,12.4011659 C24.5916414,12.7702143 24.8024506,13.1907762 24.927758,13.6397594 L16.4449523,26.6596966 Z M11.0533385,26.6596966 L2.55746219,13.616883 C2.68390602,13.1683395 2.89461097,12.7479856 3.17831468,12.3782895 C3.84183984,11.7166413 4.83782345,11.5183789 5.7040962,11.8755025 C6.57036895,12.2326262 7.13736038,13.0752299 7.14196773,14.0123178 C7.14196773,14.0123178 7.14196773,14.0384623 7.14196773,14.0515345 C7.14374066,14.0980723 7.15142688,14.1441955 7.16484124,14.1887929 C7.16484124,14.1887929 7.16484124,14.2116693 7.16484124,14.2247415 L11.3833706,26.6433564 L11.0533385,26.6596966 Z M12.7786549,26.6596966 L8.45556091,13.9142761 C8.48172865,12.6327987 9.54165358,11.6151718 10.8229695,11.6413428 C12.1042854,11.6675138 13.1217841,12.7275723 13.0956164,14.0090497 L13.0956164,26.6596966 L12.7786549,26.6596966 Z M14.4124772,14.0188539 C14.3863095,12.7373765 15.4038082,11.677318 16.6851241,11.6511469 C17.9664401,11.6249759 19.026365,12.6426028 19.0525327,13.9240803 L14.7784534,26.6695008 L14.4026743,26.6695008 L14.4124772,14.0188539 Z M13.7491454,2.47607818 C18.9006239,2.4807036 23.3928597,5.97914183 24.6598111,10.9730252 C23.2190753,10.0376319 21.3196558,10.2423366 20.1112496,11.4632337 C19.9600314,11.6131902 19.8222619,11.7761286 19.6995264,11.9501741 C19.017582,10.9826929 17.9079034,10.4071977 16.7243359,10.4071977 C15.5407683,10.4071977 14.4310897,10.9826929 13.7491454,11.9501741 C13.067201,10.9826929 11.9575224,10.4071977 10.7739548,10.4071977 C9.59038729,10.4071977 8.4807087,10.9826929 7.79876432,11.9501741 C7.11522439,10.9828912 6.00625632,10.4058142 4.82193998,10.4011153 C4.11709774,10.3995259 3.42734299,10.6052282 2.83847963,10.9926336 C4.09888438,5.99163694 8.59238093,2.48414133 13.7491454,2.47607818 Z M16.1443289,30.9081702 L11.3539618,30.9081702 L11.3539618,27.9669193 L16.1443289,27.9669193 L16.1443289,30.9081702 Z" id="Shape-Copy"></path>
            </g>
        </g>
    </g>
</svg>