<?xml version="1.0" encoding="UTF-8"?>
<svg width="34px" height="34px" viewBox="0 0 34 34" version="1.1" xmlns="http://www.w3.org/2000/svg" xmlns:xlink="http://www.w3.org/1999/xlink">
    <!-- Generator: Sketch 50.2 (55047) - http://www.bohemiancoding.com/sketch -->
    <title>ic_trend_karting</title>
    <desc>Created with Sketch.</desc>
    <defs>
        <filter x="-6.2%" y="-3.1%" width="112.5%" height="112.5%" filterUnits="objectBoundingBox" id="filter-1">
            <feOffset dx="0" dy="1" in="SourceAlpha" result="shadowOffsetOuter1"></feOffset>
            <feGaussianBlur stdDeviation="0.5" in="shadowOffsetOuter1" result="shadowBlurOuter1"></feGaussianBlur>
            <feColorMatrix values="0 0 0 0 0   0 0 0 0 0   0 0 0 0 0  0 0 0 0.7 0" type="matrix" in="shadowBlurOuter1" result="shadowMatrixOuter1"></feColorMatrix>
            <feMerge>
                <feMergeNode in="shadowMatrixOuter1"></feMergeNode>
                <feMergeNode in="SourceGraphic"></feMergeNode>
            </feMerge>
        </filter>
    </defs>
    <g id="Symbols" stroke="none" stroke-width="1" fill="none" fill-rule="evenodd">
        <g id="icons" transform="translate(-570.000000, -151.000000)" fill="#FFFFFF" fill-rule="nonzero">
            <g id="ic_trend_karting" filter="url(#filter-1)" transform="translate(571.000000, 151.000000)">
                <path d="M16,32 C24.836556,32 32,24.836556 32,16 C32,7.163444 24.836556,0 16,0 C7.163444,0 0,7.163444 0,16 C0,24.836556 7.163444,32 16,32 Z M3.28,20 L6.66666667,20 C8.87580567,20 10.6666667,21.790861 10.6666667,24 L10.6666667,28.2133333 C7.13699619,26.6664235 4.44520917,23.6733896 3.28,20 Z M13.3333333,29.0666667 L13.3333333,24 C13.3333333,22.2318901 12.6309544,20.5361973 11.3807119,19.2859548 C10.1304694,18.0357123 8.4347766,17.3333333 6.66666667,17.3333333 L2.73333333,17.3333333 C2.69333333,16.8933333 2.66666667,16.4533333 2.66666667,16 C2.66796932,15.0884122 2.76178331,14.17931 2.94666667,13.2866667 L3.05333333,13.2866667 L7.50666667,11.9533333 C13.0462464,10.2866853 18.9537536,10.2866853 24.4933333,11.9533333 L28.9466667,13.2866667 L29.0533333,13.2866667 C29.2419511,14.1787281 29.3358052,15.0882192 29.3333333,16 C29.3333333,16.4533333 29.3333333,16.8933333 29.2666667,17.3333333 L25.3333333,17.3333333 C21.651435,17.3333333 18.6666667,20.3181017 18.6666667,24 L18.6666667,29.0666667 C16.9066667,29.4222222 15.0933333,29.4222222 13.3333333,29.0666667 Z M21.3333333,28.2133333 L21.3333333,24 C21.3333333,21.790861 23.1241943,20 25.3333333,20 L28.72,20 C27.5547908,23.6733896 24.8630038,26.6664235 21.3333333,28.2133333 Z M16,2.66666667 C21.1151631,2.67010376 25.7774623,5.59958174 28,10.2066667 L25.2733333,9.38666667 C19.2341288,7.56675291 12.7925379,7.56675291 6.75333333,9.38666667 L4,10.2066667 C6.22253772,5.59958174 10.8848369,2.67010376 16,2.66666667 Z" id="Shape"></path>
                <path d="M15.7272727,21.2727273 C18.1372425,21.2727273 20.0909091,19.3190607 20.0909091,16.9090909 C20.0909091,14.4991211 18.1372425,12.5454545 15.7272727,12.5454545 C13.3173029,12.5454545 11.3636364,14.4991211 11.3636364,16.9090909 C11.3636364,19.3190607 13.3173029,21.2727273 15.7272727,21.2727273 Z M15.7272727,15.4545455 C16.530596,15.4545455 17.1818182,16.1057676 17.1818182,16.9090909 C17.1818182,17.7124142 16.530596,18.3636364 15.7272727,18.3636364 C14.9239495,18.3636364 14.2727273,17.7124142 14.2727273,16.9090909 C14.2727273,16.1057676 14.9239495,15.4545455 15.7272727,15.4545455 Z" id="Shape"></path>
            </g>
        </g>
    </g>
</svg>