<?xml version="1.0" encoding="UTF-8"?>
<svg width="33px" height="33px" viewBox="0 0 33 33" version="1.1" xmlns="http://www.w3.org/2000/svg" xmlns:xlink="http://www.w3.org/1999/xlink">
    <!-- Generator: Sketch 50.2 (55047) - http://www.bohemiancoding.com/sketch -->
    <title>ic_trend_cooking</title>
    <desc>Created with Sketch.</desc>
    <defs>
        <path d="M24.3809524,12.1904762 C23.5398095,12.1904762 22.8571429,12.8731429 22.8571429,13.7142857 L22.8571429,22.8571429 L21.3333333,22.8571429 L21.3333333,18.2857143 L18.2857143,18.2857143 L18.2857143,22.8571429 L16.7619048,22.8571429 L16.7619048,16.7619048 L13.7142857,16.7619048 L13.7142857,22.8571429 L12.1904762,22.8571429 L12.1904762,18.2857143 L9.14285714,18.2857143 L9.14285714,22.8571429 L7.61904762,22.8571429 L7.61904762,13.7142857 C7.61904762,12.8731429 6.93638095,12.1904762 6.0952381,12.1904762 C4.41447619,12.1904762 3.04761905,10.8220952 3.04761905,9.14285714 C3.04761905,7.46057143 4.41447619,6.0952381 6.0952381,6.0952381 C6.9272381,6.0952381 7.70742857,6.43047619 8.28952381,7.04152381 C8.66895238,7.43619048 9.22971429,7.59771429 9.76152381,7.46666667 C10.2918095,7.33257143 10.712381,6.92571429 10.8601905,6.39847619 C11.4102857,4.42514286 13.2114286,3.04761905 15.2380952,3.04761905 C17.2662857,3.04761905 19.0659048,4.42514286 19.6175238,6.39847619 C19.7638095,6.92571429 20.184381,7.33257143 20.7146667,7.46666667 C21.248,7.59771429 21.8072381,7.43771429 22.1866667,7.04152381 C22.7687619,6.43047619 23.5489524,6.0952381 24.3809524,6.0952381 C26.0617143,6.0952381 27.4285714,7.46057143 27.4285714,9.14285714 C27.4285714,10.8220952 26.0617143,12.1904762 24.3809524,12.1904762 L24.3809524,12.1904762 Z M7.61904762,25.9047619 L22.8571429,25.9047619 L22.8571429,27.4285714 L7.61904762,27.4285714 L7.61904762,25.9047619 Z M24.3809524,3.04761905 C23.4407619,3.04761905 22.5371429,3.25942857 21.7188571,3.66019048 C20.3611429,1.43390476 17.9184762,0 15.2380952,0 C12.5577143,0 10.1150476,1.43390476 8.75733333,3.66019048 C7.93904762,3.25942857 7.03542857,3.04761905 6.0952381,3.04761905 C2.7352381,3.04761905 0,5.78133333 0,9.14285714 C0,11.9771429 1.94590476,14.3664762 4.57142857,15.0460952 L4.57142857,28.952381 C4.57142857,29.7935238 5.25409524,30.4761905 6.0952381,30.4761905 L24.3809524,30.4761905 C25.2220952,30.4761905 25.9047619,29.7935238 25.9047619,28.952381 L25.9047619,15.0460952 C28.5302857,14.3664762 30.4761905,11.9771429 30.4761905,9.14285714 C30.4761905,5.78133333 27.7424762,3.04761905 24.3809524,3.04761905 L24.3809524,3.04761905 Z" id="path-1"></path>
        <filter x="-6.6%" y="-3.3%" width="113.1%" height="113.1%" filterUnits="objectBoundingBox" id="filter-2">
            <feOffset dx="0" dy="1" in="SourceAlpha" result="shadowOffsetOuter1"></feOffset>
            <feGaussianBlur stdDeviation="0.5" in="shadowOffsetOuter1" result="shadowBlurOuter1"></feGaussianBlur>
            <feColorMatrix values="0 0 0 0 0   0 0 0 0 0   0 0 0 0 0  0 0 0 0.7 0" type="matrix" in="shadowBlurOuter1"></feColorMatrix>
        </filter>
    </defs>
    <g id="Symbols" stroke="none" stroke-width="1" fill="none" fill-rule="evenodd">
        <g id="icons" transform="translate(-169.000000, -58.000000)">
            <g id="ic_trend_cooking" transform="translate(170.000000, 58.000000)">
                <g id="Fill-831">
                    <use fill="black" fill-opacity="1" filter="url(#filter-2)" xlink:href="#path-1"></use>
                    <use fill="#FFFFFF" fill-rule="evenodd" xlink:href="#path-1"></use>
                </g>
            </g>
        </g>
    </g>
</svg>