<?xml version="1.0" encoding="UTF-8"?>
<svg width="36px" height="34px" viewBox="0 0 36 34" version="1.1" xmlns="http://www.w3.org/2000/svg" xmlns:xlink="http://www.w3.org/1999/xlink">
    <!-- Generator: Sketch 50.2 (55047) - http://www.bohemiancoding.com/sketch -->
    <title>ic_trend_investigation</title>
    <desc>Created with Sketch.</desc>
    <defs>
        <filter x="-5.9%" y="-3.1%" width="111.8%" height="112.5%" filterUnits="objectBoundingBox" id="filter-1">
            <feOffset dx="0" dy="1" in="SourceAlpha" result="shadowOffsetOuter1"></feOffset>
            <feGaussianBlur stdDeviation="0.5" in="shadowOffsetOuter1" result="shadowBlurOuter1"></feGaussianBlur>
            <feColorMatrix values="0 0 0 0 0   0 0 0 0 0   0 0 0 0 0  0 0 0 0.7 0" type="matrix" in="shadowBlurOuter1" result="shadowMatrixOuter1"></feColorMatrix>
            <feMerge>
                <feMergeNode in="shadowMatrixOuter1"></feMergeNode>
                <feMergeNode in="SourceGraphic"></feMergeNode>
            </feMerge>
        </filter>
    </defs>
    <g id="Symbols" stroke="none" stroke-width="1" fill="none" fill-rule="evenodd">
        <g id="icons" transform="translate(-284.000000, -57.000000)" fill="#FFFFFF" fill-rule="nonzero">
            <g id="ic_trend_investigation" filter="url(#filter-1)" transform="translate(285.000000, 57.000000)">
                <path d="M32.5833333,12.822367 L29.2541667,12.822367 L25.1458333,2.44014479 C24.3666667,0.44903368 22.1,-0.546521876 20.1166667,0.306811458 C19.8333333,0.44903368 19.4791667,0.591255902 19.2666667,0.804589235 L17,2.5112559 L14.7333333,0.804589235 C13.0333333,-0.475410765 10.625,-0.119855209 9.35,1.58681146 C9.1375,1.8712559 8.99583333,2.15570035 8.85416667,2.44014479 L4.74583333,12.822367 L1.41666667,12.822367 C0.6375,12.822367 0,13.462367 0,14.2445892 C0,15.0268115 0.6375,15.6668115 1.41666667,15.6668115 L32.5833333,15.6668115 C33.3625,15.6668115 34,15.0268115 34,14.2445892 C34,13.462367 33.3625,12.822367 32.5833333,12.822367 Z M11.475,3.50681146 C11.6875,3.00903368 12.2541667,2.72458924 12.8208333,2.93792257 C12.8916667,2.93792257 12.9625,3.00903368 13.0333333,3.08014479 L16.15,5.42681146 C16.6458333,5.78236701 17.3541667,5.78236701 17.85,5.42681146 L20.9666667,3.08014479 C21.3916667,2.72458924 22.0291667,2.79570035 22.3833333,3.29347812 C22.4541667,3.36458924 22.4541667,3.43570035 22.525,3.50681146 L26.2083333,12.822367 L7.79166667,12.822367 L11.475,3.50681146 Z" id="Shape"></path>
                <path d="M24.8625,18.5112559 C22.8791667,18.5112559 20.9666667,19.4357003 19.7625,21.0001448 C18.2041667,19.5779226 15.7958333,19.5779226 14.1666667,21.0001448 C12.0416667,18.2268115 8.075,17.8001448 5.3125,19.9334781 C2.55,22.0668115 2.125,26.1201448 4.25,28.8934781 C6.44583333,31.6668115 10.4125,32.0934781 13.175,29.9601448 C14.6625,28.7512559 15.5833333,26.902367 15.5833333,24.982367 L15.5833333,24.2001448 C15.5833333,23.4179226 16.2208333,22.7779226 17,22.7779226 C17.7791667,22.7779226 18.4166667,23.4179226 18.4166667,24.2001448 L18.4166667,24.982367 C18.4166667,28.4668115 21.3208333,31.3112559 24.7916667,31.3112559 C28.3333333,31.3112559 31.1666667,28.4668115 31.2375,24.982367 C31.2375,21.4268115 28.4041667,18.5112559 24.8625,18.5112559 Z M9.20833333,28.4668115 C7.225,28.4668115 5.66666667,26.902367 5.66666667,24.9112559 C5.66666667,22.9201448 7.225,21.3557003 9.20833333,21.3557003 C11.1916667,21.3557003 12.75,22.9201448 12.75,24.9112559 C12.75,26.902367 11.1916667,28.4668115 9.20833333,28.4668115 Z M24.7916667,28.4668115 C22.8083333,28.4668115 21.25,26.902367 21.25,24.9112559 C21.25,22.9201448 22.8083333,21.3557003 24.7916667,21.3557003 C26.775,21.3557003 28.3333333,22.9201448 28.3333333,24.9112559 C28.3333333,26.902367 26.775,28.4668115 24.7916667,28.4668115 Z" id="Shape"></path>
            </g>
        </g>
    </g>
</svg>