<?xml version="1.0" encoding="UTF-8"?>
<svg width="32px" height="34px" viewBox="0 0 32 34" version="1.1" xmlns="http://www.w3.org/2000/svg" xmlns:xlink="http://www.w3.org/1999/xlink">
    <!-- Generator: Sketch 50.2 (55047) - http://www.bohemiancoding.com/sketch -->
    <title>ic_trend_golf</title>
    <desc>Created with Sketch.</desc>
    <defs>
        <filter x="-6.7%" y="-3.1%" width="113.3%" height="112.5%" filterUnits="objectBoundingBox" id="filter-1">
            <feOffset dx="0" dy="1" in="SourceAlpha" result="shadowOffsetOuter1"></feOffset>
            <feGaussianBlur stdDeviation="0.5" in="shadowOffsetOuter1" result="shadowBlurOuter1"></feGaussianBlur>
            <feColorMatrix values="0 0 0 0 0   0 0 0 0 0   0 0 0 0 0  0 0 0 0.7 0" type="matrix" in="shadowBlurOuter1" result="shadowMatrixOuter1"></feColorMatrix>
            <feMerge>
                <feMergeNode in="shadowMatrixOuter1"></feMergeNode>
                <feMergeNode in="SourceGraphic"></feMergeNode>
            </feMerge>
        </filter>
    </defs>
    <g id="Symbols" stroke="none" stroke-width="1" fill="none" fill-rule="evenodd">
        <g id="icons" transform="translate(-570.000000, -57.000000)" fill="#FFFFFF" fill-rule="nonzero">
            <g id="ic_trend_golf" filter="url(#filter-1)" transform="translate(571.000000, 57.000000)">
                <path d="M22.4654545,8.57454545 C22.9591484,8.32848947 23.2711765,7.8243405 23.2711765,7.27272727 C23.2711765,6.72111404 22.9591484,6.21696507 22.4654545,5.97090909 L10.8290909,0.152727273 C10.3889109,-0.0572768745 9.87277855,-0.032699143 9.45454545,0.218181818 C9.01164031,0.473804849 8.73550604,0.94323311 8.72727273,1.45454545 L8.72727273,20.4218182 C3.63636364,20.8072727 0,23.1490909 0,26.1818182 C0,29.4981818 4.36363636,32 10.1818182,32 C16,32 20.3636364,29.4981818 20.3636364,26.1818182 C20.3636364,23.1490909 16.7272727,20.8072727 11.6363636,20.4218182 L11.6363636,13.9927273 L22.4654545,8.57454545 Z M11.6363636,3.81090909 L18.5672727,7.27272727 L11.6363636,10.7345455 L11.6363636,3.81090909 Z M17.4545455,26.1818182 C17.4545455,27.3672727 14.6181818,29.0909091 10.1818182,29.0909091 C5.74545455,29.0909091 2.90909091,27.3672727 2.90909091,26.1818182 C2.90909091,24.9963636 5.74545455,23.2727273 10.1818182,23.2727273 C14.6181818,23.2727273 17.4545455,24.9963636 17.4545455,26.1818182 Z" id="Shape"></path>
                <path d="M24.7272727,23.2727273 C27.1372425,23.2727273 29.0909091,21.3190607 29.0909091,18.9090909 C29.0909091,16.4991211 27.1372425,14.5454545 24.7272727,14.5454545 C22.3173029,14.5454545 20.3636364,16.4991211 20.3636364,18.9090909 C20.3636364,21.3190607 22.3173029,23.2727273 24.7272727,23.2727273 Z M24.7272727,17.4545455 C25.530596,17.4545455 26.1818182,18.1057676 26.1818182,18.9090909 C26.1818182,19.7124142 25.530596,20.3636364 24.7272727,20.3636364 C23.9239495,20.3636364 23.2727273,19.7124142 23.2727273,18.9090909 C23.2727273,18.1057676 23.9239495,17.4545455 24.7272727,17.4545455 Z" id="Shape"></path>
            </g>
        </g>
    </g>
</svg>