<?xml version="1.0" encoding="UTF-8"?>
<svg width="31px" height="34px" viewBox="0 0 31 34" version="1.1" xmlns="http://www.w3.org/2000/svg" xmlns:xlink="http://www.w3.org/1999/xlink">
    <!-- Generator: Sketch 50.2 (55047) - http://www.bohemiancoding.com/sketch -->
    <title>ic_trend_culture</title>
    <desc>Created with Sketch.</desc>
    <defs>
        <filter x="-6.9%" y="-3.1%" width="113.8%" height="112.5%" filterUnits="objectBoundingBox" id="filter-1">
            <feOffset dx="0" dy="1" in="SourceAlpha" result="shadowOffsetOuter1"></feOffset>
            <feGaussianBlur stdDeviation="0.5" in="shadowOffsetOuter1" result="shadowBlurOuter1"></feGaussianBlur>
            <feColorMatrix values="0 0 0 0 0   0 0 0 0 0   0 0 0 0 0  0 0 0 0.7 0" type="matrix" in="shadowBlurOuter1" result="shadowMatrixOuter1"></feColorMatrix>
            <feMerge>
                <feMergeNode in="shadowMatrixOuter1"></feMergeNode>
                <feMergeNode in="SourceGraphic"></feMergeNode>
            </feMerge>
        </filter>
    </defs>
    <g id="Symbols" stroke="none" stroke-width="1" fill="none" fill-rule="evenodd">
        <g id="icons" transform="translate(-652.000000, -151.000000)" fill="#FFFFFF" fill-rule="nonzero">
            <g id="ic_trend_culture" filter="url(#filter-1)" transform="translate(653.000000, 151.000000)">
                <path d="M21.8704762,4.35809524 L6.60952381,4.35809524 C4.66666667,4.35809524 3.03619048,4.97904762 1.88952381,6.12190476 C0.768917114,7.28435796 0.159865758,8.84676673 0.198095238,10.4609524 C0.148750154,11.8587672 0.668339032,13.2168461 1.63809524,14.2247619 C2.56501911,15.1170839 3.806835,15.6072384 5.09333333,15.5885714 C7.41714286,15.5885714 9.23428571,14 9.41333333,11.84 C9.56922306,9.91197201 8.13690923,8.22078576 6.20952381,8.05714286 C5.80122028,8.02311756 5.40577998,8.20950424 5.17216144,8.54609282 C4.93854291,8.8826814 4.90223835,9.31833608 5.07692335,9.68894996 C5.25160834,10.0595638 5.61074409,10.3088318 6.01904762,10.3428571 C6.69083777,10.3994254 7.19012082,10.9890224 7.1352381,11.6609524 C7.04761905,12.7390476 6.03428571,13.3066667 5.08190476,13.3142857 C4.40280226,13.3342581 3.74361219,13.0834644 3.24952381,12.6171429 C2.71836441,12.0332331 2.44386677,11.2605222 2.48761905,10.472381 C2.44569974,9.4656007 2.81253434,8.48462729 3.5047619,7.75238095 C4.22095238,7.04 5.30666667,6.65904762 6.64380952,6.6552381 L21.8819048,6.6552381 C23.2304762,6.6552381 24.3238095,7.03619048 25.047619,7.75238095 C25.7398466,8.48462729 26.1066812,9.4656007 26.0647619,10.472381 C26.1085142,11.2605222 25.8340165,12.0332331 25.3028571,12.6171429 C24.8067613,13.0802528 24.1489438,13.3305243 23.4704762,13.3142857 C22.5180952,13.3142857 21.5047619,12.7390476 21.4171429,11.6609524 C21.3622601,10.9890224 21.8615432,10.3994254 22.5333333,10.3428571 C23.1645159,10.2902586 23.6335509,9.73594448 23.5809524,9.1047619 C23.5283538,8.47357933 22.9740397,8.00454431 22.3428571,8.05714286 C20.4154717,8.22078576 18.9831579,9.91197201 19.1390476,11.84 C19.3180952,14 21.1352381,15.5771429 23.4590476,15.5885714 L23.4857143,15.5885714 C24.7644782,15.6080948 25.9983196,15.1173001 26.9142857,14.2247619 C27.8840419,13.2168461 28.4036308,11.8587672 28.3542857,10.4609524 C28.3925152,8.84676673 27.7834638,7.28435796 26.6628571,6.12190476 C25.4857143,4.95238095 23.832381,4.35809524 21.8704762,4.35809524 Z" id="Shape"></path>
                <path d="M22.3771429,16.7085714 C21.7459603,16.7085714 21.2342857,17.220246 21.2342857,17.8514286 L21.2342857,28.7047619 C21.2342857,29.098199 20.9153419,29.4171429 20.5219048,29.4171429 L8,29.4171429 C7.60656286,29.4171429 7.28761905,29.098199 7.28761905,28.7047619 L7.28761905,17.8514286 C7.28761905,17.220246 6.77594448,16.7085714 6.1447619,16.7085714 C5.51357933,16.7085714 5.00190476,17.220246 5.00190476,17.8514286 L5.00190476,28.7047619 C5.00190476,29.4999062 5.3177746,30.2624835 5.88002653,30.8247354 C6.44227845,31.3869873 7.2048557,31.7028571 8,31.7028571 L20.5219048,31.7028571 C22.177707,31.7028571 23.52,30.3605642 23.52,28.7047619 L23.52,17.8514286 C23.52,17.548324 23.3995922,17.2576338 23.1852649,17.0433065 C22.9709376,16.8289792 22.6802474,16.7085714 22.3771429,16.7085714 Z" id="Shape"></path>
                <path d="M12.887619,25.9961905 L12.887619,12.087619 C12.887619,11.4564365 12.3759445,10.9447619 11.7447619,10.9447619 C11.1135793,10.9447619 10.6019048,11.4564365 10.6019048,12.087619 L10.6019048,25.9961905 C10.6019048,26.627373 11.1135793,27.1390476 11.7447619,27.1390476 C12.3759445,27.1390476 12.887619,26.627373 12.887619,25.9961905 Z" id="Shape"></path>
                <path d="M17.9314286,25.9961905 L17.9314286,12.087619 C17.9314286,11.4564365 17.419754,10.9447619 16.7885714,10.9447619 C16.1573889,10.9447619 15.6457143,11.4564365 15.6457143,12.087619 L15.6457143,25.9961905 C15.6457143,26.627373 16.1573889,27.1390476 16.7885714,27.1390476 C17.419754,27.1390476 17.9314286,26.627373 17.9314286,25.9961905 Z" id="Shape"></path>
                <path d="M27.1885714,2.49904762 C27.819754,2.49904762 28.3314286,1.98737305 28.3314286,1.35619048 C28.3314286,0.725007905 27.819754,0.213333333 27.1885714,0.213333333 L1.3447619,0.213333333 C0.713579334,0.213333333 0.201904762,0.725007905 0.201904762,1.35619048 C0.201904762,1.98737305 0.713579334,2.49904762 1.3447619,2.49904762 L27.1885714,2.49904762 Z" id="Shape"></path>
            </g>
        </g>
    </g>
</svg>