<?xml version="1.0" encoding="UTF-8"?>
<svg width="34px" height="34px" viewBox="0 0 34 34" version="1.1" xmlns="http://www.w3.org/2000/svg" xmlns:xlink="http://www.w3.org/1999/xlink">
    <!-- Generator: Sketch 50.2 (55047) - http://www.bohemiancoding.com/sketch -->
    <title>ic_trend_digital</title>
    <desc>Created with Sketch.</desc>
    <defs>
        <filter x="-6.2%" y="-3.1%" width="112.5%" height="112.5%" filterUnits="objectBoundingBox" id="filter-1">
            <feOffset dx="0" dy="1" in="SourceAlpha" result="shadowOffsetOuter1"></feOffset>
            <feGaussianBlur stdDeviation="0.5" in="shadowOffsetOuter1" result="shadowBlurOuter1"></feGaussianBlur>
            <feColorMatrix values="0 0 0 0 0   0 0 0 0 0   0 0 0 0 0  0 0 0 0.7 0" type="matrix" in="shadowBlurOuter1" result="shadowMatrixOuter1"></feColorMatrix>
            <feMerge>
                <feMergeNode in="shadowMatrixOuter1"></feMergeNode>
                <feMergeNode in="SourceGraphic"></feMergeNode>
            </feMerge>
        </filter>
    </defs>
    <g id="Symbols" stroke="none" stroke-width="1" fill="none" fill-rule="evenodd">
        <g id="icons" transform="translate(-386.000000, -57.000000)" fill="#FFFFFF" fill-rule="nonzero">
            <g id="ic_trend_digital" filter="url(#filter-1)" transform="translate(387.000000, 57.000000)">
                <path d="M20,10.6666667 L12,10.6666667 C11.2636203,10.6666667 10.6666667,11.2636203 10.6666667,12 L10.6666667,20 C10.6666667,20.7363797 11.2636203,21.3333333 12,21.3333333 L20,21.3333333 C20.7363797,21.3333333 21.3333333,20.7363797 21.3333333,20 L21.3333333,12 C21.3333333,11.2636203 20.7363797,10.6666667 20,10.6666667 Z M18.6666667,18.6666667 L13.3333333,18.6666667 L13.3333333,13.3333333 L18.6666667,13.3333333 L18.6666667,18.6666667 Z" id="Shape"></path>
                <path d="M30.6666667,10.6666667 C31.4030463,10.6666667 32,10.069713 32,9.33333333 C32,8.59695367 31.4030463,8 30.6666667,8 L28,8 C28,5.790861 26.209139,4 24,4 L24,1.33333333 C24,0.596953667 23.4030463,0 22.6666667,0 C21.930287,0 21.3333333,0.596953667 21.3333333,1.33333333 L21.3333333,4 L17.3333333,4 L17.3333333,1.33333333 C17.3333333,0.596953667 16.7363797,0 16,0 C15.2636203,0 14.6666667,0.596953667 14.6666667,1.33333333 L14.6666667,4 L10.6666667,4 L10.6666667,1.33333333 C10.6666667,0.596953667 10.069713,0 9.33333333,0 C8.59695367,0 8,0.596953667 8,1.33333333 L8,4 C5.790861,4 4,5.790861 4,8 L1.33333333,8 C0.596953667,8 0,8.59695367 0,9.33333333 C0,10.069713 0.596953667,10.6666667 1.33333333,10.6666667 L4,10.6666667 L4,14.6666667 L1.33333333,14.6666667 C0.596953667,14.6666667 0,15.2636203 0,16 C0,16.7363797 0.596953667,17.3333333 1.33333333,17.3333333 L4,17.3333333 L4,21.3333333 L1.33333333,21.3333333 C0.596953667,21.3333333 0,21.930287 0,22.6666667 C0,23.4030463 0.596953667,24 1.33333333,24 L4,24 C4,26.209139 5.790861,28 8,28 L8,30.6666667 C8,31.4030463 8.59695367,32 9.33333333,32 C10.069713,32 10.6666667,31.4030463 10.6666667,30.6666667 L10.6666667,28 L14.6666667,28 L14.6666667,30.6666667 C14.6666667,31.4030463 15.2636203,32 16,32 C16.7363797,32 17.3333333,31.4030463 17.3333333,30.6666667 L17.3333333,28 L21.3333333,28 L21.3333333,30.6666667 C21.3333333,31.4030463 21.930287,32 22.6666667,32 C23.4030463,32 24,31.4030463 24,30.6666667 L24,28 C26.209139,28 28,26.209139 28,24 L30.6666667,24 C31.4030463,24 32,23.4030463 32,22.6666667 C32,21.930287 31.4030463,21.3333333 30.6666667,21.3333333 L28,21.3333333 L28,17.3333333 L30.6666667,17.3333333 C31.4030463,17.3333333 32,16.7363797 32,16 C32,15.2636203 31.4030463,14.6666667 30.6666667,14.6666667 L28,14.6666667 L28,10.6666667 L30.6666667,10.6666667 Z M25.3333333,24 C25.3333333,24.7363797 24.7363797,25.3333333 24,25.3333333 L8,25.3333333 C7.26362033,25.3333333 6.66666667,24.7363797 6.66666667,24 L6.66666667,8 C6.66666667,7.26362033 7.26362033,6.66666667 8,6.66666667 L24,6.66666667 C24.7363797,6.66666667 25.3333333,7.26362033 25.3333333,8 L25.3333333,24 Z" id="Shape"></path>
            </g>
        </g>
    </g>
</svg>