<?xml version="1.0" encoding="UTF-8"?>
<svg width="34px" height="34px" viewBox="0 0 34 34" version="1.1" xmlns="http://www.w3.org/2000/svg" xmlns:xlink="http://www.w3.org/1999/xlink">
    <!-- Generator: Sketch 50.2 (55047) - http://www.bohemiancoding.com/sketch -->
    <title>ic_trend_art</title>
    <desc>Created with Sketch.</desc>
    <defs>
        <path d="M27.0172726,1.48024885e-16 C25.5657646,0.00516085226 24.188052,0.640064164 23.241672,1.73994297 L17.2680849,8.70638129 L13.8693773,5.30649273 C12.1030289,3.54692963 9.2452217,3.54692963 7.47887322,5.30649273 L5.72782173,7.05643538 C5.4773019,7.30651819 5.33653789,7.64587039 5.33653789,7.99973779 C5.33653789,8.35360519 5.4773019,8.69295739 5.72782173,8.9430402 L7.45219053,10.6663171 L0.391283839,17.7227524 C0.140764012,17.9728352 7.40593405e-17,18.3121874 0,18.6660548 C-7.40593405e-17,19.0199222 0.140764012,19.3592744 0.391283839,19.6093573 L12.3984941,31.6089639 C12.6487354,31.8593251 12.9883026,32 13.3423942,32 C13.6964859,32 14.0360531,31.8593251 14.2862944,31.6089639 L21.3472011,24.5525286 L23.0715699,26.2758054 C23.3218111,26.5261666 23.6613784,26.6668415 24.01547,26.6668415 C24.3695616,26.6668415 24.7091289,26.5261666 24.9593701,26.2758054 L26.7104216,24.5258628 C28.4710997,22.7606328 28.4710997,19.9046354 26.7104216,18.1394054 L23.3083787,14.7428501 L30.2792314,8.77304578 C31.8515713,7.40695192 32.4121722,5.21005281 31.6864766,3.25829263 C30.9607809,1.30653245 29.1007212,0.00853415826 27.0172726,1.48024885e-16 Z M13.3423942,28.7790567 L11.2044437,26.6457933 L14.2662824,23.5892268 C14.787584,23.0682553 14.787584,22.2235935 14.2662823,21.702622 C13.7449807,21.1816505 12.8997837,21.1816505 12.3784821,21.702622 L9.3199788,24.7591885 L7.1820283,22.625925 L8.90639711,20.899315 C9.38400072,20.3725408 9.3640795,19.5639443 8.86111426,19.0612975 C8.35814902,18.5586508 7.54904018,18.5387422 7.02193217,19.0160434 L5.29756336,20.7393202 L3.22298426,18.6660548 L9.33999081,12.5529219 L19.4594008,22.6659237 L13.3423942,28.7790567 Z M24.8226214,22.6392579 L24.01547,23.4458982 L22.2911012,21.7226213 L10.283891,9.72301464 L8.55952215,7.99973779 L9.3666735,7.19309756 C10.0892373,6.47262351 11.2590133,6.47262351 11.9815771,7.19309756 L16.4008975,11.6096195 L20.4033009,15.6094884 L24.8226214,20.0260103 C25.5435519,20.7481165 25.5435519,21.9171518 24.8226214,22.6392579 Z M28.5415212,6.74644554 L21.4172431,12.8495788 L19.1625559,10.5963193 L25.2695564,3.47655271 C25.8205244,2.75349838 26.7414698,2.41596408 27.6295681,2.61158839 C28.5176665,2.80721271 29.2112853,3.50039233 29.4070336,4.38792829 C29.6027819,5.27546425 29.2650337,6.19582645 28.5415212,6.74644554 Z" id="path-1"></path>
        <filter x="-6.2%" y="-3.1%" width="112.5%" height="112.5%" filterUnits="objectBoundingBox" id="filter-2">
            <feOffset dx="0" dy="1" in="SourceAlpha" result="shadowOffsetOuter1"></feOffset>
            <feGaussianBlur stdDeviation="0.5" in="shadowOffsetOuter1" result="shadowBlurOuter1"></feGaussianBlur>
            <feColorMatrix values="0 0 0 0 0   0 0 0 0 0   0 0 0 0 0  0 0 0 0.7 0" type="matrix" in="shadowBlurOuter1"></feColorMatrix>
        </filter>
    </defs>
    <g id="Symbols" stroke="none" stroke-width="1" fill="none" fill-rule="evenodd">
        <g id="icons" transform="translate(-46.000000, -57.000000)" fill-rule="nonzero">
            <g id="ic_trend_art" transform="translate(47.000000, 57.000000)">
                <g>
                    <use fill="black" fill-opacity="1" filter="url(#filter-2)" xlink:href="#path-1"></use>
                    <use fill="#FFFFFF" fill-rule="evenodd" xlink:href="#path-1"></use>
                </g>
            </g>
        </g>
    </g>
</svg>