<?xml version="1.0" encoding="UTF-8"?>
<svg width="34px" height="34px" viewBox="0 0 34 34" version="1.1" xmlns="http://www.w3.org/2000/svg" xmlns:xlink="http://www.w3.org/1999/xlink">
    <!-- Generator: Sketch 50.2 (55047) - http://www.bohemiancoding.com/sketch -->
    <title>ic_trend_skineige</title>
    <desc>Created with Sketch.</desc>
    <defs>
        <filter x="-6.2%" y="-3.1%" width="112.5%" height="112.5%" filterUnits="objectBoundingBox" id="filter-1">
            <feOffset dx="0" dy="1" in="SourceAlpha" result="shadowOffsetOuter1"></feOffset>
            <feGaussianBlur stdDeviation="0.5" in="shadowOffsetOuter1" result="shadowBlurOuter1"></feGaussianBlur>
            <feColorMatrix values="0 0 0 0 0   0 0 0 0 0   0 0 0 0 0  0 0 0 0.7 0" type="matrix" in="shadowBlurOuter1" result="shadowMatrixOuter1"></feColorMatrix>
            <feMerge>
                <feMergeNode in="shadowMatrixOuter1"></feMergeNode>
                <feMergeNode in="SourceGraphic"></feMergeNode>
            </feMerge>
        </filter>
    </defs>
    <g id="Symbols" stroke="none" stroke-width="1" fill="none" fill-rule="evenodd">
        <g id="icons" transform="translate(-46.000000, -151.000000)" fill="#FFFFFF" fill-rule="nonzero">
            <g id="ic_trend_skineige" filter="url(#filter-1)" transform="translate(47.000000, 151.000000)">
                <path d="M29.6727273,19.3454545 L26.2836364,20.2545455 L21.5854545,17.5418182 C21.8958707,16.5373756 21.8958707,15.4626244 21.5854545,14.4581818 L26.2836364,11.7454545 L29.6727273,12.6545455 C29.79679,12.6830102 29.923624,12.6976449 30.0509091,12.6981818 C30.7792429,12.6965499 31.3940901,12.1564786 31.4896276,11.434436 C31.585165,10.7123935 31.1319366,10.0309992 30.4290909,9.84 L27.8618182,9.15636364 L28.5454545,6.58181818 C28.7242255,6.06461237 28.5975804,5.49083663 28.2177079,5.09693593 C27.8378353,4.70303523 27.2690272,4.55567561 26.7456813,4.7155819 C26.2223354,4.87548819 25.8330259,5.31559693 25.7381818,5.85454545 L24.8290909,9.24363636 L20.1454545,11.9272727 C19.4045035,11.179336 18.4744923,10.6464647 17.4545455,10.3854545 L17.4545455,4.96727273 L19.9345455,2.48 C20.4287662,1.90289414 20.3955378,1.04262666 19.8582738,0.505362588 C19.3210097,-0.0319014832 18.4607422,-0.065129885 17.8836364,0.429090909 L16,2.30545455 L14.1163636,0.429090909 C13.5392578,-0.065129885 12.6789903,-0.0319014832 12.1417262,0.505362588 C11.6044622,1.04262666 11.5712338,1.90289414 12.0654545,2.48 L14.5454545,4.96727273 L14.5454545,10.3854545 C13.5255077,10.6464647 12.5954965,11.179336 11.8545455,11.9272727 L7.17090909,9.22181818 L6.26181818,5.81818182 C6.16697407,5.27923329 5.77766458,4.83912455 5.25431871,4.67921826 C4.73097284,4.51931197 4.16216468,4.6666716 3.78229213,5.0605723 C3.40241957,5.454473 3.27577445,6.02824874 3.45454545,6.54545455 L4.13818182,9.12 L1.57090909,9.80363636 C0.868063369,9.99463557 0.414835008,10.6760299 0.510372441,11.3980724 C0.605909874,12.1201149 1.2207571,12.6601862 1.94909091,12.6618182 C2.07637603,12.6612812 2.20321004,12.6466465 2.32727273,12.6181818 L5.71636364,11.7090909 L10.4145455,14.4218182 C10.1041293,15.4262608 10.1041293,16.5010119 10.4145455,17.5054545 L5.71636364,20.2181818 L2.32727273,19.3454545 C1.56343124,19.1787617 0.80445293,19.645699 0.608857036,20.4026551 C0.413261142,21.1596112 0.851022516,21.9357835 1.6,22.16 L4.16727273,22.8436364 L3.45454545,25.4545455 C3.24618756,26.2296864 3.7051044,27.0270951 4.48,27.2363636 C4.60406269,27.2648284 4.73089669,27.2794631 4.85818182,27.28 C5.52179482,27.2769967 6.09923813,26.8252146 6.26181818,26.1818182 L7.17090909,22.7927273 L11.8545455,20.0727273 C12.5954965,20.820664 13.5255077,21.3535353 14.5454545,21.6145455 L14.5454545,27.0327273 L12.0654545,29.52 C11.5712338,30.0971059 11.6044622,30.9573733 12.1417262,31.4946374 C12.6789903,32.0319015 13.5392578,32.0651299 14.1163636,31.5709091 L16,29.6945455 L17.8836364,31.5709091 C18.4607422,32.0651299 19.3210097,32.0319015 19.8582738,31.4946374 C20.3955378,30.9573733 20.4287662,30.0971059 19.9345455,29.52 L17.4545455,27.0327273 L17.4545455,21.6145455 C18.4744923,21.3535353 19.4045035,20.820664 20.1454545,20.0727273 L24.8290909,22.7781818 L25.7381818,26.1818182 C25.9090915,26.8165567 26.4844728,27.2577817 27.1418182,27.2581818 C27.2691033,27.2576449 27.3959373,27.2430102 27.52,27.2145455 C28.284113,27.0050792 28.7400287,26.2225856 28.5454545,25.4545455 L27.8618182,22.88 L30.4290909,22.1963636 C31.1780684,21.9721471 31.6158298,21.1959748 31.4202339,20.4390187 C31.224638,19.6820626 30.4656597,19.2151254 29.7018182,19.3818182 L29.6727273,19.3454545 Z M16,18.9090909 C14.3933535,18.9090909 13.0909091,17.6066465 13.0909091,16 C13.0909091,14.3933535 14.3933535,13.0909091 16,13.0909091 C17.6066465,13.0909091 18.9090909,14.3933535 18.9090909,16 C18.9090909,17.6066465 17.6066465,18.9090909 16,18.9090909 Z" id="Shape"></path>
            </g>
        </g>
    </g>
</svg>