<?xml version="1.0" encoding="UTF-8"?>
<svg width="34px" height="34px" viewBox="0 0 34 34" version="1.1" xmlns="http://www.w3.org/2000/svg" xmlns:xlink="http://www.w3.org/1999/xlink">
    <!-- Generator: Sketch 50.2 (55047) - http://www.bohemiancoding.com/sketch -->
    <title>ic_trend_jeuxdequipe</title>
    <desc>Created with Sketch.</desc>
    <defs>
        <filter x="-6.2%" y="-3.1%" width="112.5%" height="112.5%" filterUnits="objectBoundingBox" id="filter-1">
            <feOffset dx="0" dy="1" in="SourceAlpha" result="shadowOffsetOuter1"></feOffset>
            <feGaussianBlur stdDeviation="0.5" in="shadowOffsetOuter1" result="shadowBlurOuter1"></feGaussianBlur>
            <feColorMatrix values="0 0 0 0 0   0 0 0 0 0   0 0 0 0 0  0 0 0 0.7 0" type="matrix" in="shadowBlurOuter1" result="shadowMatrixOuter1"></feColorMatrix>
            <feMerge>
                <feMergeNode in="shadowMatrixOuter1"></feMergeNode>
                <feMergeNode in="SourceGraphic"></feMergeNode>
            </feMerge>
        </filter>
    </defs>
    <g id="Symbols" stroke="none" stroke-width="1" fill="none" fill-rule="evenodd">
        <g id="icons" transform="translate(-169.000000, -151.000000)" fill="#FFFFFF" fill-rule="nonzero">
            <g id="ic_trend_jeuxdequipe" filter="url(#filter-1)" transform="translate(170.000000, 151.000000)">
                <path d="M19.0866667,17.72 C18.8248271,17.9660716 18.6733887,18.3074091 18.6666667,18.6666667 L18.6666667,21.3333333 C18.6666667,22.069713 19.2636203,22.6666667 20,22.6666667 C20.7363797,22.6666667 21.3333333,22.069713 21.3333333,21.3333333 L21.3333333,19.2466667 C23.0376214,17.4443894 23.9911898,15.0604684 24,12.58 L24,6.61333333 C23.8466667,3.02666667 20.1866667,0 16,0 C11.8133333,0 8.15333333,3.02666667 8,6.66666667 L8,12.58 C8.00881023,15.0604684 8.96237863,17.4443894 10.6666667,19.2466667 L10.6666667,20.3866667 L3.57333333,22.8733333 C1.43366675,23.621325 0.000523461261,25.640025 0,27.9066667 L0,30.6666667 C0,31.4030463 0.596953667,32 1.33333333,32 L20,32 C20.7363797,32 21.3333333,31.4030463 21.3333333,30.6666667 C21.3333333,29.930287 20.7363797,29.3333333 20,29.3333333 L2.66666667,29.3333333 L2.66666667,27.9066667 C2.66551069,26.7721219 3.38234397,25.761066 4.45333333,25.3866667 L12.4533333,22.5933333 C12.9835678,22.4016398 13.3359104,21.8971493 13.3333333,21.3333333 L13.3333333,18.6666667 C13.3338699,18.2981195 13.1818365,17.945788 12.9133333,17.6933333 C11.4940877,16.3696938 10.6816579,14.5206326 10.6666667,12.58 L10.6666667,6.72 C10.7533333,4.56 13.2466667,2.66666667 16,2.66666667 C18.7533333,2.66666667 21.2466667,4.56 21.3333333,6.66666667 L21.3333333,12.58 C21.3256691,14.5299198 20.5126326,16.3900123 19.0866667,17.72 Z" id="Shape"></path>
                <path d="M30.6666667,25.3333333 L28,25.3333333 L28,22.6666667 C28,21.930287 27.4030463,21.3333333 26.6666667,21.3333333 C25.930287,21.3333333 25.3333333,21.930287 25.3333333,22.6666667 L25.3333333,25.3333333 L22.6666667,25.3333333 C21.930287,25.3333333 21.3333333,25.930287 21.3333333,26.6666667 C21.3333333,27.4030463 21.930287,28 22.6666667,28 L25.3333333,28 L25.3333333,30.6666667 C25.3333333,31.4030463 25.930287,32 26.6666667,32 C27.4030463,32 28,31.4030463 28,30.6666667 L28,28 L30.6666667,28 C31.4030463,28 32,27.4030463 32,26.6666667 C32,25.930287 31.4030463,25.3333333 30.6666667,25.3333333 Z" id="Shape"></path>
            </g>
        </g>
    </g>
</svg>