<?xml version="1.0" encoding="utf-8"?>
<!-- Generator: Adobe Illustrator 22.0.1, SVG Export Plug-In . SVG Version: 6.00 Build 0)  -->
<svg version="1.1" id="Calque_1" xmlns="http://www.w3.org/2000/svg" xmlns:xlink="http://www.w3.org/1999/xlink" x="0px" y="0px"
	 viewBox="0 0 175.2 169.8" style="enable-background:new 0 0 175.2 169.8;" xml:space="preserve">
<style type="text/css">
	.st0{fill:#121518;}
	.st1{fill:#FFFFFF;}
</style>
<rect x="1" class="st0" width="174.2" height="169.8"/>
<g>
	<g>
		<g>
			<g>
				<g>
					<path class="st1" d="M20,38.3h-4.5v-9.9h-10v9.9H1V14.9h4.5v9.4h10v-9.4H20V38.3z"/>
				</g>
			</g>
			<g>
				<g>
					<path class="st1" d="M69.6,26.5c0,6.8-4.8,12.2-11.4,12.2s-11.5-5.4-11.5-12.2s4.8-12.2,11.5-12.2
						C64.7,14.4,69.6,19.8,69.6,26.5z M65.1,26.5c0-4.4-3.1-8-7-8s-7,3.6-7,8s3.1,8,7,8S65.1,30.9,65.1,26.5z"/>
				</g>
			</g>
			<g>
				<path class="st1" d="M107.5,30H102v8.4h-4.5V14.9h9.9c4.9,0,7.7,3,7.7,7.6C115.1,26.8,112.1,30,107.5,30z M102,19.1v6.8h5.4
					c2.1,0,3.3-1,3.3-3.4s-1.2-3.4-3.3-3.4C107.4,19.1,102,19.1,102,19.1z"/>
			</g>
			<g>
				<g>
					<path class="st1" d="M19.5,67.1H15c0-2-1.7-3.5-4.5-3.5c-2.4,0-4.6,0.9-4.6,2.7c0,1.6,1.6,2.2,5.2,2.9c5.6,1.1,9.1,2.5,9.1,7.3
						c0,4.5-3.8,7.4-9.7,7.4c-4.6,0-9.6-2.5-9.6-8.2h4.5c0,2.8,2.8,4.1,5.1,4.1c2.6,0,5.2-0.9,5.2-3.1c0-1.5-1.2-2.4-5.5-3.2
						c-4.3-0.8-8.7-2.1-8.7-7.2c0-4,3.5-6.8,9-6.8C16.7,59.4,19.5,63.4,19.5,67.1z"/>
				</g>
			</g>
			<g>
				<g>
					<path class="st1" d="M58.6,83.9c-6.4,0-11.3-5.4-11.3-12.2c0-6.8,5-12.2,11.3-12.2c5.3,0,9.2,3,10.7,7.8h-4.8
						c-1-2.1-3.1-3.7-5.8-3.7c-3.8,0-6.9,3.7-6.9,8.1c0,4.5,3,8.2,6.9,8.2c2.7,0,4.8-1.7,5.8-3.8h4.8C67.8,80.8,63.8,83.9,58.6,83.9
						z"/>
				</g>
			</g>
			<g>
				<path class="st1" d="M117.1,71.7c0,6.8-4.8,12.2-11.4,12.2c-6.6,0-11.5-5.4-11.5-12.2c0-6.8,4.8-12.2,11.5-12.2
					C112.3,59.5,117.1,64.9,117.1,71.7z M112.6,71.7c0-4.4-3.1-8-7-8s-7,3.6-7,8s3.1,8,7,8C109.5,79.7,112.6,76,112.6,71.7z"/>
			</g>
			<g>
				<g>
					<path class="st1" d="M12.8,109.1v19.3H8.3v-19.3H2V105h17v4.1H12.8z"/>
				</g>
			</g>
			<g>
				<g>
					<path class="st1" d="M58.6,128.8c-6.4,0-11.3-5.4-11.3-12.2s5-12.2,11.3-12.2c5.3,0,9.2,3,10.7,7.8h-4.8
						c-1-2.1-3.1-3.7-5.8-3.7c-3.8,0-6.9,3.7-6.9,8.1c0,4.5,3,8.2,6.9,8.2c2.7,0,4.8-1.7,5.8-3.8h4.8
						C67.8,125.7,63.8,128.8,58.6,128.8z"/>
				</g>
			</g>
			<g>
				<path class="st1" d="M115.1,128.4h-4.5v-9.9h-10v9.9h-4.5V105h4.5v9.4h10V105h4.5V128.4z"/>
			</g>
		</g>
	</g>
</g>
</svg>
