<?xml version="1.0" encoding="UTF-8"?>
<svg width="20px" height="16px" viewBox="0 0 20 16" version="1.1" xmlns="http://www.w3.org/2000/svg" xmlns:xlink="http://www.w3.org/1999/xlink">
    <!-- Generator: Sketch 49.3 (51167) - http://www.bohemiancoding.com/sketch -->
    <title>ic_visible_inactif</title>
    <desc>Created with Sketch.</desc>
    <defs>
        <rect id="path-1" x="1.84094917" y="5.54465287" width="16.2962963" height="1.48148148"></rect>
    </defs>
    <g id="Design---Propositions-DA" stroke="none" stroke-width="1" fill="none" fill-rule="evenodd">
        <g id="13-02-Capdel_Website_LogIn_full" transform="translate(-858.000000, -426.000000)">
            <g id="Group-2" transform="translate(299.000000, 176.000000)">
                <g id="contenu" transform="translate(327.000000, 153.000000)">
                    <g id="sign-in">
                        <g id="mdp" transform="translate(0.000000, 76.000000)">
                            <g id="ic_visible_inactif" transform="translate(232.000000, 23.000000)">
                                <path d="M19.8011881,6.21442357 C19.8007921,6.20623643 19.8,6.19843916 19.7994059,6.19044696 C19.7990099,6.18635339 19.7988119,6.18225982 19.7984158,6.17836119 C19.7978218,6.17251324 19.7968317,6.16666528 19.7960396,6.16101226 C19.7952475,6.15418965 19.7944554,6.14736704 19.7932673,6.14073936 C19.7930693,6.13995963 19.7928713,6.13898497 19.7928713,6.13820524 C19.7685149,5.98752298 19.6964356,5.84619745 19.5859406,5.73742552 C18.9542574,5.00038848 18.2027723,4.34444306 17.4386139,3.74541772 C15.7928713,2.45457951 13.9106931,1.37465749 11.8330693,0.93995963 C10.6322772,0.688887505 9.4239604,0.678166257 8.21683168,0.890641891 C7.11881188,1.08401421 6.06059406,1.48596353 5.07009901,1.98420914 C3.51980198,2.76393624 2.1039604,3.83898497 0.87029703,5.04424813 C0.641980198,5.26725008 0.414851485,5.49493039 0.207326733,5.73723058 C-0.0691089109,6.05964774 -0.0691089109,6.44151908 0.207326733,6.76393624 C0.839009901,7.50097327 1.59049505,8.15672376 2.35465347,8.75594404 C4.00059406,10.0467822 5.88277228,11.1265093 7.96039604,11.5612072 C9.16118812,11.8124742 10.369703,11.8231955 11.5768317,11.6107199 C12.6746535,11.4173475 13.7328713,11.0153982 14.7235644,10.5171526 C16.2738614,9.73723058 17.689703,8.66237678 18.9233663,7.45711363 C19.1516832,7.23391674 19.3788119,7.00643136 19.5863366,6.76413117 C19.6968317,6.65516431 19.7689109,6.5140337 19.7932673,6.36315651 C19.7932673,6.36237678 19.7934653,6.36140212 19.7936634,6.3606224 C19.7948515,6.35379979 19.7956436,6.34717211 19.7964356,6.34034949 C19.7972277,6.33469647 19.7982178,6.32884852 19.7988119,6.32300057 C19.7992079,6.318907 19.7994059,6.31500836 19.799802,6.3109148 C19.800396,6.30311752 19.8011881,6.29532025 19.8015842,6.28713312 C19.8021782,6.27504735 19.8025743,6.26296158 19.8025743,6.25068088 C19.8025743,6.23840018 19.8017822,6.22650934 19.8011881,6.21442357 Z M9.90118812,10.0013631 C7.79683168,10.0013631 6.09108911,8.32222084 6.09108911,6.25068088 C6.09108911,4.17933585 7.79683168,2.49999862 9.90118812,2.49999862 C12.0055446,2.49999862 13.7112871,4.17914092 13.7112871,6.25068088 C13.7112871,8.32222084 12.0055446,10.0013631 9.90118812,10.0013631 Z" id="Shape" fill="#778895" fill-rule="nonzero"></path>
                                <g id="Rectangle-10" transform="translate(9.989097, 6.285394) rotate(-45.000000) translate(-9.989097, -6.285394) ">
                                    <use fill="#778895" fill-rule="evenodd" xlink:href="#path-1"></use>
                                    <rect stroke="#FFFFFF" stroke-width="1" x="1.34094917" y="5.04465287" width="17.2962963" height="2.48148148"></rect>
                                </g>
                            </g>
                        </g>
                    </g>
                </g>
            </g>
        </g>
    </g>
</svg>