<svg xmlns="http://www.w3.org/2000/svg" xmlns:xlink="http://www.w3.org/1999/xlink" width="34" height="31.31" viewBox="0 0 34 31.31"><defs><path id="a" d="M1027.47 1360.5c.22-.5.78-.78 1.35-.56.07 0 .14.07.21.14l3.12 2.35c.5.35 1.2.35 1.7 0l3.12-2.35a.96.96 0 0 1 1.41.21c.07.07.07.15.15.22l3.68 9.31h-18.42zm21.11 9.32h-3.33l-4.1-10.38a3.8 3.8 0 0 0-5.03-2.13c-.29.14-.64.28-.85.5l-2.27 1.7-2.27-1.7a3.84 3.84 0 0 0-5.88 1.63l-4.1 10.38h-3.33a1.42 1.42 0 0 0 0 2.85h31.16a1.42 1.42 0 0 0 0-2.85z"/><path id="b" d="M1040.8 1385.47a3.51 3.51 0 0 1-3.55-3.56c0-2 1.56-3.56 3.55-3.56a3.51 3.51 0 0 1 3.54 3.56c0 2-1.56 3.56-3.54 3.56zm-15.59 0a3.51 3.51 0 0 1-3.54-3.56c0-2 1.56-3.56 3.54-3.56a3.51 3.51 0 0 1 3.54 3.56c0 2-1.55 3.56-3.54 3.56zm15.66-9.96c-1.99 0-3.9.92-5.1 2.49a4.2 4.2 0 0 0-5.6 0 6.29 6.29 0 0 0-8.85-1.07 6.43 6.43 0 0 0-1.07 8.96 6.38 6.38 0 0 0 8.93 1.07 6.5 6.5 0 0 0 2.4-4.98v-.78c0-.78.64-1.42 1.42-1.42.78 0 1.42.64 1.42 1.42v.78a6.4 6.4 0 0 0 6.38 6.33 6.45 6.45 0 0 0 6.44-6.33 6.42 6.42 0 0 0-6.37-6.47z"/></defs><use fill="#fff" xlink:href="#a" transform="translate(-1016 -1357)"/><use fill="#fff" xlink:href="#b" transform="translate(-1016 -1357)"/></svg>