<svg xmlns="http://www.w3.org/2000/svg" xmlns:xlink="http://www.w3.org/1999/xlink" width="31.98" height="32" viewBox="0 0 31.98 32"><defs><path id="a" d="M652.52 1363.75l-7.12 6.1-2.25-2.25 6.1-7.12a2.33 2.33 0 1 1 3.27 3.27zm-4.52 16.7l-1.72-1.73-12-12-1.73-1.72.81-.8c.72-.73 1.9-.73 2.61 0l12.84 12.83c.72.72.72 1.89 0 2.6zm-10.67 5.33l-2.13-2.13 3.06-3.06a1.33 1.33 0 0 0-1.89-1.89l-3.06 3.06-2.13-2.13 1.72-1.73a1.33 1.33 0 0 0-1.88-1.88l-1.73 1.72-2.07-2.07 6.11-6.12 10.12 10.12zM651 1357a5 5 0 0 0-3.77 1.74l-5.97 6.97-3.4-3.4a4.52 4.52 0 0 0-6.39 0l-1.75 1.75a1.33 1.33 0 0 0 0 1.88l1.73 1.73-7.06 7.05a1.33 1.33 0 0 0 0 1.89l12 12a1.33 1.33 0 0 0 1.89 0l7.05-7.06 1.73 1.73a1.33 1.33 0 0 0 1.88 0l1.75-1.75a4.52 4.52 0 0 0 0-6.4l-3.4-3.39 6.97-5.97A5 5 0 0 0 651 1357z"/><mask id="c" width="2" height="2" x="-1" y="-1"><path fill="#fff" d="M624 1357h31.98v32H624z"/><use xlink:href="#a"/></mask><filter id="b" width="53.98" height="55" x="613" y="1347" filterUnits="userSpaceOnUse"><feOffset dy="1" in="SourceGraphic" result="FeOffset1066Out"/><feGaussianBlur in="FeOffset1066Out" result="FeGaussianBlur1067Out" stdDeviation="0.4 0.4"/></filter></defs><g transform="translate(-624 -1357)"><g filter="url(#b)"><use fill="none" stroke-opacity=".7" stroke-width="0" mask="url(&quot;#c&quot;)" xlink:href="#a"/><use fill-opacity=".7" xlink:href="#a"/></g><use fill="#fff" xlink:href="#a"/></g></svg>