<?xml version="1.0" encoding="UTF-8"?>
<svg width="206px" height="135px" viewBox="0 0 206 135" version="1.1" xmlns="http://www.w3.org/2000/svg" xmlns:xlink="http://www.w3.org/1999/xlink">
    <!-- Generator: Sketch 49.3 (51167) - http://www.bohemiancoding.com/sketch -->
    <title>illu_congrats</title>
    <desc>Created with Sketch.</desc>
    <defs>
        <ellipse id="path-1" cx="44" cy="122.5" rx="44" ry="4.5"></ellipse>
        <filter x="-9.7%" y="-72.2%" width="119.3%" height="288.9%" filterUnits="objectBoundingBox" id="filter-2">
            <feOffset dx="0" dy="2" in="SourceAlpha" result="shadowOffsetOuter1"></feOffset>
            <feGaussianBlur stdDeviation="2.5" in="shadowOffsetOuter1" result="shadowBlurOuter1"></feGaussianBlur>
            <feColorMatrix values="0 0 0 0 0   0 0 0 0 0.690196078   0 0 0 0 1  0 0 0 0.131595335 0" type="matrix" in="shadowBlurOuter1"></feColorMatrix>
        </filter>
    </defs>
    <g id="Design---Propositions-DA" stroke="none" stroke-width="1" fill="none" fill-rule="evenodd">
        <g id="07-Capdel_Website_Fiche_Evènement_réservation_Popin-1" transform="translate(-533.000000, -236.000000)">
            <g id="popin" transform="translate(369.000000, 182.000000)">
                <g id="illu_congrats" transform="translate(164.000000, 55.000000)">
                    <g id="Group" transform="translate(63.000000, 0.000000)">
                        <path d="M77.5610378,95.6680286 C77.5610378,96.6990436 76.7274256,97.538641 75.703277,97.538641 L14.2968541,97.538641 C13.2727056,97.538641 12.4392244,96.6990436 12.4392244,95.6680286 L12.4392244,18.5900852 C12.4392244,17.5590702 13.2727056,16.7200009 14.2968541,16.7200009 L27.6873662,16.7200009 L27.6873662,19.6882944 C27.6873662,21.8814126 29.4537274,23.6592204 31.6325017,23.6592204 L58.3676295,23.6592204 C60.5464038,23.6592204 62.3123715,21.8814126 62.3123715,19.6882944 L62.3123715,16.7200009 L75.703277,16.7200009 C76.7274256,16.7200009 77.5610378,17.5590702 77.5610378,18.5900852 L77.5610378,95.6680286 Z M31.1264595,9.84203503 C31.1264595,9.56150917 31.3538441,9.33312813 31.6325017,9.33312813 L38.9043494,9.33312813 C39.7736299,11.3574027 41.6079179,12.858117 43.8232783,13.2577178 C44.2055309,13.3266282 44.5978807,13.3688721 44.999541,13.3688721 C45.4023815,13.3688721 45.7936823,13.3266282 46.176984,13.2577178 C48.3916887,12.858117 50.226239,11.3574027 51.0956506,9.33312813 L58.3676295,9.33312813 C58.6458936,9.33312813 58.8731471,9.56150917 58.8731471,9.84203503 L58.8731471,19.6882944 C58.8731471,19.9686883 58.6458936,20.1975974 58.3676295,20.1975974 L31.6325017,20.1975974 C31.3538441,20.1975974 31.1264595,19.9686883 31.1264595,19.6882944 L31.1264595,9.84203503 Z M44.999541,3.46228308 C46.4848842,3.46228308 47.7336635,4.48801761 48.0936235,5.87150511 C48.1610258,6.13130505 48.2004968,6.40325011 48.2004968,6.68470005 C48.2004968,7.78132511 47.6527544,8.75161453 46.8173063,9.33312813 C46.3010358,9.6941814 45.6748758,9.90658898 44.999541,9.90658898 C44.3252553,9.90658898 43.6990954,9.6941814 43.1823003,9.33312813 C42.3477701,8.75161453 41.7996343,7.78132511 41.7996343,6.68470005 C41.7996343,6.40325011 41.8391053,6.13130505 41.9061143,5.87150511 C42.2660743,4.48801761 43.5152469,3.46228308 44.999541,3.46228308 Z M75.703277,13.2577178 L62.3123715,13.2577178 L62.3123715,9.84203503 C62.3123715,7.64865289 60.5464038,5.87150511 58.3676295,5.87150511 L51.5859568,5.87150511 C51.1866569,2.56433633 48.3931312,0 44.999541,0 C41.607,0 38.8136054,2.56433633 38.4141744,5.87150511 L31.6325017,5.87150511 C29.4537274,5.87150511 27.6873662,7.64865289 27.6873662,9.84203503 L27.6873662,13.2577178 L14.2968541,13.2577178 C11.3712775,13.2577178 9,15.6454219 9,18.5900852 L9,95.6680286 C9,98.61322 11.3712775,101 14.2968541,101 L75.703277,101 C78.6291159,101 81,98.61322 81,95.6680286 L81,18.5900852 C81,15.6454219 78.6291159,13.2577178 75.703277,13.2577178 Z" id="Fill-4" stroke="#FFFFFF" stroke-width="1.5" fill="#00B0FF"></path>
                        <g id="Oval-3" fill="black" fill-opacity="1">
                            <use filter="url(#filter-2)" xlink:href="#path-1"></use>
                        </g>
                        <path d="M70,36.5013118 C70,37.8813097 68.7480086,39 67.2040098,39 L22.7973602,39 C21.2523828,39 20,37.8813097 20,36.5013118 C20,35.1200896 21.2523828,34 22.7973602,34 L67.2040098,34 C68.7480086,34 70,35.1200896 70,36.5013118" id="Fill-5" stroke="#FFFFFF" stroke-width="3" fill="#00B0FF"></path>
                        <path d="M70,54.4999125 C70,55.8813097 68.7480086,57 67.2040098,57 L22.7973602,57 C21.2523828,57 20,55.8813097 20,54.4999125 C20,53.1200896 21.2523828,52 22.7973602,52 L67.2040098,52 C68.7480086,52 70,53.1200896 70,54.4999125" id="Fill-7" stroke="#FFFFFF" stroke-width="3" fill="#00B0FF"></path>
                        <path d="M70,69.5013118 C70,70.8811348 68.7480086,72 67.2040098,72 L22.7973602,72 C21.2523828,72 20,70.8811348 20,69.5013118 C20,68.1199146 21.2523828,67 22.7973602,67 L67.2040098,67 C68.7480086,67 70,68.1199146 70,69.5013118" id="Fill-9" stroke="#FFFFFF" stroke-width="3" fill="#00B0FF"></path>
                        <path d="M70,85.4993005 C70,86.8808058 68.7480086,88 67.2040098,88 L22.7973602,88 C21.2523828,88 20,86.8808058 20,85.4993005 C20,84.1198937 21.2523828,83 22.7973602,83 L67.2040098,83 C68.7480086,83 70,84.1198937 70,85.4993005" id="Fill-11" stroke="#FFFFFF" stroke-width="3" fill="#00B0FF"></path>
                    </g>
                    <g id="motifs" transform="translate(0.000000, 6.000000)">
                        <path d="M24.622,8.858 C23.923,9.378 23.201,9.755 22.53,9.975 C22.294,10.052 22.07,10.096 21.85,10.134 L29.354,15.216 L26.646,6.589 L26.622,6.648 C26.214,7.417 25.503,8.203 24.622,8.858" id="Fill-16" fill="#FFFFFF"></path>
                        <path d="M24.804,4.718 C24.641,4.75 24.472,4.795 24.302,4.851 C23.684,5.053 23.024,5.405 22.398,5.871 C21.601,6.464 20.964,7.165 20.604,7.842 C20.303,8.41 20.244,8.888 20.427,9.171 L20.802,9.424 C21.48,9.643 22.816,9.309 24.195,8.284 C24.993,7.691 25.631,6.99 25.99,6.312 C26.182,5.949 26.266,5.63 26.262,5.366 L26.125,4.928 C25.907,4.672 25.432,4.593 24.804,4.718" id="Fill-17" fill="#FFFFFF"></path>
                        <path d="M25.349,4.752 C25.19,4.752 25.013,4.771 24.821,4.808 C24.082,4.955 23.241,5.359 22.454,5.944 C21.667,6.53 21.039,7.22 20.686,7.886 C20.396,8.431 20.332,8.903 20.515,9.148 C20.697,9.393 21.167,9.467 21.773,9.347 C22.512,9.2 23.353,8.796 24.14,8.211 C24.927,7.625 25.555,6.935 25.908,6.269 C26.198,5.724 26.262,5.252 26.08,5.007 C25.955,4.839 25.695,4.752 25.349,4.752 Z M21.242,10.303 C20.598,10.304 20.096,10.092 19.793,9.685 C19.386,9.139 19.421,8.35 19.891,7.464 C20.305,6.683 21.024,5.886 21.917,5.223 C22.809,4.559 23.778,4.098 24.646,3.926 C25.63,3.73 26.395,3.924 26.801,4.47 C27.208,5.016 27.173,5.805 26.704,6.691 C26.289,7.472 25.57,8.269 24.677,8.932 C23.785,9.596 22.816,10.057 21.948,10.229 C21.698,10.279 21.462,10.303 21.242,10.303 Z" id="Fill-18" fill="#00B0FF"></path>
                        <path d="M30.002,16.537 C29.81,16.537 29.632,16.413 29.572,16.22 L26.153,5.141 C26.08,4.903 26.213,4.651 26.451,4.578 C26.689,4.505 26.94,4.638 27.014,4.876 L30.432,15.954 C30.505,16.192 30.372,16.444 30.135,16.517 L30.002,16.537" id="Fill-19" fill="#00B0FF"></path>
                        <path d="M30.001,16.537 L29.752,16.461 L20.073,9.969 C19.866,9.831 19.811,9.551 19.95,9.345 C20.088,9.139 20.368,9.083 20.574,9.222 L30.252,15.714 C30.459,15.852 30.514,16.132 30.375,16.337 C30.289,16.467 30.146,16.537 30.001,16.537" id="Fill-20" fill="#00B0FF"></path>
                        <polyline id="Fill-21" fill="#FFFFFF" points="198.331 42.955 195.396 46.508 193.293 42.191 196.23 38.638 198.331 42.955"></polyline>
                        <polyline id="Fill-22" fill="#FFFFFF" points="196.761 38.483 201.387 39.167 203.462 43.429 198.837 42.745 196.761 38.483"></polyline>
                        <polyline id="Fill-23" fill="#FFFFFF" points="203.415 43.974 200.502 47.498 195.854 46.81 198.767 43.286 203.415 43.974"></polyline>
                        <path d="M198.956,42.583 L203.156,43.205 L201.268,39.329 L197.067,38.707 L198.956,42.583 Z M203.935,44.225 L203.869,44.22 L198.59,43.439 C198.442,43.417 198.315,43.324 198.251,43.191 L195.885,38.335 C195.812,38.184 195.827,38.006 195.926,37.871 C196.024,37.737 196.189,37.669 196.355,37.692 L201.634,38.473 C201.781,38.495 201.908,38.587 201.973,38.721 L204.339,43.578 C204.412,43.728 204.396,43.906 204.298,44.041 C204.212,44.158 204.077,44.225 203.935,44.225 Z" id="Fill-24" fill="#00B0FF"></path>
                        <path d="M193.502,42.216 L195.435,46.184 L198.124,42.93 L196.19,38.963 L193.502,42.216 Z M195.336,47.46 L195.282,47.456 C195.131,47.438 194.998,47.344 194.932,47.207 L192.566,42.35 C192.489,42.191 192.512,42.002 192.624,41.866 L195.942,37.851 C196.04,37.732 196.185,37.672 196.343,37.691 C196.494,37.709 196.627,37.803 196.693,37.94 L199.06,42.797 C199.137,42.955 199.114,43.145 199.002,43.28 L195.683,47.296 C195.597,47.4 195.469,47.46 195.336,47.46 Z" id="Fill-25" fill="#00B0FF"></path>
                        <path d="M196.191,46.681 L200.43,47.308 L203.079,44.103 L198.841,43.476 L196.191,46.681 Z M200.615,48.241 L200.55,48.236 L195.271,47.455 C195.109,47.431 194.974,47.322 194.916,47.17 C194.857,47.019 194.886,46.848 194.989,46.723 L198.309,42.707 C198.408,42.586 198.564,42.526 198.721,42.549 L204,43.33 C204.161,43.354 204.297,43.462 204.355,43.614 C204.413,43.765 204.385,43.937 204.281,44.062 L200.962,48.077 C200.876,48.182 200.748,48.241 200.615,48.241 Z" id="Fill-26" fill="#00B0FF"></path>
                        <path d="M189.679,12.885 C189.521,13.271 189.409,13.675 189.351,14.091 C189.214,15.072 189.51,16.109 190.125,16.797 C190.403,17.108 190.839,17.467 191.492,17.461 C192.293,17.44 193.026,16.959 193.318,16.264 C193.642,15.494 193.4,14.62 192.639,13.803 C191.96,13.075 190.912,12.773 189.679,12.885 Z M183.154,17.239 C182.984,17.63 182.858,18.042 182.776,18.475 C182.59,19.459 182.866,20.561 183.48,21.283 C183.743,21.593 184.174,21.947 184.772,21.946 C185.563,21.925 186.289,21.45 186.577,20.763 C186.896,20.001 186.657,19.137 185.904,18.328 C185.2,17.573 184.268,17.208 183.154,17.239 Z M176.824,23.447 C176.616,23.447 176.43,23.303 176.385,23.092 C175.951,21.087 177.303,18.748 179.673,17.403 C180.659,16.844 181.644,16.508 182.571,16.394 C183.307,15.042 184.54,13.916 186.26,13.032 C187.242,12.527 188.191,12.199 189.076,12.048 C189.714,10.822 190.773,9.798 192.12,9.153 C194.478,8.014 196.876,8.199 198.379,9.635 C198.558,9.807 198.564,10.092 198.393,10.272 C198.22,10.451 197.937,10.457 197.756,10.286 C196.514,9.097 194.554,8.977 192.51,9.964 C191.537,10.43 190.737,11.121 190.181,11.948 L190.187,11.948 C191.45,11.948 192.526,12.363 193.297,13.189 C194.3,14.265 194.61,15.512 194.148,16.612 C193.716,17.644 192.682,18.331 191.516,18.36 C190.769,18.391 190.026,18.038 189.453,17.397 C188.668,16.517 188.287,15.202 188.46,13.966 C188.503,13.659 188.57,13.357 188.66,13.064 C188.025,13.224 187.356,13.481 186.672,13.833 C185.306,14.535 184.299,15.371 183.636,16.361 C184.78,16.438 185.795,16.891 186.563,17.715 C187.558,18.782 187.865,20.02 187.407,21.111 C186.978,22.134 185.953,22.816 184.796,22.845 C184.056,22.864 183.348,22.517 182.794,21.866 C182.011,20.945 181.657,19.548 181.892,18.308 C181.953,17.986 182.035,17.675 182.14,17.373 C181.491,17.522 180.811,17.793 180.116,18.187 C178.086,19.339 176.913,21.277 177.264,22.902 C177.316,23.145 177.162,23.384 176.919,23.437 L176.824,23.447 Z" id="Fill-27" fill="#00B0FF"></path>
                        <path d="M12.625,19.354 L12.483,19.33 L5.349,16.948 C5.113,16.869 4.986,16.614 5.065,16.378 C5.144,16.142 5.397,16.015 5.634,16.094 L12.768,18.477 C13.004,18.555 13.131,18.81 13.052,19.046 C12.989,19.234 12.814,19.354 12.625,19.354" id="Fill-28" fill="#00B0FF"></path>
                        <path d="M37.426,70.427 L37.262,70.433 C36.664,70.476 36.118,70.748 35.726,71.201 C35.333,71.654 35.14,72.233 35.183,72.83 C35.271,74.065 36.34,74.998 37.582,74.909 C38.816,74.821 39.748,73.745 39.66,72.511 C39.617,71.912 39.344,71.367 38.892,70.975 C38.48,70.618 37.965,70.427 37.426,70.427 Z M37.421,75.816 C35.788,75.816 34.404,74.548 34.286,72.895 C34.226,72.058 34.495,71.246 35.045,70.611 C35.596,69.978 36.36,69.595 37.197,69.534 C38.033,69.478 38.846,69.744 39.481,70.294 C40.115,70.845 40.498,71.609 40.558,72.446 C40.681,74.176 39.375,75.684 37.646,75.808 L37.421,75.816 Z" id="Fill-29" fill="#00B0FF"></path>
                        <path d="M35.275,51.498 C35.183,50.827 34.564,50.357 33.893,50.45 C33.221,50.542 32.752,51.161 32.844,51.832 C32.937,52.503 33.556,52.973 34.227,52.881 C34.898,52.788 35.368,52.169 35.275,51.498" id="Fill-30" fill="#00B0FF"></path>
                        <path d="M175.116,1.954 C175.096,2.632 175.628,3.197 176.306,3.218 C176.982,3.238 177.549,2.706 177.569,2.028 C177.59,1.351 177.058,0.785 176.38,0.765 C175.702,0.744 175.137,1.277 175.116,1.954" id="Fill-31" fill="#00B0FF"></path>
                        <path d="M24.826,84.311 C24.78,84.986 25.292,85.571 25.968,85.616 C26.645,85.662 27.229,85.151 27.274,84.474 C27.319,83.798 26.808,83.213 26.132,83.168 C25.456,83.123 24.871,83.635 24.826,84.311" id="Fill-32" fill="#00B0FF"></path>
                        <path d="M186.516,66.797 L186.449,66.792 L182.713,66.245 C182.467,66.209 182.297,65.981 182.333,65.734 C182.369,65.487 182.597,65.32 182.844,65.355 L186.58,65.901 C186.826,65.938 186.996,66.166 186.96,66.412 C186.927,66.636 186.735,66.797 186.516,66.797" id="Fill-33" fill="#00B0FF"></path>
                        <path d="M185.236,82.473 L185.078,82.443 L178.038,79.796 C177.806,79.709 177.688,79.449 177.775,79.217 C177.862,78.984 178.124,78.867 178.355,78.954 L185.395,81.602 C185.627,81.689 185.745,81.948 185.657,82.181 C185.59,82.361 185.418,82.473 185.236,82.473" id="Fill-34" fill="#00B0FF"></path>
                        <path d="M205.295,77.834 L205.174,77.818 L176.54,69.832 C176.301,69.765 176.161,69.517 176.228,69.277 C176.294,69.038 176.539,68.901 176.782,68.965 L205.416,76.95 C205.655,77.018 205.795,77.266 205.729,77.505 C205.673,77.704 205.492,77.834 205.295,77.834" id="Fill-35" fill="#00B0FF"></path>
                        <path d="M1.344,73.905 C1.114,73.905 0.918,73.73 0.896,73.496 C0.874,73.249 1.056,73.029 1.304,73.007 L24.239,70.896 C24.483,70.877 24.706,71.056 24.729,71.303 C24.751,71.55 24.569,71.77 24.321,71.792 L1.386,73.903 L1.344,73.905" id="Fill-36" fill="#00B0FF"></path>
                        <path d="M14.624,80.934 C14.419,80.934 14.233,80.792 14.186,80.583 C14.131,80.341 14.283,80.1 14.525,80.045 L22.77,78.172 C23.011,78.117 23.253,78.269 23.308,78.511 C23.363,78.753 23.211,78.994 22.969,79.049 L14.725,80.922 L14.624,80.934" id="Fill-37" fill="#00B0FF"></path>
                        <path d="M49.571,9.893 C48.709,9.928 48.036,10.659 48.071,11.521 C48.106,12.382 48.842,13.049 49.698,13.02 C50.116,13.003 50.502,12.824 50.786,12.517 C51.069,12.21 51.215,11.81 51.198,11.393 C51.163,10.53 50.416,9.842 49.571,9.893 Z M49.633,13.921 C48.32,13.921 47.226,12.882 47.171,11.558 C47.116,10.2 48.176,9.049 49.534,8.993 C50.906,8.935 52.041,9.998 52.098,11.356 C52.124,12.014 51.894,12.643 51.447,13.127 C51.001,13.611 50.393,13.893 49.735,13.92 L49.633,13.921 Z" id="Fill-38" fill="#00B0FF"></path>
                        <path d="M24.489,47.833 C24.328,47.833 24.172,47.746 24.091,47.593 L17.958,36.007 L17.935,35.964 C17.829,35.743 17.919,35.478 18.138,35.367 C18.356,35.256 18.624,35.342 18.739,35.559 L18.76,35.599 C18.873,35.796 19.667,37.023 22.187,37.373 C25.32,37.808 26.397,39.462 27.038,41.023 C27.132,41.253 27.022,41.516 26.792,41.61 C26.562,41.704 26.3,41.594 26.205,41.365 C25.545,39.757 24.588,38.615 22.062,38.264 C21.135,38.135 20.402,37.895 19.828,37.616 L24.887,47.173 C25.003,47.392 24.919,47.664 24.699,47.781 L24.489,47.833" id="Fill-39" fill="#00B0FF"></path>
                        <path d="M22.821,46.928 C22.495,46.928 22.151,47.015 21.831,47.196 C21.411,47.436 21.098,47.799 20.949,48.22 C20.809,48.619 20.835,49.021 21.024,49.353 C21.213,49.685 21.545,49.914 21.96,49.997 C22.398,50.086 22.871,50.002 23.29,49.762 C23.711,49.523 24.024,49.159 24.173,48.738 C24.313,48.34 24.287,47.938 24.098,47.606 C23.847,47.165 23.358,46.928 22.821,46.928 Z M22.305,50.931 C22.13,50.931 21.955,50.914 21.783,50.88 C21.109,50.744 20.562,50.36 20.242,49.799 C19.922,49.236 19.872,48.57 20.1,47.922 C20.321,47.296 20.777,46.76 21.386,46.414 C22.666,45.687 24.233,46.023 24.88,47.16 C25.2,47.722 25.25,48.389 25.022,49.037 C24.801,49.662 24.345,50.198 23.736,50.544 C23.288,50.799 22.794,50.931 22.305,50.931 Z" id="Fill-40" fill="#00B0FF"></path>
                        <path d="M173.206,101.602 L173.073,101.606 C172.591,101.636 172.149,101.825 171.831,102.139 C171.53,102.435 171.378,102.809 171.402,103.19 C171.426,103.571 171.624,103.922 171.96,104.179 C172.314,104.449 172.772,104.585 173.259,104.551 C173.742,104.521 174.184,104.332 174.501,104.019 C174.802,103.723 174.955,103.349 174.931,102.968 C174.882,102.193 174.12,101.602 173.206,101.602 Z M173.123,105.455 C172.493,105.455 171.892,105.259 171.413,104.894 C170.867,104.477 170.545,103.892 170.504,103.246 C170.463,102.601 170.71,101.98 171.2,101.497 C171.672,101.032 172.317,100.751 173.017,100.707 C174.489,100.626 175.747,101.604 175.829,102.911 C175.869,103.557 175.622,104.178 175.133,104.66 C174.66,105.125 174.015,105.405 173.315,105.449 L173.123,105.455 Z" id="Fill-41" fill="#00B0FF"></path>
                        <path d="M175.38,103.39 C175.138,103.39 174.938,103.197 174.93,102.954 L174.584,92.306 C174.579,92.154 174.651,92.01 174.775,91.923 C174.901,91.836 175.063,91.818 175.201,91.873 L182.193,94.666 C182.424,94.758 182.536,95.021 182.444,95.251 C182.353,95.482 182.09,95.593 181.859,95.502 L175.506,92.964 L175.83,102.925 C175.838,103.173 175.643,103.381 175.395,103.39 L175.38,103.39" id="Fill-42" fill="#00B0FF"></path>
                        <path d="M180.201,104.395 L180.066,104.399 C179.543,104.431 179.062,104.655 178.746,105.014 C178.498,105.295 178.374,105.639 178.396,105.982 C178.446,106.793 179.292,107.4 180.252,107.344 C181.225,107.282 181.975,106.571 181.924,105.76 C181.875,104.985 181.114,104.395 180.201,104.395 Z M180.12,108.248 C178.733,108.248 177.576,107.289 177.497,106.038 C177.46,105.455 177.664,104.88 178.07,104.419 C178.544,103.882 179.25,103.548 180.01,103.5 C181.504,103.404 182.739,104.396 182.822,105.703 C182.904,107.011 181.776,108.15 180.309,108.242 L180.12,108.248 Z" id="Fill-43" fill="#00B0FF"></path>
                        <path d="M182.373,106.182 C182.131,106.182 181.932,105.989 181.923,105.746 L181.576,95.099 C181.568,94.851 181.764,94.643 182.012,94.634 C182.264,94.636 182.468,94.821 182.477,95.069 L182.823,105.717 C182.831,105.965 182.636,106.173 182.388,106.182 L182.373,106.182" id="Fill-44" fill="#00B0FF"></path>
                        <path d="M182.015,97.829 L181.848,97.797 L175.008,95.067 C174.777,94.975 174.665,94.713 174.757,94.482 C174.85,94.251 175.112,94.141 175.342,94.231 L182.182,96.961 C182.412,97.053 182.524,97.315 182.433,97.546 C182.362,97.722 182.193,97.829 182.015,97.829" id="Fill-45" fill="#00B0FF"></path>
                        <path d="M26.025,105.653 L35.284,99.325 C35.97,98.83 35.956,97.614 35.253,96.609 C34.549,95.603 33.423,95.189 32.736,95.684 L23.478,102.012 C24.164,101.517 25.291,101.931 25.994,102.937 C26.697,103.942 26.711,105.158 26.025,105.653" id="Fill-46" fill="#FFFFFF"></path>
                        <path d="M25.994,102.937 C25.291,101.931 24.164,101.517 23.478,102.012 C22.791,102.507 22.806,103.724 23.509,104.729 C24.212,105.734 25.338,106.149 26.025,105.653 C26.711,105.158 26.697,103.942 25.994,102.937" id="Fill-47" fill="#FFFFFF"></path>
                        <path d="M24.157,102.253 C24.023,102.253 23.873,102.281 23.741,102.377 C23.263,102.722 23.325,103.682 23.877,104.472 C24.228,104.974 24.712,105.319 25.171,105.398 C25.334,105.425 25.568,105.428 25.762,105.288 C26.24,104.943 26.178,103.984 25.625,103.194 C25.274,102.692 24.79,102.346 24.332,102.268 L24.157,102.253 Z M25.35,106.313 C25.242,106.313 25.132,106.304 25.02,106.284 C24.33,106.167 23.626,105.683 23.14,104.987 C22.284,103.763 22.316,102.295 23.214,101.647 C23.567,101.392 24.006,101.297 24.482,101.381 C25.173,101.498 25.876,101.984 26.362,102.679 C27.22,103.904 27.187,105.371 26.288,106.019 C26.018,106.213 25.698,106.313 25.35,106.313 Z" id="Fill-48" fill="#00B0FF"></path>
                        <path d="M35.284,99.776 C35.144,99.776 35.006,99.71 34.919,99.588 C34.773,99.387 34.819,99.106 35.021,98.96 C35.499,98.615 35.437,97.656 34.884,96.866 C34.532,96.364 34.049,96.018 33.59,95.94 C33.427,95.911 33.193,95.908 33,96.049 C32.799,96.195 32.518,96.148 32.372,95.947 C32.227,95.745 32.272,95.464 32.474,95.318 C32.826,95.065 33.262,94.969 33.741,95.053 C34.432,95.17 35.135,95.655 35.621,96.351 C36.479,97.576 36.446,99.043 35.547,99.691 C35.467,99.748 35.375,99.776 35.284,99.776" id="Fill-49" fill="#00B0FF"></path>
                        <path d="M23.478,102.462 C23.335,102.462 23.193,102.394 23.106,102.266 C22.966,102.061 23.019,101.78 23.224,101.641 L32.482,95.313 C32.687,95.17 32.967,95.223 33.108,95.43 C33.248,95.635 33.195,95.915 32.99,96.055 L23.731,102.383 L23.478,102.462" id="Fill-50" fill="#00B0FF"></path>
                        <path d="M26.025,106.104 C25.882,106.104 25.741,106.035 25.653,105.907 C25.513,105.702 25.566,105.422 25.771,105.282 L35.03,98.954 C35.234,98.812 35.515,98.865 35.655,99.071 C35.795,99.276 35.743,99.557 35.538,99.696 L26.279,106.025 L26.025,106.104" id="Fill-51" fill="#00B0FF"></path>
                    </g>
                </g>
            </g>
        </g>
    </g>
</svg>