<?xml version="1.0" encoding="UTF-8"?>
<svg width="98px" height="100px" viewBox="0 0 98 100" version="1.1" xmlns="http://www.w3.org/2000/svg" xmlns:xlink="http://www.w3.org/1999/xlink">
    <!-- Generator: Sketch 52.4 (67378) - http://www.bohemiancoding.com/sketch -->
    <title>illu_wait</title>
    <desc>Created with Sketch.</desc>
    <defs>
        <ellipse id="path-1" cx="44" cy="88.5" rx="44" ry="4.5"></ellipse>
        <filter x="-9.4%" y="-72.2%" width="118.8%" height="288.9%" filterUnits="objectBoundingBox" id="filter-2">
            <feOffset dx="0" dy="2" in="SourceAlpha" result="shadowOffsetOuter1"></feOffset>
            <feGaussianBlur stdDeviation="2.5" in="shadowOffsetOuter1" result="shadowBlurOuter1"></feGaussianBlur>
            <feColorMatrix values="0 0 0 0 0   0 0 0 0 0.690196078   0 0 0 0 1  0 0 0 0.131595335 0" type="matrix" in="shadowBlurOuter1"></feColorMatrix>
        </filter>
    </defs>
    <g id="Web-designs" stroke="none" stroke-width="1" fill="none" fill-rule="evenodd">
        <g id="Popin-enattente" transform="translate(-592.000000, -301.000000)">
            <g id="popin" transform="translate(370.000000, 206.000000)">
                <g id="illu_wait" transform="translate(227.000000, 95.000000)">
                    <g id="Oval-3" fill="black" fill-opacity="1">
                        <use filter="url(#filter-2)" xlink:href="#path-1"></use>
                    </g>
                    <path d="M53.8843969,63.2887744 C54.4177819,63.7289791 54.733484,64.3807525 54.733484,65.0830368 C54.733484,66.3731074 53.677685,67.4167304 52.3794841,67.4167304 L35.0272956,67.4167304 L35.0272956,67.3358437 C34.6198581,67.2308832 34.2428639,67.0177314 33.9388179,66.7087534 C33.0320851,65.7868415 33.0524797,64.3087936 33.9856793,63.4110227 L42.3643894,55.3895018 C43.2735628,54.5144114 44.7220754,54.5130947 45.6340743,55.3887391 L53.8843969,63.2887744 Z M46.347461,35.6711732 C46.35157,35.7278284 46.3536286,35.784866 46.3536286,35.8422045 L46.3536286,49.5083333 C46.3536286,50.798404 45.2985722,51.8412928 44.0003713,51.8412928 C42.7021051,51.8412928 41.6463714,50.7983424 41.6463714,49.5083333 L41.6463714,35.8422045 C41.6463714,35.7850599 41.6484904,35.7280732 41.652683,35.6713097 L26.5746608,21.2367487 C25.6425372,20.3400105 25.6221492,18.8621365 26.5293833,17.9387298 C26.8332272,17.6306058 27.2098962,17.4175726 27.6165745,17.312485 L27.6165745,17.2320391 L59.7902051,17.2320391 C61.0883409,17.2320391 62.1434625,18.2756004 62.1434625,19.5657327 C62.1434625,20.2595851 61.8346601,20.9052079 61.3123579,21.3450043 L46.347461,35.6711732 Z M11.3343759,77.8764537 L11.3343759,73.6230804 L76.6663667,73.6230804 L76.6663667,77.8764537 L11.3343759,77.8764537 Z M11.3343759,6.54714524 L11.3343759,2.29377185 L76.6663667,2.29377185 L76.6663667,6.54714524 L11.3343759,6.54714524 Z M18.1922944,57.5598064 L18.1922944,71.3293085 L11.4374594,71.3293085 C10.7881437,71.3293085 10.1739299,71.5878838 9.71514163,72.0401603 L9.61586715,72.1380257 C9.22213699,72.5742747 9,73.1360065 9,73.7318164 L9,77.7677177 C9,78.3629161 9.22217939,78.924575 9.615865,79.3607722 L9.71514163,79.4586397 C10.1739299,79.9109162 10.7881437,80.1694915 11.4374594,80.1694915 L76.5632833,80.1694915 C77.2125534,80.1694915 77.8264716,79.9111301 78.2845736,79.4589206 L78.3852228,79.3595661 C78.7782299,78.9235399 79,78.3623676 79,77.7677177 L79,73.7318164 C79,73.1365554 78.7782721,72.5753097 78.3852206,72.1392318 L78.2845736,72.0398794 C77.8264716,71.58767 77.2125534,71.3293085 76.5632833,71.3293085 L69.8077056,71.3293085 L69.8077056,57.5598064 L53.7475539,42.0034546 L53.7475539,38.1777903 L69.8077056,22.6207044 L69.8077056,8.84091709 L76.5632833,8.84091709 C77.2120683,8.84091709 77.8260857,8.58220258 78.2845736,8.12961212 L78.3910327,8.02452244 C78.7804572,7.58937032 79,7.03072981 79,6.43840924 L79,2.40250785 C79,1.81018728 78.7804572,1.25154676 78.3910327,0.816394653 L78.2845736,0.711304972 C77.8260857,0.258714511 77.2120683,0 76.5632833,0 L11.4374594,0 C10.788014,0 10.1739703,0.25865931 9.71542638,0.711304972 L9.60896732,0.816394653 C9.21954277,1.25154676 9,1.81018728 9,2.40250785 L9,6.43840924 C9,7.03072981 9.21954277,7.58937032 9.60896732,8.02452244 L9.71542638,8.12961212 C10.1739703,8.58225778 10.788014,8.84091709 11.4374594,8.84091709 L18.1922944,8.84091709 L18.1922944,22.6207044 L34.2524461,38.1777903 L34.2524461,42.0034546 L18.1922944,57.5598064 Z M20.5266703,21.6756661 L20.5266703,8.84091709 L67.4740723,8.84091709 L67.4740723,21.6756687 L67.2935824,21.8504941 L51.7627258,36.8939278 L51.413178,37.2321857 L51.413178,42.9483169 L51.7629374,43.2867796 L67.4740723,58.5055764 L67.4740723,71.3293085 L20.5266703,71.3293085 L20.5266703,58.5055788 L36.586822,42.9484929 L36.586822,37.2320179 L20.5266703,21.6756661 Z" id="Fill-7" fill="#00B0FF" fill-rule="nonzero"></path>
                </g>
            </g>
        </g>
    </g>
</svg>