<?xml version="1.0" encoding="UTF-8"?>
<svg width="206px" height="118px" viewBox="0 0 206 118" version="1.1" xmlns="http://www.w3.org/2000/svg" xmlns:xlink="http://www.w3.org/1999/xlink">
    <!-- Generator: Sketch 49.3 (51167) - http://www.bohemiancoding.com/sketch -->
    <title>illu_compte</title>
    <desc>Created with Sketch.</desc>
    <defs>
        <polygon id="path-1" points="0.06 0.921 255.118 0.921 255.118 171 0.06 171"></polygon>
        <path d="M0.559,18.379 C54.304,18.379 97.873,14.322 97.873,9.317 C97.873,4.324 54.501,0.274 0.928,0.255 L0.19,0.255 C0.315,0.255 0.434,0.255 0.559,0.255 C54.305,0.255 97.873,4.313 97.873,9.317 C97.873,14.322 54.305,18.379 0.559,18.379" id="path-3"></path>
        <ellipse id="path-5" cx="126" cy="139.5" rx="44" ry="4.5"></ellipse>
        <filter x="-9.7%" y="-72.2%" width="119.3%" height="288.9%" filterUnits="objectBoundingBox" id="filter-6">
            <feOffset dx="0" dy="2" in="SourceAlpha" result="shadowOffsetOuter1"></feOffset>
            <feGaussianBlur stdDeviation="2.5" in="shadowOffsetOuter1" result="shadowBlurOuter1"></feGaussianBlur>
            <feColorMatrix values="0 0 0 0 0   0 0 0 0 0.690196078   0 0 0 0 1  0 0 0 0.131595335 0" type="matrix" in="shadowBlurOuter1"></feColorMatrix>
        </filter>
    </defs>
    <g id="Design---Propositions-DA" stroke="none" stroke-width="1" fill="none" fill-rule="evenodd">
        <g id="14-01-Capdel_Website_SignIn_full_popin_activation" transform="translate(-536.000000, -264.000000)">
            <g id="popin" transform="translate(371.000000, 203.000000)">
                <g id="illu_compte" transform="translate(142.000000, 28.000000)">
                    <g id="Group-3">
                        <mask id="mask-2" fill="white">
                            <use xlink:href="#path-1"></use>
                        </mask>
                        <g id="Clip-2"></g>
                    </g>
                    <g id="Group-6" transform="translate(127.000000, 127.000000)">
                        <mask id="mask-4" fill="white">
                            <use xlink:href="#path-3"></use>
                        </mask>
                        <g id="Clip-5"></g>
                        <path d="M0.559,18.379 C54.304,18.379 97.873,14.322 97.873,9.317 C97.873,4.324 54.501,0.274 0.928,0.255 L0.19,0.255 C0.315,0.255 0.434,0.255 0.559,0.255 C54.305,0.255 97.873,4.313 97.873,9.317 C97.873,14.322 54.305,18.379 0.559,18.379" id="Fill-4" mask="url(#mask-4)"></path>
                    </g>
                    <g id="Oval-3" fill="black" fill-opacity="1">
                        <use filter="url(#filter-6)" xlink:href="#path-5"></use>
                    </g>
                    <path d="M84.231,115.375 L170.887,115.375 C171.818,115.375 172.573,114.62 172.573,113.689 L172.573,58.232 C172.573,57.3 171.818,56.545 170.887,56.545 L84.231,56.545 C83.3,56.545 82.545,57.3 82.545,58.232 L82.545,113.689 C82.545,114.62 83.3,115.375 84.231,115.375" id="Fill-8" fill="#FFFFFF"></path>
                    <path d="M84.231,57.695 C83.936,57.695 83.695,57.936 83.695,58.232 L83.695,113.69 C83.695,113.985 83.936,114.226 84.231,114.226 L170.887,114.226 C171.183,114.226 171.423,113.985 171.423,113.69 L171.423,58.232 C171.423,57.936 171.183,57.695 170.887,57.695 L84.231,57.695 Z M170.887,116.526 L84.231,116.526 C82.667,116.526 81.395,115.254 81.395,113.69 L81.395,58.232 C81.395,56.668 82.667,55.396 84.231,55.396 L170.887,55.396 C172.451,55.396 173.724,56.668 173.724,58.232 L173.724,113.69 C173.724,115.254 172.451,116.526 170.887,116.526 Z" id="Fill-9" fill="#00B0FF"></path>
                    <path d="M127.559,95.158 C126.571,95.158 125.583,94.814 124.777,94.126 L81.798,57.42 L83.292,55.671 L126.271,92.377 C127.017,93.014 128.101,93.015 128.847,92.376 L171.826,55.671 L173.32,57.42 L130.342,94.125 C129.535,94.814 128.547,95.158 127.559,95.158" id="Fill-10" fill="#00B0FF"></path>
                    <polyline id="Fill-11" fill="#00B0FF" points="83.291 116.25 81.797 114.502 116.033 85.263 117.527 87.012 83.291 116.25"></polyline>
                    <polyline id="Fill-12" fill="#00B0FF" points="171.826 116.25 137.423 86.869 138.917 85.12 173.32 114.502 171.826 116.25"></polyline>
                    <path d="M156.353,56.745 C156.353,65.241 163.24,72.129 171.737,72.129 C180.233,72.129 187.121,65.241 187.121,56.745 C187.121,48.248 180.233,41.36 171.737,41.36 C163.24,41.36 156.353,48.248 156.353,56.745" id="Fill-13" fill="#FF6666"></path>
                    <polyline id="Fill-14" fill="#FFFFFF" points="171.717 63.797 171.717 52.6 168.658 54.463 167.874 53.189 171.933 50.678 173.521 50.678 173.521 63.797 171.717 63.797"></polyline>
                    <path d="M171.923,63.591 L173.315,63.591 L173.315,50.884 L171.991,50.884 L168.157,53.256 L168.727,54.18 L171.923,52.233 L171.923,63.591 Z M173.728,64.003 L171.511,64.003 L171.511,52.967 L168.59,54.746 L167.591,53.121 L171.874,50.472 L173.728,50.472 L173.728,64.003 Z" id="Fill-15" fill="#FFFFFF"></path>
                    <path d="M47.622,41.858 C46.923,42.378 46.201,42.755 45.53,42.975 C45.294,43.052 45.07,43.096 44.85,43.134 L52.354,48.216 L49.646,39.589 L49.622,39.648 C49.214,40.417 48.503,41.203 47.622,41.858" id="Fill-16" fill="#FFFFFF"></path>
                    <path d="M47.804,37.718 C47.641,37.75 47.472,37.795 47.302,37.851 C46.684,38.053 46.024,38.405 45.398,38.871 C44.601,39.464 43.964,40.165 43.604,40.842 C43.303,41.41 43.244,41.888 43.427,42.171 L43.802,42.424 C44.48,42.643 45.816,42.309 47.195,41.284 C47.993,40.691 48.631,39.99 48.99,39.312 C49.182,38.949 49.266,38.63 49.262,38.366 L49.125,37.928 C48.907,37.672 48.432,37.593 47.804,37.718" id="Fill-17" fill="#FFFFFF"></path>
                    <path d="M48.349,37.752 C48.19,37.752 48.013,37.771 47.821,37.808 C47.082,37.955 46.241,38.359 45.454,38.944 C44.667,39.53 44.039,40.22 43.686,40.886 C43.396,41.431 43.332,41.903 43.515,42.148 C43.697,42.393 44.167,42.467 44.773,42.347 C45.512,42.2 46.353,41.796 47.14,41.211 C47.927,40.625 48.555,39.935 48.908,39.269 C49.198,38.724 49.262,38.252 49.08,38.007 C48.955,37.839 48.695,37.752 48.349,37.752 Z M44.242,43.303 C43.598,43.304 43.096,43.092 42.793,42.685 C42.386,42.139 42.421,41.35 42.891,40.464 C43.305,39.683 44.024,38.886 44.917,38.223 C45.809,37.559 46.778,37.098 47.646,36.926 C48.63,36.73 49.395,36.924 49.801,37.47 C50.208,38.016 50.173,38.805 49.704,39.691 C49.289,40.472 48.57,41.269 47.677,41.932 C46.785,42.596 45.816,43.057 44.948,43.229 C44.698,43.279 44.462,43.303 44.242,43.303 Z" id="Fill-18" fill="#00B0FF"></path>
                    <path d="M53.002,49.537 C52.81,49.537 52.632,49.413 52.572,49.22 L49.153,38.141 C49.08,37.903 49.213,37.651 49.451,37.578 C49.689,37.505 49.94,37.638 50.014,37.876 L53.432,48.954 C53.505,49.192 53.372,49.444 53.135,49.517 L53.002,49.537" id="Fill-19" fill="#00B0FF"></path>
                    <path d="M53.001,49.537 L52.752,49.461 L43.073,42.969 C42.866,42.831 42.811,42.551 42.95,42.345 C43.088,42.139 43.368,42.083 43.574,42.222 L53.252,48.714 C53.459,48.852 53.514,49.132 53.375,49.337 C53.289,49.467 53.146,49.537 53.001,49.537" id="Fill-20" fill="#00B0FF"></path>
                    <polyline id="Fill-21" fill="#FFFFFF" points="221.331 75.955 218.396 79.508 216.293 75.191 219.23 71.638 221.331 75.955"></polyline>
                    <polyline id="Fill-22" fill="#FFFFFF" points="219.761 71.483 224.387 72.167 226.462 76.429 221.837 75.745 219.761 71.483"></polyline>
                    <polyline id="Fill-23" fill="#FFFFFF" points="226.415 76.974 223.502 80.498 218.854 79.81 221.767 76.286 226.415 76.974"></polyline>
                    <path d="M221.956,75.583 L226.156,76.205 L224.268,72.329 L220.067,71.707 L221.956,75.583 Z M226.935,77.225 L226.869,77.22 L221.59,76.439 C221.442,76.417 221.315,76.324 221.251,76.191 L218.885,71.335 C218.812,71.184 218.827,71.006 218.926,70.871 C219.024,70.737 219.189,70.669 219.355,70.692 L224.634,71.473 C224.781,71.495 224.908,71.587 224.973,71.721 L227.339,76.578 C227.412,76.728 227.396,76.906 227.298,77.041 C227.212,77.158 227.077,77.225 226.935,77.225 Z" id="Fill-24" fill="#00B0FF"></path>
                    <path d="M216.502,75.216 L218.435,79.184 L221.124,75.93 L219.19,71.963 L216.502,75.216 Z M218.336,80.46 L218.282,80.456 C218.131,80.438 217.998,80.344 217.932,80.207 L215.566,75.35 C215.489,75.191 215.512,75.002 215.624,74.866 L218.942,70.851 C219.04,70.732 219.185,70.672 219.343,70.691 C219.494,70.709 219.627,70.803 219.693,70.94 L222.06,75.797 C222.137,75.955 222.114,76.145 222.002,76.28 L218.683,80.296 C218.597,80.4 218.469,80.46 218.336,80.46 Z" id="Fill-25" fill="#00B0FF"></path>
                    <path d="M219.191,79.681 L223.43,80.308 L226.079,77.103 L221.841,76.476 L219.191,79.681 Z M223.615,81.241 L223.55,81.236 L218.271,80.455 C218.109,80.431 217.974,80.322 217.916,80.17 C217.857,80.019 217.886,79.848 217.989,79.723 L221.309,75.707 C221.408,75.586 221.564,75.526 221.721,75.549 L227,76.33 C227.161,76.354 227.297,76.462 227.355,76.614 C227.413,76.765 227.385,76.937 227.281,77.062 L223.962,81.077 C223.876,81.182 223.748,81.241 223.615,81.241 Z" id="Fill-26" fill="#00B0FF"></path>
                    <path d="M212.679,45.885 C212.521,46.271 212.409,46.675 212.351,47.091 C212.214,48.072 212.51,49.109 213.125,49.797 C213.403,50.108 213.839,50.467 214.492,50.461 C215.293,50.44 216.026,49.959 216.318,49.264 C216.642,48.494 216.4,47.62 215.639,46.803 C214.96,46.075 213.912,45.773 212.679,45.885 Z M206.154,50.239 C205.984,50.63 205.858,51.042 205.776,51.475 C205.59,52.459 205.866,53.561 206.48,54.283 C206.743,54.593 207.174,54.947 207.772,54.946 C208.563,54.925 209.289,54.45 209.577,53.763 C209.896,53.001 209.657,52.137 208.904,51.328 C208.2,50.573 207.268,50.208 206.154,50.239 Z M199.824,56.447 C199.616,56.447 199.43,56.303 199.385,56.092 C198.951,54.087 200.303,51.748 202.673,50.403 C203.659,49.844 204.644,49.508 205.571,49.394 C206.307,48.042 207.54,46.916 209.26,46.032 C210.242,45.527 211.191,45.199 212.076,45.048 C212.714,43.822 213.773,42.798 215.12,42.153 C217.478,41.014 219.876,41.199 221.379,42.635 C221.558,42.807 221.564,43.092 221.393,43.272 C221.22,43.451 220.937,43.457 220.756,43.286 C219.514,42.097 217.554,41.977 215.51,42.964 C214.537,43.43 213.737,44.121 213.181,44.948 L213.187,44.948 C214.45,44.948 215.526,45.363 216.297,46.189 C217.3,47.265 217.61,48.512 217.148,49.612 C216.716,50.644 215.682,51.331 214.516,51.36 C213.769,51.391 213.026,51.038 212.453,50.397 C211.668,49.517 211.287,48.202 211.46,46.966 C211.503,46.659 211.57,46.357 211.66,46.064 C211.025,46.224 210.356,46.481 209.672,46.833 C208.306,47.535 207.299,48.371 206.636,49.361 C207.78,49.438 208.795,49.891 209.563,50.715 C210.558,51.782 210.865,53.02 210.407,54.111 C209.978,55.134 208.953,55.816 207.796,55.845 C207.056,55.864 206.348,55.517 205.794,54.866 C205.011,53.945 204.657,52.548 204.892,51.308 C204.953,50.986 205.035,50.675 205.14,50.373 C204.491,50.522 203.811,50.793 203.116,51.187 C201.086,52.339 199.913,54.277 200.264,55.902 C200.316,56.145 200.162,56.384 199.919,56.437 L199.824,56.447 Z" id="Fill-27" fill="#00B0FF"></path>
                    <path d="M35.625,52.354 L35.483,52.33 L28.349,49.948 C28.113,49.869 27.986,49.614 28.065,49.378 C28.144,49.142 28.397,49.015 28.634,49.094 L35.768,51.477 C36.004,51.555 36.131,51.81 36.052,52.046 C35.989,52.234 35.814,52.354 35.625,52.354" id="Fill-28" fill="#00B0FF"></path>
                    <path d="M60.426,103.427 L60.262,103.433 C59.664,103.476 59.118,103.748 58.726,104.201 C58.333,104.654 58.14,105.233 58.183,105.83 C58.271,107.065 59.34,107.998 60.582,107.909 C61.816,107.821 62.748,106.745 62.66,105.511 C62.617,104.912 62.344,104.367 61.892,103.975 C61.48,103.618 60.965,103.427 60.426,103.427 Z M60.421,108.816 C58.788,108.816 57.404,107.548 57.286,105.895 C57.226,105.058 57.495,104.246 58.045,103.611 C58.596,102.978 59.36,102.595 60.197,102.534 C61.033,102.478 61.846,102.744 62.481,103.294 C63.115,103.845 63.498,104.609 63.558,105.446 C63.681,107.176 62.375,108.684 60.646,108.808 L60.421,108.816 Z" id="Fill-29" fill="#00B0FF"></path>
                    <path d="M58.275,84.498 C58.183,83.827 57.564,83.357 56.893,83.45 C56.221,83.542 55.752,84.161 55.844,84.832 C55.937,85.503 56.556,85.973 57.227,85.881 C57.898,85.788 58.368,85.169 58.275,84.498" id="Fill-30" fill="#00B0FF"></path>
                    <path d="M198.116,34.954 C198.096,35.632 198.628,36.197 199.306,36.218 C199.982,36.238 200.549,35.706 200.569,35.028 C200.59,34.351 200.058,33.785 199.38,33.765 C198.702,33.744 198.137,34.277 198.116,34.954" id="Fill-31" fill="#00B0FF"></path>
                    <path d="M47.826,117.311 C47.78,117.986 48.292,118.571 48.968,118.616 C49.645,118.662 50.229,118.151 50.274,117.474 C50.319,116.798 49.808,116.213 49.132,116.168 C48.456,116.123 47.871,116.635 47.826,117.311" id="Fill-32" fill="#00B0FF"></path>
                    <path d="M209.516,99.797 L209.449,99.792 L205.713,99.245 C205.467,99.209 205.297,98.981 205.333,98.734 C205.369,98.487 205.597,98.32 205.844,98.355 L209.58,98.901 C209.826,98.938 209.996,99.166 209.96,99.412 C209.927,99.636 209.735,99.797 209.516,99.797" id="Fill-33" fill="#00B0FF"></path>
                    <path d="M208.236,115.473 L208.078,115.443 L201.038,112.796 C200.806,112.709 200.688,112.449 200.775,112.217 C200.862,111.984 201.124,111.867 201.355,111.954 L208.395,114.602 C208.627,114.689 208.745,114.948 208.657,115.181 C208.59,115.361 208.418,115.473 208.236,115.473" id="Fill-34" fill="#00B0FF"></path>
                    <path d="M228.295,110.834 L228.174,110.818 L199.54,102.832 C199.301,102.765 199.161,102.517 199.228,102.277 C199.294,102.038 199.539,101.901 199.782,101.965 L228.416,109.95 C228.655,110.018 228.795,110.266 228.729,110.505 C228.673,110.704 228.492,110.834 228.295,110.834" id="Fill-35" fill="#00B0FF"></path>
                    <path d="M24.344,106.905 C24.114,106.905 23.918,106.73 23.896,106.496 C23.874,106.249 24.056,106.029 24.304,106.007 L47.239,103.896 C47.483,103.877 47.706,104.056 47.729,104.303 C47.751,104.55 47.569,104.77 47.321,104.792 L24.386,106.903 L24.344,106.905" id="Fill-36" fill="#00B0FF"></path>
                    <path d="M37.624,113.934 C37.419,113.934 37.233,113.792 37.186,113.583 C37.131,113.341 37.283,113.1 37.525,113.045 L45.77,111.172 C46.011,111.117 46.253,111.269 46.308,111.511 C46.363,111.753 46.211,111.994 45.969,112.049 L37.725,113.922 L37.624,113.934" id="Fill-37" fill="#00B0FF"></path>
                    <path d="M72.571,42.893 C71.709,42.928 71.036,43.659 71.071,44.521 C71.106,45.382 71.842,46.049 72.698,46.02 C73.116,46.003 73.502,45.824 73.786,45.517 C74.069,45.21 74.215,44.81 74.198,44.393 C74.163,43.53 73.416,42.842 72.571,42.893 Z M72.633,46.921 C71.32,46.921 70.226,45.882 70.171,44.558 C70.116,43.2 71.176,42.049 72.534,41.993 C73.906,41.935 75.041,42.998 75.098,44.356 C75.124,45.014 74.894,45.643 74.447,46.127 C74.001,46.611 73.393,46.893 72.735,46.92 L72.633,46.921 Z" id="Fill-38" fill="#00B0FF"></path>
                    <path d="M47.489,80.833 C47.328,80.833 47.172,80.746 47.091,80.593 L40.958,69.007 L40.935,68.964 C40.829,68.743 40.919,68.478 41.138,68.367 C41.356,68.256 41.624,68.342 41.739,68.559 L41.76,68.599 C41.873,68.796 42.667,70.023 45.187,70.373 C48.32,70.808 49.397,72.462 50.038,74.023 C50.132,74.253 50.022,74.516 49.792,74.61 C49.562,74.704 49.3,74.594 49.205,74.365 C48.545,72.757 47.588,71.615 45.062,71.264 C44.135,71.135 43.402,70.895 42.828,70.616 L47.887,80.173 C48.003,80.392 47.919,80.664 47.699,80.781 L47.489,80.833" id="Fill-39" fill="#00B0FF"></path>
                    <path d="M45.821,79.928 C45.495,79.928 45.151,80.015 44.831,80.196 C44.411,80.436 44.098,80.799 43.949,81.22 C43.809,81.619 43.835,82.021 44.024,82.353 C44.213,82.685 44.545,82.914 44.96,82.997 C45.398,83.086 45.871,83.002 46.29,82.762 C46.711,82.523 47.024,82.159 47.173,81.738 C47.313,81.34 47.287,80.938 47.098,80.606 C46.847,80.165 46.358,79.928 45.821,79.928 Z M45.305,83.931 C45.13,83.931 44.955,83.914 44.783,83.88 C44.109,83.744 43.562,83.36 43.242,82.799 C42.922,82.236 42.872,81.57 43.1,80.922 C43.321,80.296 43.777,79.76 44.386,79.414 C45.666,78.687 47.233,79.023 47.88,80.16 C48.2,80.722 48.25,81.389 48.022,82.037 C47.801,82.662 47.345,83.198 46.736,83.544 C46.288,83.799 45.794,83.931 45.305,83.931 Z" id="Fill-40" fill="#00B0FF"></path>
                    <path d="M196.206,134.602 L196.073,134.606 C195.591,134.636 195.149,134.825 194.831,135.139 C194.53,135.435 194.378,135.809 194.402,136.19 C194.426,136.571 194.624,136.922 194.96,137.179 C195.314,137.449 195.772,137.585 196.259,137.551 C196.742,137.521 197.184,137.332 197.501,137.019 C197.802,136.723 197.955,136.349 197.931,135.968 C197.882,135.193 197.12,134.602 196.206,134.602 Z M196.123,138.455 C195.493,138.455 194.892,138.259 194.413,137.894 C193.867,137.477 193.545,136.892 193.504,136.246 C193.463,135.601 193.71,134.98 194.2,134.497 C194.672,134.032 195.317,133.751 196.017,133.707 C197.489,133.626 198.747,134.604 198.829,135.911 C198.869,136.557 198.622,137.178 198.133,137.66 C197.66,138.125 197.015,138.405 196.315,138.449 L196.123,138.455 Z" id="Fill-41" fill="#00B0FF"></path>
                    <path d="M198.38,136.39 C198.138,136.39 197.938,136.197 197.93,135.954 L197.584,125.306 C197.579,125.154 197.651,125.01 197.775,124.923 C197.901,124.836 198.063,124.818 198.201,124.873 L205.193,127.666 C205.424,127.758 205.536,128.021 205.444,128.251 C205.353,128.482 205.09,128.593 204.859,128.502 L198.506,125.964 L198.83,135.925 C198.838,136.173 198.643,136.381 198.395,136.39 L198.38,136.39" id="Fill-42" fill="#00B0FF"></path>
                    <path d="M203.201,137.395 L203.066,137.399 C202.543,137.431 202.062,137.655 201.746,138.014 C201.498,138.295 201.374,138.639 201.396,138.982 C201.446,139.793 202.292,140.4 203.252,140.344 C204.225,140.282 204.975,139.571 204.924,138.76 C204.875,137.985 204.114,137.395 203.201,137.395 Z M203.12,141.248 C201.733,141.248 200.576,140.289 200.497,139.038 C200.46,138.455 200.664,137.88 201.07,137.419 C201.544,136.882 202.25,136.548 203.01,136.5 C204.504,136.404 205.739,137.396 205.822,138.703 C205.904,140.011 204.776,141.15 203.309,141.242 L203.12,141.248 Z" id="Fill-43" fill="#00B0FF"></path>
                    <path d="M205.373,139.182 C205.131,139.182 204.932,138.989 204.923,138.746 L204.576,128.099 C204.568,127.851 204.764,127.643 205.012,127.634 C205.264,127.636 205.468,127.821 205.477,128.069 L205.823,138.717 C205.831,138.965 205.636,139.173 205.388,139.182 L205.373,139.182" id="Fill-44" fill="#00B0FF"></path>
                    <path d="M205.015,130.829 L204.848,130.797 L198.008,128.067 C197.777,127.975 197.665,127.713 197.757,127.482 C197.85,127.251 198.112,127.141 198.342,127.231 L205.182,129.961 C205.412,130.053 205.524,130.315 205.433,130.546 C205.362,130.722 205.193,130.829 205.015,130.829" id="Fill-45" fill="#00B0FF"></path>
                    <path d="M49.025,138.653 L58.284,132.325 C58.97,131.83 58.956,130.614 58.253,129.609 C57.549,128.603 56.423,128.189 55.736,128.684 L46.478,135.012 C47.164,134.517 48.291,134.931 48.994,135.937 C49.697,136.942 49.711,138.158 49.025,138.653" id="Fill-46" fill="#FFFFFF"></path>
                    <path d="M48.994,135.937 C48.291,134.931 47.164,134.517 46.478,135.012 C45.791,135.507 45.806,136.724 46.509,137.729 C47.212,138.734 48.338,139.149 49.025,138.653 C49.711,138.158 49.697,136.942 48.994,135.937" id="Fill-47" fill="#FFFFFF"></path>
                    <path d="M47.157,135.253 C47.023,135.253 46.873,135.281 46.741,135.377 C46.263,135.722 46.325,136.682 46.877,137.472 C47.228,137.974 47.712,138.319 48.171,138.398 C48.334,138.425 48.568,138.428 48.762,138.288 C49.24,137.943 49.178,136.984 48.625,136.194 C48.274,135.692 47.79,135.346 47.332,135.268 L47.157,135.253 Z M48.35,139.313 C48.242,139.313 48.132,139.304 48.02,139.284 C47.33,139.167 46.626,138.683 46.14,137.987 C45.284,136.763 45.316,135.295 46.214,134.647 C46.567,134.392 47.006,134.297 47.482,134.381 C48.173,134.498 48.876,134.984 49.362,135.679 C50.22,136.904 50.187,138.371 49.288,139.019 C49.018,139.213 48.698,139.313 48.35,139.313 Z" id="Fill-48" fill="#00B0FF"></path>
                    <path d="M58.284,132.776 C58.144,132.776 58.006,132.71 57.919,132.588 C57.773,132.387 57.819,132.106 58.021,131.96 C58.499,131.615 58.437,130.656 57.884,129.866 C57.532,129.364 57.049,129.018 56.59,128.94 C56.427,128.911 56.193,128.908 56,129.049 C55.799,129.195 55.518,129.148 55.372,128.947 C55.227,128.745 55.272,128.464 55.474,128.318 C55.826,128.065 56.262,127.969 56.741,128.053 C57.432,128.17 58.135,128.655 58.621,129.351 C59.479,130.576 59.446,132.043 58.547,132.691 C58.467,132.748 58.375,132.776 58.284,132.776" id="Fill-49" fill="#00B0FF"></path>
                    <path d="M46.478,135.462 C46.335,135.462 46.193,135.394 46.106,135.266 C45.966,135.061 46.019,134.78 46.224,134.641 L55.482,128.313 C55.687,128.17 55.967,128.223 56.108,128.43 C56.248,128.635 56.195,128.915 55.99,129.055 L46.731,135.383 L46.478,135.462" id="Fill-50" fill="#00B0FF"></path>
                    <path d="M49.025,139.104 C48.882,139.104 48.741,139.035 48.653,138.907 C48.513,138.702 48.566,138.422 48.771,138.282 L58.03,131.954 C58.234,131.812 58.515,131.865 58.655,132.071 C58.795,132.276 58.743,132.557 58.538,132.696 L49.279,139.025 L49.025,139.104" id="Fill-51" fill="#00B0FF"></path>
                </g>
            </g>
        </g>
    </g>
</svg>