<?xml version="1.0" encoding="UTF-8"?>
<svg width="100px" height="120px" viewBox="0 0 100 120" version="1.1" xmlns="http://www.w3.org/2000/svg" xmlns:xlink="http://www.w3.org/1999/xlink">
    <!-- Generator: Sketch 50.2 (55047) - http://www.bohemiancoding.com/sketch -->
    <title>illu_deletefavorite</title>
    <desc>Created with Sketch.</desc>
    <defs>
        <ellipse id="path-1" cx="44" cy="108.5" rx="44" ry="4.5"></ellipse>
        <filter x="-9.7%" y="-72.2%" width="119.3%" height="288.9%" filterUnits="objectBoundingBox" id="filter-2">
            <feOffset dx="0" dy="2" in="SourceAlpha" result="shadowOffsetOuter1"></feOffset>
            <feGaussianBlur stdDeviation="2.5" in="shadowOffsetOuter1" result="shadowBlurOuter1"></feGaussianBlur>
            <feColorMatrix values="0 0 0 0 0   0 0 0 0 0.690196078   0 0 0 0 1  0 0 0 0.131595335 0" type="matrix" in="shadowBlurOuter1"></feColorMatrix>
        </filter>
    </defs>
    <g id="Web-designs" stroke="none" stroke-width="1" fill="none" fill-rule="evenodd">
        <g id="11-Capdel_Website_MaSélection-Suppression" transform="translate(-591.000000, -257.000000)">
            <g id="popin" transform="translate(442.000000, 203.000000)">
                <g id="illu_deletefavorite" transform="translate(154.000000, 54.000000)">
                    <path d="M78.3110378,81.6680286 C78.3110378,83.1121661 77.1427398,84.288641 75.703277,84.288641 L14.2968541,84.288641 C12.8573998,84.288641 11.6892244,83.112175 11.6892244,81.6680286 L11.6892244,4.59008523 C11.6892244,3.14597439 12.857366,1.97000089 14.2968541,1.97000089 L28.4373662,1.97000089 L28.4373662,5.68829444 C28.4373662,7.46825141 29.8690014,8.9092204 31.6325017,8.9092204 L58.3676295,8.9092204 C60.1310314,8.9092204 61.5623715,7.4683499 61.5623715,5.68829444 L61.5623715,1.97000089 L75.703277,1.97000089 C77.1427736,1.97000089 78.3110378,3.14598327 78.3110378,4.59008523 L78.3110378,81.6680286 Z M14.2968541,0.00771781027 C11.7868098,0.00771781027 9.75,2.0583239 9.75,4.59008523 L9.75,81.6680286 C9.75,84.2000316 11.7865247,86.25 14.2968541,86.25 L75.703277,86.25 C78.2137415,86.25 80.25,84.2001593 80.25,81.6680286 L80.25,4.59008523 C80.25,2.05819612 78.2134564,0.00771781027 75.703277,0.00771781027 L14.2968541,0.00771781027 Z" id="Fill-4" fill="#00B0FF" fill-rule="nonzero"></path>
                    <g id="Oval-3" fill="black" fill-opacity="1">
                        <use filter="url(#filter-2)" xlink:href="#path-1"></use>
                    </g>
                    <path d="M69,22.5013118 L67.5,22.5013118 C67.5,21.9730655 66.9923617,21.5 66.3158494,21.5 L23.6854658,21.5 C23.0079539,21.5 22.5,21.9731537 22.5,22.5013118 C22.5,23.0277673 23.0075289,23.5 23.6854658,23.5 L66.3158494,23.5 C66.9927868,23.5 67.5,23.0278557 67.5,22.5013118 L69,22.5013118 Z" id="Fill-5" fill="#00B0FF" fill-rule="nonzero"></path>
                    <path d="M69,40.4999125 L67.5,40.4999125 C67.5,39.9729884 66.9922483,39.5 66.3158494,39.5 L23.6854658,39.5 C23.0080674,39.5 22.5,39.9730766 22.5,40.4999125 C22.5,41.0276904 23.0074153,41.5 23.6854658,41.5 L66.3158494,41.5 C66.9929002,41.5 67.5,41.0277787 67.5,40.4999125 L69,40.4999125 Z" id="Fill-7" fill="#00B0FF" fill-rule="nonzero"></path>
                    <path d="M69,55.5013118 L67.5,55.5013118 C67.5,54.9729684 66.9924413,54.5 66.3158494,54.5 L23.6854658,54.5 C23.0078742,54.5 22.5,54.9730566 22.5,55.5013118 C22.5,56.0276702 23.0076087,56.5 23.6854658,56.5 L66.3158494,56.5 C66.992707,56.5 67.5,56.0277586 67.5,55.5013118 L69,55.5013118 Z" id="Fill-9" fill="#00B0FF" fill-rule="nonzero"></path>
                    <path d="M69,71.4993005 L67.5,71.4993005 C67.5,70.9728459 66.9922879,70.5 66.3158494,70.5 L23.6854658,70.5 C23.0080279,70.5 22.5,70.9729342 22.5,71.4993005 C22.5,72.0273771 23.0075954,72.5 23.6854658,72.5 L66.3158494,72.5 C66.9927201,72.5 67.5,72.0274653 67.5,71.4993005 L69,71.4993005 Z" id="Fill-11" fill="#00B0FF" fill-rule="nonzero"></path>
                    <path d="M76,92.3809524 C84.4946654,92.3809524 91.3809524,85.4946654 91.3809524,77 C91.3809524,68.5053346 84.4946654,61.6190476 76,61.6190476 C67.5053346,61.6190476 60.6190476,68.5053346 60.6190476,77 C60.6190476,85.4946654 67.5053346,92.3809524 76,92.3809524 Z M76,96 C65.5065898,96 57,87.4934102 57,77 C57,66.5065898 65.5065898,58 76,58 C86.4934102,58 95,66.5065898 95,77 C95,87.4934102 86.4934102,96 76,96 Z" id="Oval-Copy" fill="#FFFFFF" fill-rule="nonzero"></path>
                    <circle id="Oval" fill="#FF6666" cx="76" cy="77" r="16"></circle>
                    <g id="Group-2" transform="translate(68.000000, 68.000000)" fill="#FFFFFF" fill-rule="nonzero">
                        <path d="M0.1,5.81818182 C0.1,6.56627662 0.706450657,7.17272727 1.45454545,7.17272727 L1.55454545,7.27272727 L1.55454545,14.5454545 C1.55454545,16.0968726 2.81221829,17.3545455 4.36363636,17.3545455 L11.6363636,17.3545455 C13.1877817,17.3545455 14.4454545,16.0968726 14.4454545,14.5454545 L14.4454545,7.27272727 L14.5454545,7.17272727 C15.2935493,7.17272727 15.9,6.56627662 15.9,5.81818182 L15.9,4.36363636 C15.9,3.61554157 15.2935493,3.00909091 14.5454545,3.00909091 L11.6363636,3.00909091 L11.5363636,2.90909091 L11.5363636,1.45454545 C11.5363636,0.706450657 10.929913,0.1 10.1818182,0.1 L5.81818182,0.1 C5.07008702,0.1 4.46363636,0.706450657 4.46363636,1.45454545 L4.46363636,2.90909091 L4.36363636,3.00909091 L1.45454545,3.00909091 C0.706450657,3.00909091 0.1,3.61554157 0.1,4.36363636 L0.1,5.81818182 Z M13.1909091,14.5454545 C13.1909091,15.4040063 12.4949154,16.1 11.6363636,16.1 L4.36363636,16.1 C3.50508462,16.1 2.80909091,15.4040063 2.80909091,14.5454545 L2.80909091,7.27272727 L2.90909091,7.17272727 L13.0909091,7.17272727 L13.1909091,7.27272727 L13.1909091,14.5454545 Z M5.81818182,1.35454545 L10.1818182,1.35454545 L10.2818182,1.45454545 L10.2818182,2.90909091 L10.1818182,3.00909091 L5.81818182,3.00909091 L5.71818182,2.90909091 L5.71818182,1.45454545 L5.81818182,1.35454545 Z M1.45454545,4.26363636 L14.5454545,4.26363636 L14.6454545,4.36363636 L14.6454545,5.81818182 L14.5454545,5.91818182 L1.45454545,5.91818182 L1.35454545,5.81818182 L1.35454545,4.36363636 L1.45454545,4.26363636 Z" id="Shape"></path>
                        <path d="M5.09090909,14.4454545 C5.43734225,14.4454545 5.71818182,14.164615 5.71818182,13.8181818 L5.71818182,9.45454545 C5.71818182,9.10811229 5.43734225,8.82727273 5.09090909,8.82727273 C4.74447593,8.82727273 4.46363636,9.10811229 4.46363636,9.45454545 L4.46363636,13.8181818 C4.46363636,14.164615 4.74447593,14.4454545 5.09090909,14.4454545 Z" id="Shape"></path>
                        <path d="M8,14.4454545 C8.34643316,14.4454545 8.62727273,14.164615 8.62727273,13.8181818 L8.62727273,9.45454545 C8.62727273,9.10811229 8.34643316,8.82727273 8,8.82727273 C7.65356684,8.82727273 7.37272727,9.10811229 7.37272727,9.45454545 L7.37272727,13.8181818 C7.37272727,14.164615 7.65356684,14.4454545 8,14.4454545 Z" id="Shape"></path>
                        <path d="M10.9090909,14.4454545 C11.2555241,14.4454545 11.5363636,14.164615 11.5363636,13.8181818 L11.5363636,9.45454545 C11.5363636,9.10811229 11.2555241,8.82727273 10.9090909,8.82727273 C10.5626577,8.82727273 10.2818182,9.10811229 10.2818182,9.45454545 L10.2818182,13.8181818 C10.2818182,14.164615 10.5626577,14.4454545 10.9090909,14.4454545 Z" id="Shape"></path>
                    </g>
                </g>
            </g>
        </g>
    </g>
</svg>