<?xml version="1.0" encoding="UTF-8"?>
<svg width="429px" height="247px" viewBox="0 0 429 247" version="1.1" xmlns="http://www.w3.org/2000/svg" xmlns:xlink="http://www.w3.org/1999/xlink">
    <!-- Generator: Sketch 50.2 (55047) - http://www.bohemiancoding.com/sketch -->
    <title>img_error_040</title>
    <desc>Created with Sketch.</desc>
    <defs></defs>
    <g id="Web-designs" stroke="none" stroke-width="1" fill="none" fill-rule="evenodd">
        <g id="08-Capdel_Website_Pageintrouvable404" transform="translate(-431.000000, -190.000000)" fill="#00B0FF">
            <g id="img_error_040" transform="translate(431.000000, 190.000000)">
                <path d="M425.8335,247 L415.5,247 C414.119,247 413,246.3286 413,245.5 C413,244.6714 414.119,244 415.5,244 L425.8335,244 C427.2145,244 428.3335,244.6714 428.3335,245.5 C428.3335,246.3286 427.2145,247 425.8335,247" id="Fill-61"></path>
                <path d="M390.8335,247 L369.5,247 C368.119,247 367,246.3286 367,245.5 C367,244.6714 368.119,244 369.5,244 L390.8335,244 C392.2145,244 393.3335,244.6714 393.3335,245.5 C393.3335,246.3286 392.2145,247 390.8335,247" id="Fill-62"></path>
                <path d="M343.8335,247 L74.5,247 C73.1195,247 72,246.3286 72,245.5 C72,244.6714 73.1195,244 74.5,244 L343.8335,244 C345.2145,244 346.3335,244.6714 346.3335,245.5 C346.3335,246.3286 345.2145,247 343.8335,247" id="Fill-63"></path>
                <path d="M49.2233674,247 L35.5568674,247 C34.1758674,247 33.0568674,246.3286 33.0568674,245.5 C33.0568674,244.6714 34.1758674,244 35.5568674,244 L49.2233674,244 C50.6038674,244 51.7233674,244.6714 51.7233674,245.5 C51.7233674,246.3286 50.6038674,247 49.2233674,247" id="Fill-64"></path>
                <path d="M13.8903674,247 L2.55686741,247 C1.17636741,247 0.0568674143,246.3286 0.0568674143,245.5 C0.0568674143,244.6714 1.17636741,244 2.55686741,244 L13.8903674,244 C15.2708674,244 16.3903674,244.6714 16.3903674,245.5 C16.3903674,246.3286 15.2708674,247 13.8903674,247" id="Fill-65"></path>
                <path d="M262.588242,74.1570556 C262.588242,76.0930423 261.81342,77.9132007 260.408546,79.2826216 L233.314935,105.666314 C231.909381,107.035073 230.040294,107.788949 228.052265,107.788949 L189.736653,107.788949 C187.748624,107.788949 185.879537,107.035073 184.473983,105.666314 L157.381052,79.2826216 C155.974819,77.9132007 155.200677,76.0930423 155.200677,74.1570556 L155.200677,36.8444708 C155.200677,34.9091461 155.974819,33.0883258 157.381052,31.7195667 L184.473983,5.33521279 C185.879537,3.96711557 187.748624,3.21257719 189.736653,3.21257719 L228.052265,3.21257719 C230.040294,3.21257719 231.909381,3.96711557 233.315615,5.33587467 L260.407866,31.7189048 C261.81342,33.0883258 262.588242,34.9091461 262.588242,36.8444708 L262.588242,74.1570556 Z M181.92538,107.29638 C184.159606,109.473218 187.12908,110.671052 190.301451,110.671052 L207.596306,110.671052 L207.596306,240.501247 C207.596306,241.15855 208.165801,241.713061 208.894459,241.713061 C209.623489,241.713061 210.192612,241.158836 210.192612,240.501247 L210.192612,110.671052 L227.487467,110.671052 C230.659702,110.671052 233.629318,109.473305 235.8639,107.29667 L262.158755,81.6901619 C264.383708,79.5234535 265.601583,76.6600961 265.601583,73.6070432 L265.601583,37.3944833 C265.601583,34.3419012 264.383583,31.4785931 262.158095,29.3113646 L235.86456,3.70549908 C233.629086,1.52854594 230.659232,0.330474934 227.487467,0.330474934 L190.301451,0.330474934 C187.12925,0.330474934 184.160092,1.52838448 181.925,3.70551657 L155.630344,29.3111884 C153.405249,31.4785829 152.187335,34.3420312 152.187335,37.3944833 L152.187335,73.6070432 C152.187335,76.6600666 153.405197,79.5235354 155.630145,81.6907867 L178.529683,103.990301 L181.92538,107.29638 Z" id="Fill-67" fill-rule="nonzero"></path>
                <path d="M168.978729,72.2764261 L168.978729,38.7959725 L192.652833,15.1218688 L226.132522,15.1218688 L249.806626,38.7959725 L249.806626,72.2764316 L226.131752,95.9497655 L192.652838,95.9497655 L168.978729,72.2764261 Z M226.993818,98.9608164 C227.241498,98.9608164 227.477839,98.8631004 227.651756,98.6891838 L252.545285,73.7956546 C252.719451,73.6214891 252.817677,73.3842862 252.817677,73.1377164 L252.817677,37.933918 C252.817677,37.6874993 252.719519,37.4504795 252.545285,37.2759797 L227.652515,12.3832094 C227.478088,12.2087822 227.241535,12.1108179 226.994577,12.1108179 L191.790778,12.1108179 C191.544359,12.1108179 191.30734,12.2089758 191.13284,12.3832094 L166.240999,37.2750501 C166.065887,37.4504288 165.967678,37.6874279 165.967678,37.933918 L165.967678,73.1377164 C165.967678,73.3842862 166.065904,73.6214891 166.24007,73.7956546 L191.133599,98.6891838 C191.307515,98.8631004 191.543857,98.9608164 191.791537,98.9608164 L226.993818,98.9608164 Z" id="Fill-68" fill-rule="nonzero"></path>
                <path d="M192.918865,57.7493404 L192.918865,52.1075198 L188.41029,57.7493404 L192.918865,57.7493404 Z M193.630607,64.9465699 C193.436675,64.9465699 193.269789,64.8766491 193.129288,64.7354881 C192.988786,64.5949868 192.918865,64.4287599 192.918865,64.2348285 L192.918865,61.0448549 L184.746042,61.0448549 C184.552111,61.0448549 184.385224,60.974934 184.244723,60.8337731 C184.104222,60.6932718 184.034301,60.5270449 184.034301,60.3331135 L184.034301,58.4610818 C184.034301,58.2156992 184.091029,58 184.205805,57.8153034 C184.319921,57.6306069 184.455805,57.4333773 184.614116,57.2222955 L192.681398,47.151715 C193.032982,46.7124011 193.39314,46.4927441 193.762533,46.4927441 L195.765831,46.4927441 C195.959103,46.4927441 196.125989,46.5626649 196.266491,46.7031662 C196.406992,46.8443272 196.477573,47.0112137 196.477573,47.2044855 L196.477573,57.7493404 L198.744723,57.7493404 C198.937995,57.7493404 199.104881,57.8199208 199.246042,57.9604222 C199.385884,58.1015831 199.456464,58.2684697 199.456464,58.4610818 L199.456464,60.3331135 C199.456464,60.5270449 199.385884,60.6932718 199.246042,60.8337731 C199.104881,60.974934 198.937995,61.0448549 198.744723,61.0448549 L196.477573,61.0448549 L196.477573,64.2348285 C196.477573,64.4287599 196.406992,64.5949868 196.266491,64.7354881 C196.125989,64.8766491 195.959103,64.9465699 195.765831,64.9465699 L193.630607,64.9465699 Z" id="Fill-69"></path>
                <path d="M205.361478,57.9340369 C205.449208,59.1992084 205.753298,60.1794195 206.271108,60.8733509 C206.788918,61.567942 207.663588,61.9149077 208.894459,61.9149077 C210.12467,61.9149077 210.99934,61.567942 211.51781,60.8733509 C212.03562,60.1794195 212.33971,59.1992084 212.426781,57.9340369 C212.461741,57.2664908 212.480211,56.5283641 212.480211,55.719657 C212.480211,54.9116095 212.461741,54.1734828 212.426781,53.505277 C212.33971,52.2394459 212.03562,51.2598945 211.51781,50.5653034 C210.99934,49.871372 210.12467,49.5244063 208.894459,49.5244063 C207.663588,49.5244063 206.788918,49.871372 206.271108,50.5653034 C205.753298,51.2598945 205.449208,52.2394459 205.361478,53.505277 C205.326517,54.1734828 205.308707,54.9116095 205.308707,55.719657 C205.308707,56.5283641 205.326517,57.2664908 205.361478,57.9340369 Z M215.986807,53.3733509 C216.003298,53.707124 216.012533,54.0765172 216.012533,54.4808707 C216.012533,54.8852243 216.012533,55.2974934 216.012533,55.719657 C216.012533,56.1411609 216.012533,56.5547493 216.012533,56.9584433 C216.012533,57.3634565 216.003298,57.73219 215.986807,58.0659631 C215.934037,59.0850923 215.779683,60.030343 215.525726,60.8997361 C215.270449,61.7697889 214.866095,62.5257256 214.312005,63.1668865 C213.759235,63.8093668 213.037599,64.3100264 212.150396,64.6701847 C211.262533,65.0296834 210.177441,65.2104222 208.894459,65.2104222 C207.593008,65.2104222 206.503958,65.0296834 205.62533,64.6701847 C204.745383,64.3100264 204.030343,63.8093668 203.476913,63.1668865 C202.922823,62.5257256 202.51781,61.7697889 202.264512,60.8997361 C202.009235,60.030343 201.855541,59.0850923 201.80277,58.0659631 C201.76715,57.3984169 201.75,56.6385224 201.75,55.7856201 C201.75,54.9333773 201.76715,54.1734828 201.80277,53.505277 C201.855541,52.4861478 202.009235,51.5323219 202.264512,50.6444591 C202.51781,49.7572559 202.922823,48.9881266 203.476913,48.3377309 C204.030343,47.6879947 204.745383,47.1734828 205.62533,46.7955145 C206.503958,46.4175462 207.593008,46.2288918 208.894459,46.2288918 C210.177441,46.2288918 211.262533,46.408971 212.150396,46.7691293 C213.037599,47.1292876 213.759235,47.6306069 214.312005,48.2717678 C214.866095,48.9135884 215.270449,49.6695251 215.525726,50.5389182 C215.779683,51.408971 215.934037,52.3542216 215.986807,53.3733509 Z" id="Fill-70"></path>
                <path d="M227.164248,57.7493404 L227.164248,52.1075198 L222.655673,57.7493404 L227.164248,57.7493404 Z M227.875989,64.9465699 C227.682058,64.9465699 227.515172,64.8766491 227.37533,64.7354881 C227.234828,64.5949868 227.164248,64.4287599 227.164248,64.2348285 L227.164248,61.0448549 L218.992084,61.0448549 C218.798153,61.0448549 218.631266,60.974934 218.490765,60.8337731 C218.349604,60.6932718 218.280343,60.5270449 218.280343,60.3331135 L218.280343,58.4610818 C218.280343,58.2156992 218.336412,58 218.451187,57.8153034 C218.565303,57.6306069 218.701847,57.4333773 218.859499,57.2222955 L226.926781,47.151715 C227.278364,46.7124011 227.638522,46.4927441 228.007916,46.4927441 L230.011873,46.4927441 C230.205145,46.4927441 230.372032,46.5626649 230.511873,46.7031662 C230.652375,46.8443272 230.723615,47.0112137 230.723615,47.2044855 L230.723615,57.7493404 L232.990106,57.7493404 C233.183377,57.7493404 233.350264,57.8199208 233.491425,57.9604222 C233.631926,58.1015831 233.701847,58.2684697 233.701847,58.4610818 L233.701847,60.3331135 C233.701847,60.5270449 233.631926,60.6932718 233.491425,60.8337731 C233.350264,60.974934 233.183377,61.0448549 232.990106,61.0448549 L230.723615,61.0448549 L230.723615,64.2348285 C230.723615,64.4287599 230.652375,64.5949868 230.511873,64.7354881 C230.372032,64.8766491 230.205145,64.9465699 230.011873,64.9465699 L227.875989,64.9465699 Z" id="Fill-71"></path>
                <path d="M14.3331135,128.984169 C12.3350923,128.984169 10.7091029,127.358179 10.7091029,125.360158 C10.7091029,123.361478 12.3350923,121.735488 14.3331135,121.735488 C16.3317942,121.735488 17.9577836,123.361478 17.9577836,125.360158 C17.9577836,127.358179 16.3317942,128.984169 14.3331135,128.984169 Z M14.3331135,119.718338 C11.2229551,119.718338 8.69195251,122.24934 8.69195251,125.360158 C8.69195251,128.470317 11.2229551,131.001319 14.3331135,131.001319 C17.4439314,131.001319 19.9742744,128.470317 19.9742744,125.360158 C19.9742744,122.24934 17.4439314,119.718338 14.3331135,119.718338 Z" id="Fill-72"></path>
                <path d="M261.960422,168.550132 C260.133905,168.550132 258.648417,167.063984 258.648417,165.238127 C258.648417,163.411609 260.133905,161.925462 261.960422,161.925462 C263.786939,161.925462 265.272427,163.411609 265.272427,165.238127 C265.272427,167.063984 263.786939,168.550132 261.960422,168.550132 Z M261.960422,160.082454 C259.118074,160.082454 256.805409,162.395119 256.805409,165.238127 C256.805409,168.080475 259.118074,170.39314 261.960422,170.39314 C264.80343,170.39314 267.116095,168.080475 267.116095,165.238127 C267.116095,162.395119 264.80343,160.082454 261.960422,160.082454 Z" id="Fill-73"></path>
                <path d="M45.9366755,176.864776 C45.5567282,176.485488 44.9406332,176.485488 44.560686,176.864776 C44.1807388,177.244723 44.1807388,177.860818 44.560686,178.240765 L46.158971,179.838391 C46.3489446,180.028364 46.5976253,180.123351 46.8469657,180.123351 C47.0956464,180.123351 47.3443272,180.028364 47.5343008,179.838391 C47.914248,179.459103 47.914248,178.843008 47.5343008,178.463061 L45.9366755,176.864776" id="Fill-74"></path>
                <path d="M46.7605541,181.686675 C46.7605541,181.149736 46.3251979,180.71438 45.7882586,180.71438 L43.5283641,180.71438 C42.9914248,180.71438 42.555409,181.149736 42.555409,181.686675 C42.555409,182.224274 42.9914248,182.659631 43.5283641,182.659631 L45.7882586,182.659631 C46.3251979,182.659631 46.7605541,182.224274 46.7605541,181.686675" id="Fill-75"></path>
                <path d="M46.1451187,183.540897 L44.5468338,185.138522 C44.1668865,185.51847 44.1668865,186.134565 44.5468338,186.513852 C44.7368074,186.703826 44.9854881,186.798813 45.2348285,186.798813 C45.4835092,186.798813 45.7328496,186.703826 45.9228232,186.514512 L47.5204485,184.916227 C47.9003958,184.53628 47.9003958,183.920844 47.5204485,183.540897 C47.1411609,183.16095 46.525066,183.16095 46.1451187,183.540897" id="Fill-76"></path>
                <path d="M49.3687335,184.314644 C48.8311346,184.314644 48.3957784,184.75 48.3957784,185.286939 L48.3957784,187.546834 C48.3957784,188.084433 48.8311346,188.519789 49.3687335,188.519789 C49.9056728,188.519789 50.3416887,188.084433 50.3416887,187.546834 L50.3416887,185.286939 C50.3416887,184.75 49.9056728,184.314644 49.3687335,184.314644" id="Fill-77"></path>
                <path d="M52.598285,183.554749 C52.2183377,183.174802 51.6029024,183.174802 51.2222955,183.554749 C50.8430079,183.934697 50.8430079,184.550132 51.2222955,184.930079 L52.8205805,186.528364 C53.0105541,186.718338 53.2592348,186.813325 53.5085752,186.813325 C53.7572559,186.813325 54.0059367,186.718338 54.1959103,186.528364 C54.5758575,186.148417 54.5758575,185.532322 54.1959103,185.152375 L52.598285,183.554749" id="Fill-78"></path>
                <path d="M55.2288918,180.733509 L52.9689974,180.733509 C52.432058,180.733509 51.9960422,181.169525 51.9960422,181.706464 C51.9960422,182.243404 52.432058,182.67942 52.9689974,182.67942 L55.2288918,182.67942 C55.7658311,182.67942 56.201847,182.243404 56.201847,181.706464 C56.201847,181.169525 55.7658311,180.733509 55.2288918,180.733509" id="Fill-79"></path>
                <path d="M51.9241425,180.137203 C52.1734828,180.137203 52.4221636,180.042216 52.6121372,179.852243 L54.2104222,178.254617 C54.5897098,177.87467 54.5897098,177.259235 54.2104222,176.879288 C53.8304749,176.49934 53.2143799,176.49934 52.8344327,176.879288 L51.2368074,178.476913 C50.8568602,178.85686 50.8568602,179.472296 51.2368074,179.852243 C51.426781,180.042216 51.6754617,180.137203 51.9241425,180.137203" id="Fill-80"></path>
                <path d="M49.3885224,174.873351 C48.8515831,174.873351 48.4155673,175.309367 48.4155673,175.846306 L48.4155673,178.106201 C48.4155673,178.64314 48.8515831,179.079156 49.3885224,179.079156 C49.9254617,179.079156 50.3614776,178.64314 50.3614776,178.106201 L50.3614776,175.846306 C50.3614776,175.309367 49.9254617,174.873351 49.3885224,174.873351" id="Fill-81"></path>
                <path d="M418.150396,218.757256 C417.972955,218.579815 417.685356,218.579815 417.508575,218.757256 C417.331135,218.934697 417.331135,219.221636 417.508575,219.399077 L418.253958,220.145119 C418.342348,220.233509 418.459103,220.277704 418.575198,220.277704 C418.691293,220.277704 418.807388,220.233509 418.895778,220.145119 C419.073219,219.967678 419.073219,219.680079 418.895778,219.503298 L418.150396,218.757256" id="Fill-82"></path>
                <path d="M418.53496,221.007256 C418.53496,220.756596 418.331794,220.55343 418.081135,220.55343 L417.026385,220.55343 C416.775726,220.55343 416.572559,220.756596 416.572559,221.007256 C416.572559,221.257916 416.775726,221.461082 417.026385,221.461082 L418.081135,221.461082 C418.331794,221.461082 418.53496,221.257916 418.53496,221.007256" id="Fill-83"></path>
                <path d="M418.247361,221.872691 L417.501979,222.618074 C417.324538,222.795515 417.324538,223.082454 417.501979,223.259894 C417.590369,223.348285 417.706464,223.39248 417.822559,223.39248 C417.938654,223.39248 418.055409,223.348285 418.143799,223.259894 L418.889182,222.514512 C419.066623,222.337071 419.066623,222.049472 418.889182,221.872691 C418.712401,221.695251 418.424802,221.695251 418.247361,221.872691" id="Fill-84"></path>
                <path d="M419.751979,222.233509 C419.501319,222.233509 419.298153,222.436675 419.298153,222.687335 L419.298153,223.742084 C419.298153,223.992744 419.501319,224.19591 419.751979,224.19591 C420.002639,224.19591 420.205805,223.992744 420.205805,223.742084 L420.205805,222.687335 C420.205805,222.436675 420.002639,222.233509 419.751979,222.233509" id="Fill-85"></path>
                <path d="M421.258575,221.878628 C421.081794,221.701847 420.794195,221.701847 420.616755,221.878628 C420.439314,222.056069 420.439314,222.343668 420.616755,222.521108 L421.362797,223.266491 C421.451187,223.354881 421.567282,223.399077 421.683377,223.399077 C421.799472,223.399077 421.915567,223.354881 422.004617,223.266491 C422.181398,223.08905 422.181398,222.801451 422.004617,222.62467 L421.258575,221.878628" id="Fill-86"></path>
                <path d="M422.486148,220.562665 L421.432058,220.562665 C421.181398,220.562665 420.977573,220.765831 420.977573,221.016491 C420.977573,221.26715 421.181398,221.470317 421.432058,221.470317 L422.486148,221.470317 C422.736807,221.470317 422.939974,221.26715 422.939974,221.016491 C422.939974,220.765831 422.736807,220.562665 422.486148,220.562665" id="Fill-87"></path>
                <path d="M420.944591,220.284301 C421.060686,220.284301 421.176781,220.240106 421.265172,220.151055 L422.011214,219.405673 C422.187995,219.228232 422.187995,218.941293 422.011214,218.763852 C421.833773,218.586412 421.546174,218.586412 421.368734,218.763852 L420.623351,219.509235 C420.44591,219.686675 420.44591,219.974274 420.623351,220.151055 C420.711741,220.240106 420.828496,220.284301 420.944591,220.284301" id="Fill-88"></path>
                <path d="M419.761214,217.827836 C419.510554,217.827836 419.307388,218.031003 419.307388,218.281662 L419.307388,219.336412 C419.307388,219.587071 419.510554,219.790237 419.761214,219.790237 C420.011873,219.790237 420.21504,219.587071 420.21504,219.336412 L420.21504,218.281662 C420.21504,218.031003 420.011873,217.827836 419.761214,217.827836" id="Fill-89"></path>
                <path d="M357.504617,57.5277045 C357.222296,57.2453826 356.763852,57.2453826 356.480871,57.5277045 C356.198549,57.810686 356.198549,58.2684697 356.480871,58.5514512 L357.670185,59.7407652 C357.811346,59.8819261 357.996702,59.9525066 358.182058,59.9525066 C358.367414,59.9525066 358.552111,59.8819261 358.693931,59.7407652 C358.976253,59.4577836 358.976253,58.9993404 358.693931,58.7170185 L357.504617,57.5277045" id="Fill-90"></path>
                <path d="M358.118074,61.1154354 C358.118074,60.7156992 357.794195,60.3918206 357.394459,60.3918206 L355.713061,60.3918206 C355.313325,60.3918206 354.988786,60.7156992 354.988786,61.1154354 C354.988786,61.5151715 355.313325,61.8390501 355.713061,61.8390501 L357.394459,61.8390501 C357.794195,61.8390501 358.118074,61.5151715 358.118074,61.1154354" id="Fill-91"></path>
                <path d="M357.659631,62.494723 L356.470976,63.6840369 C356.187995,63.9663588 356.187995,64.4248021 356.470976,64.7077836 C356.612137,64.8489446 356.797493,64.9195251 356.98285,64.9195251 C357.167546,64.9195251 357.352902,64.8489446 357.494063,64.7077836 L358.683377,63.5184697 C358.965699,63.2361478 358.965699,62.7777045 358.683377,62.4953826 C358.401055,62.2124011 357.942612,62.2124011 357.659631,62.494723" id="Fill-92"></path>
                <path d="M360.058707,63.0705805 C359.658971,63.0705805 359.335092,63.3944591 359.335092,63.7948549 L359.335092,65.4762533 C359.335092,65.8759894 359.658971,66.1998681 360.058707,66.1998681 C360.458443,66.1998681 360.782322,65.8759894 360.782322,65.4762533 L360.782322,63.7948549 C360.782322,63.3944591 360.458443,63.0705805 360.058707,63.0705805" id="Fill-93"></path>
                <path d="M362.461741,62.505277 C362.17876,62.2229551 361.720976,62.2229551 361.437995,62.505277 C361.155673,62.7882586 361.155673,63.2467018 361.437995,63.5290237 L362.626649,64.7183377 C362.76847,64.8594987 362.953826,64.9300792 363.138522,64.9300792 C363.323879,64.9300792 363.509235,64.8594987 363.650396,64.7183377 C363.933377,64.4353562 363.933377,63.9769129 363.650396,63.694591 L362.461741,62.505277" id="Fill-94"></path>
                <path d="M364.418865,60.4063325 L362.737467,60.4063325 C362.337731,60.4063325 362.013852,60.7302111 362.013852,61.1299472 C362.013852,61.5296834 362.337731,61.8542216 362.737467,61.8542216 L364.418865,61.8542216 C364.818602,61.8542216 365.14248,61.5296834 365.14248,61.1299472 C365.14248,60.7302111 364.818602,60.4063325 364.418865,60.4063325" id="Fill-95"></path>
                <path d="M361.960422,59.9624011 C362.145119,59.9624011 362.330475,59.8918206 362.472296,59.7506596 L363.66095,58.5620053 C363.943272,58.2790237 363.943272,57.8205805 363.66095,57.5382586 C363.377968,57.2559367 362.920185,57.2559367 362.637203,57.5382586 L361.448549,58.7269129 C361.165567,59.0098945 361.165567,59.4683377 361.448549,59.7506596 C361.58971,59.8918206 361.775066,59.9624011 361.960422,59.9624011" id="Fill-96"></path>
                <path d="M360.073219,56.0461741 C359.673483,56.0461741 359.349604,56.3700528 359.349604,56.7697889 L359.349604,58.4511873 C359.349604,58.8509235 359.673483,59.1748021 360.073219,59.1748021 C360.472955,59.1748021 360.796834,58.8509235 360.796834,58.4511873 L360.796834,56.7697889 C360.796834,56.3700528 360.472955,56.0461741 360.073219,56.0461741" id="Fill-97"></path>
                <path d="M67.8509235,57.1952507 L64.7783641,60.26781 C64.048153,60.9980211 64.048153,62.182058 64.7783641,62.9129288 C65.1437995,63.2777045 65.6226913,63.4604222 66.1009235,63.4604222 C66.5791557,63.4604222 67.0580475,63.2777045 67.4234828,62.9129288 L70.4960422,59.8403694 C71.2262533,59.1101583 71.2262533,57.9254617 70.4960422,57.1952507 C69.7651715,56.4650396 68.5811346,56.4650396 67.8509235,57.1952507" id="Fill-98"></path>
                <path d="M76.9281003,48.1174142 L73.8562005,51.1899736 C73.1253298,51.9201847 73.1253298,53.1048813 73.8562005,53.8350923 C74.2209763,54.1998681 74.6998681,54.3825858 75.1787599,54.3825858 C75.6569921,54.3825858 76.1358839,54.1998681 76.5013193,53.8350923 L79.573219,50.762533 C80.3034301,50.0323219 80.3034301,48.848285 79.573219,48.1174142 C78.8430079,47.3878628 77.658971,47.3878628 76.9281003,48.1174142" id="Fill-99"></path>
                <path d="M67.4234828,48.1174142 C66.6932718,47.3878628 65.5092348,47.3878628 64.7783641,48.1174142 C64.048153,48.848285 64.048153,50.0323219 64.7783641,50.762533 L67.8509235,53.8350923 C68.2156992,54.1998681 68.694591,54.3825858 69.1734828,54.3825858 C69.651715,54.3825858 70.1306069,54.1998681 70.4960422,53.8350923 C71.2262533,53.1048813 71.2262533,51.9201847 70.4960422,51.1899736 L67.4234828,48.1174142" id="Fill-100"></path>
                <path d="M76.5013193,57.1952507 C75.7704485,56.4650396 74.5864116,56.4650396 73.8562005,57.1952507 C73.1253298,57.9254617 73.1253298,59.1101583 73.8562005,59.8403694 L76.9281003,62.9129288 C77.2935356,63.2777045 77.7724274,63.4604222 78.2506596,63.4604222 C78.7295515,63.4604222 79.2084433,63.2777045 79.573219,62.9129288 C80.3034301,62.182058 80.3034301,60.9980211 79.573219,60.26781 L76.5013193,57.1952507" id="Fill-101"></path>
                <path d="M407.94657,122.287599 C407.635224,122.467018 407.528364,122.864116 407.707784,123.175462 C408.351583,124.290897 407.967018,125.722296 406.850923,126.366095 C405.735488,127.009235 404.30409,126.62467 403.66029,125.508575 C403.01715,124.39314 403.401715,122.961741 404.51715,122.318602 C404.885224,122.106201 405.302111,121.998681 405.723615,122.005937 C406.082454,122.012533 406.378628,121.726253 406.385224,121.368074 C406.391821,121.008575 406.106201,120.712401 405.746702,120.706464 C405.08971,120.694591 404.439974,120.862137 403.868074,121.191953 C402.131266,122.193931 401.532982,124.421504 402.534301,126.158311 C403.53562,127.895119 405.763852,128.493404 407.50066,127.492084 C409.237467,126.490765 409.835752,124.262533 408.834433,122.525726 C408.655013,122.21504 408.257256,122.108179 407.94657,122.287599" id="Fill-102"></path>
                <path d="M144.865435,223.967678 C144.622032,224.10752 144.538918,224.418206 144.67876,224.66095 C145.182058,225.532982 144.881266,226.651715 144.009894,227.154354 C143.137863,227.656992 142.019129,227.35686 141.516491,226.484828 C141.013852,225.612797 141.313984,224.494723 142.186016,223.992084 C142.473615,223.825858 142.799472,223.741425 143.128628,223.747361 C143.408971,223.752639 143.640501,223.529024 143.645778,223.248681 C143.650396,222.968338 143.427441,222.736807 143.147098,222.73219 C142.633245,222.722955 142.12533,222.854222 141.67876,223.111478 C140.32124,223.894459 139.854222,225.635224 140.636544,226.992084 C141.418865,228.349604 143.159631,228.816623 144.51715,228.034301 C145.874011,227.251979 146.341689,225.511214 145.559367,224.153694 C145.418865,223.91095 145.108179,223.827177 144.865435,223.967678" id="Fill-103"></path>
                <path d="M147.754617,13.6312665 C149.491425,12.6299472 150.08971,10.4023747 149.088391,8.66490765 C148.908971,8.35422164 148.511214,8.24736148 148.200528,8.426781 C147.889182,8.60620053 147.782982,9.00329815 147.961741,9.3146438 C148.605541,10.4307388 148.220976,11.8614776 147.105541,12.505277 C145.989446,13.1484169 144.558047,12.7645119 143.914908,11.6484169 C143.271108,10.5323219 143.655673,9.10158311 144.771768,8.45778364 C145.139182,8.24604222 145.556069,8.1378628 145.977573,8.14511873 C146.337071,8.15171504 146.632586,7.86609499 146.639182,7.50725594 C146.645778,7.14841689 146.360158,6.85224274 146.001319,6.84564644 C145.343668,6.83377309 144.693931,7.00197889 144.122032,7.3317942 C142.385224,8.33311346 141.786939,10.560686 142.788259,12.2974934 C143.790237,14.0343008 146.01781,14.6325858 147.754617,13.6312665" id="Fill-104"></path>
                <path d="M315.173483,24.1972296 C315.173483,23.4254617 314.548153,22.7994723 313.775726,22.7994723 L308.751319,22.7994723 L308.751319,17.775066 C308.751319,17.0026385 308.12533,16.3766491 307.352902,16.3766491 C306.581135,16.3766491 305.955145,17.0026385 305.955145,17.775066 L305.955145,22.7994723 L300.930079,22.7994723 C300.158311,22.7994723 299.532322,23.4254617 299.532322,24.1972296 C299.532322,24.969657 300.158311,25.5956464 300.930079,25.5956464 L305.955145,25.5956464 L305.955145,30.6200528 C305.955145,31.3924802 306.581135,32.01781 307.352902,32.01781 C308.12533,32.01781 308.751319,31.3924802 308.751319,30.6200528 L308.751319,25.5956464 L313.775726,25.5956464 C314.548153,25.5956464 315.173483,24.969657 315.173483,24.1972296" id="Fill-105"></path>
                <path d="M148.871372,162.858839 L144.354881,162.858839 L144.354881,158.342348 C144.354881,157.648417 143.792216,157.085752 143.097625,157.085752 C142.403694,157.085752 141.841029,157.648417 141.841029,158.342348 L141.841029,162.858839 L137.324538,162.858839 C136.630607,162.858839 136.067942,163.421504 136.067942,164.115435 C136.067942,164.809367 136.630607,165.372032 137.324538,165.372032 L141.841029,165.372032 L141.841029,169.888522 C141.841029,170.582454 142.403694,171.145119 143.098285,171.145119 C143.792216,171.145119 144.354881,170.582454 144.354881,169.888522 L144.354881,165.372032 L148.871372,165.372032 C149.565303,165.372032 150.127968,164.809367 150.127968,164.115435 C150.127968,163.421504 149.565303,162.858839 148.871372,162.858839" id="Fill-106"></path>
                <path d="M377.137863,171.894459 C376.635884,171.39248 375.822559,171.39248 375.32058,171.894459 L372.055409,175.158971 L368.790897,171.894459 C368.288918,171.39248 367.475594,171.39248 366.973615,171.894459 C366.471636,172.395778 366.471636,173.209763 366.973615,173.711082 L370.238786,176.976253 L366.973615,180.241425 C366.471636,180.742744 366.471636,181.556728 366.973615,182.058047 C367.475594,182.560026 368.288918,182.560026 368.790897,182.058047 L372.055409,178.793536 L375.32058,182.058047 C375.822559,182.560026 376.635884,182.560026 377.137863,182.058047 C377.639182,181.556728 377.639182,180.742744 377.137863,180.241425 L373.872691,176.976253 L377.137863,173.711082 C377.639182,173.209763 377.639182,172.396438 377.137863,171.894459" id="Fill-107"></path>
                <path d="M312.115435,109.12533 L308.986148,109.12533 C308.242084,109.125989 307.639182,109.728892 307.639182,110.472955 C307.639182,110.844987 307.790237,111.181398 308.033641,111.425462 C308.277704,111.668865 308.614116,111.819921 308.986148,111.819921 L312.115435,111.819921 C312.859499,111.819921 313.462401,111.217018 313.462401,110.472955 C313.462401,109.728892 312.859499,109.125989 312.115435,109.12533" id="Fill-108"></path>
                <path d="M321.361478,109.12533 L318.23219,109.12533 C317.488127,109.125989 316.885224,109.728892 316.885224,110.472955 C316.885224,110.844987 317.03562,111.181398 317.279683,111.425462 C317.523087,111.668865 317.860158,111.819921 318.23219,111.819921 L321.361478,111.819921 C322.105541,111.819921 322.708443,111.217018 322.708443,110.472955 C322.708443,109.728892 322.104881,109.125989 321.361478,109.12533" id="Fill-109"></path>
                <path d="M315.173483,102.937995 C314.430079,102.937995 313.826517,103.541557 313.826517,104.28496 L313.826517,107.414248 C313.826517,107.78628 313.977573,108.123351 314.221636,108.366755 C314.46504,108.610818 314.802111,108.761214 315.173483,108.761873 C315.917546,108.761214 316.520449,108.158311 316.521108,107.414248 L316.521108,104.28496 C316.520449,103.541557 315.917546,102.938654 315.173483,102.937995" id="Fill-110"></path>
                <path d="M315.173483,112.184037 C314.430079,112.184037 313.826517,112.786939 313.826517,113.531003 L313.826517,116.66029 C313.826517,117.032322 313.977573,117.369393 314.220976,117.612797 C314.46504,117.856201 314.802111,118.007256 315.173483,118.007256 C315.917546,118.007256 316.520449,117.404354 316.521108,116.66029 L316.521108,113.531003 C316.520449,112.786939 315.917546,112.184037 315.173483,112.184037" id="Fill-111"></path>
                <path d="M290.136544,221.011873 C288.876649,221.011873 287.856201,222.032982 287.856201,223.292216 C287.856201,224.551451 288.876649,225.572559 290.136544,225.572559 C291.395778,225.572559 292.416887,224.551451 292.416887,223.292216 C292.416887,222.032982 291.395778,221.011873 290.136544,221.011873" id="Fill-112"></path>
                <path d="M112.296174,103.908311 C111.406332,103.908311 110.684697,104.629947 110.684697,105.519789 C110.684697,106.409631 111.406332,107.131266 112.296174,107.131266 C113.186016,107.131266 113.907652,106.409631 113.907652,105.519789 C113.907652,104.629947 113.186016,103.908311 112.296174,103.908311" id="Fill-113"></path>
                <path d="M3.74934037,223.390501 C2.85949868,223.390501 2.1378628,224.111478 2.1378628,225.001979 C2.1378628,225.891821 2.85949868,226.613456 3.74934037,226.613456 C4.63918206,226.613456 5.36081794,225.891821 5.36081794,225.001979 C5.36081794,224.111478 4.63918206,223.390501 3.74934037,223.390501" id="Fill-114"></path>
            </g>
        </g>
    </g>
</svg>