<?xml version="1.0" encoding="UTF-8"?>
<svg width="429px" height="247px" viewBox="0 0 429 247" version="1.1" xmlns="http://www.w3.org/2000/svg" xmlns:xlink="http://www.w3.org/1999/xlink">
    <!-- Generator: Sketch 50.2 (55047) - http://www.bohemiancoding.com/sketch -->
    <title>img_error_500</title>
    <desc>Created with Sketch.</desc>
    <defs></defs>
    <g id="Web-designs" stroke="none" stroke-width="1" fill="none" fill-rule="evenodd">
        <g id="08-Capdel_Website_Pageintrouvable500" transform="translate(-431.000000, -190.000000)" fill="#00B0FF">
            <g id="img_error_500" transform="translate(431.000000, 190.000000)">
                <path d="M425.8335,247 L415.5,247 C414.119,247 413,246.3286 413,245.5 C413,244.6714 414.119,244 415.5,244 L425.8335,244 C427.2145,244 428.3335,244.6714 428.3335,245.5 C428.3335,246.3286 427.2145,247 425.8335,247" id="Fill-61"></path>
                <path d="M390.8335,247 L369.5,247 C368.119,247 367,246.3286 367,245.5 C367,244.6714 368.119,244 369.5,244 L390.8335,244 C392.2145,244 393.3335,244.6714 393.3335,245.5 C393.3335,246.3286 392.2145,247 390.8335,247" id="Fill-62"></path>
                <path d="M343.8335,247 L74.5,247 C73.1195,247 72,246.3286 72,245.5 C72,244.6714 73.1195,244 74.5,244 L343.8335,244 C345.2145,244 346.3335,244.6714 346.3335,245.5 C346.3335,246.3286 345.2145,247 343.8335,247" id="Fill-63"></path>
                <path d="M49.2233674,247 L35.5568674,247 C34.1758674,247 33.0568674,246.3286 33.0568674,245.5 C33.0568674,244.6714 34.1758674,244 35.5568674,244 L49.2233674,244 C50.6038674,244 51.7233674,244.6714 51.7233674,245.5 C51.7233674,246.3286 50.6038674,247 49.2233674,247" id="Fill-64"></path>
                <path d="M13.8903674,247 L2.55686741,247 C1.17636741,247 0.0568674143,246.3286 0.0568674143,245.5 C0.0568674143,244.6714 1.17636741,244 2.55686741,244 L13.8903674,244 C15.2708674,244 16.3903674,244.6714 16.3903674,245.5 C16.3903674,246.3286 15.2708674,247 13.8903674,247" id="Fill-65"></path>
                <path d="M262.588242,74.1570556 C262.588242,76.0930423 261.81342,77.9132007 260.408546,79.2826216 L233.314935,105.666314 C231.909381,107.035073 230.040294,107.788949 228.052265,107.788949 L189.736653,107.788949 C187.748624,107.788949 185.879537,107.035073 184.473983,105.666314 L157.381052,79.2826216 C155.974819,77.9132007 155.200677,76.0930423 155.200677,74.1570556 L155.200677,36.8444708 C155.200677,34.9091461 155.974819,33.0883258 157.381052,31.7195667 L184.473983,5.33521279 C185.879537,3.96711557 187.748624,3.21257719 189.736653,3.21257719 L228.052265,3.21257719 C230.040294,3.21257719 231.909381,3.96711557 233.315615,5.33587467 L260.407866,31.7189048 C261.81342,33.0883258 262.588242,34.9091461 262.588242,36.8444708 L262.588242,74.1570556 Z M181.92538,107.29638 C184.159606,109.473218 187.12908,110.671052 190.301451,110.671052 L207.596306,110.671052 L207.596306,240.501247 C207.596306,241.15855 208.165801,241.713061 208.894459,241.713061 C209.623489,241.713061 210.192612,241.158836 210.192612,240.501247 L210.192612,110.671052 L227.487467,110.671052 C230.659702,110.671052 233.629318,109.473305 235.8639,107.29667 L262.158755,81.6901619 C264.383708,79.5234535 265.601583,76.6600961 265.601583,73.6070432 L265.601583,37.3944833 C265.601583,34.3419012 264.383583,31.4785931 262.158095,29.3113646 L235.86456,3.70549908 C233.629086,1.52854594 230.659232,0.330474934 227.487467,0.330474934 L190.301451,0.330474934 C187.12925,0.330474934 184.160092,1.52838448 181.925,3.70551657 L155.630344,29.3111884 C153.405249,31.4785829 152.187335,34.3420312 152.187335,37.3944833 L152.187335,73.6070432 C152.187335,76.6600666 153.405197,79.5235354 155.630145,81.6907867 L178.529683,103.990301 L181.92538,107.29638 Z" id="Fill-67" fill-rule="nonzero"></path>
                <path d="M168.978729,72.2764261 L168.978729,38.7959725 L192.652833,15.1218688 L226.132522,15.1218688 L249.806626,38.7959725 L249.806626,72.2764316 L226.131752,95.9497655 L192.652838,95.9497655 L168.978729,72.2764261 Z M226.993818,98.9608164 C227.241498,98.9608164 227.477839,98.8631004 227.651756,98.6891838 L252.545285,73.7956546 C252.719451,73.6214891 252.817677,73.3842862 252.817677,73.1377164 L252.817677,37.933918 C252.817677,37.6874993 252.719519,37.4504795 252.545285,37.2759797 L227.652515,12.3832094 C227.478088,12.2087822 227.241535,12.1108179 226.994577,12.1108179 L191.790778,12.1108179 C191.544359,12.1108179 191.30734,12.2089758 191.13284,12.3832094 L166.240999,37.2750501 C166.065887,37.4504288 165.967678,37.6874279 165.967678,37.933918 L165.967678,73.1377164 C165.967678,73.3842862 166.065904,73.6214891 166.24007,73.7956546 L191.133599,98.6891838 C191.307515,98.8631004 191.543857,98.9608164 191.791537,98.9608164 L226.993818,98.9608164 Z" id="Fill-68" fill-rule="nonzero"></path>
                <path d="M205.611478,57.7051451 C205.699208,58.9703166 206.003298,59.9505277 206.521108,60.6444591 C207.038918,61.3390501 207.913588,61.6860158 209.144459,61.6860158 C210.37467,61.6860158 211.24934,61.3390501 211.76781,60.6444591 C212.28562,59.9505277 212.58971,58.9703166 212.676781,57.7051451 C212.711741,57.0375989 212.730211,56.2994723 212.730211,55.4907652 C212.730211,54.6827177 212.711741,53.944591 212.676781,53.2763852 C212.58971,52.0105541 212.28562,51.0310026 211.76781,50.3364116 C211.24934,49.6424802 210.37467,49.2955145 209.144459,49.2955145 C207.913588,49.2955145 207.038918,49.6424802 206.521108,50.3364116 C206.003298,51.0310026 205.699208,52.0105541 205.611478,53.2763852 C205.576517,53.944591 205.558707,54.6827177 205.558707,55.4907652 C205.558707,56.2994723 205.576517,57.0375989 205.611478,57.7051451 Z M216.236807,53.1444591 C216.253298,53.4782322 216.262533,53.8476253 216.262533,54.2519789 C216.262533,54.6563325 216.262533,55.0686016 216.262533,55.4907652 C216.262533,55.9122691 216.262533,56.3258575 216.262533,56.7295515 C216.262533,57.1345646 216.253298,57.5032982 216.236807,57.8370712 C216.184037,58.8562005 216.029683,59.8014512 215.775726,60.6708443 C215.520449,61.5408971 215.116095,62.2968338 214.562005,62.9379947 C214.009235,63.5804749 213.287599,64.0811346 212.400396,64.4412929 C211.512533,64.8007916 210.427441,64.9815303 209.144459,64.9815303 C207.843008,64.9815303 206.753958,64.8007916 205.87533,64.4412929 C204.995383,64.0811346 204.280343,63.5804749 203.726913,62.9379947 C203.172823,62.2968338 202.76781,61.5408971 202.514512,60.6708443 C202.259235,59.8014512 202.105541,58.8562005 202.05277,57.8370712 C202.01715,57.1695251 202,56.4096306 202,55.5567282 C202,54.7044855 202.01715,53.944591 202.05277,53.2763852 C202.105541,52.2572559 202.259235,51.3034301 202.514512,50.4155673 C202.76781,49.5283641 203.172823,48.7592348 203.726913,48.1088391 C204.280343,47.4591029 204.995383,46.944591 205.87533,46.5666227 C206.753958,46.1886544 207.843008,46 209.144459,46 C210.427441,46 211.512533,46.1800792 212.400396,46.5402375 C213.287599,46.9003958 214.009235,47.401715 214.562005,48.042876 C215.116095,48.6846966 215.520449,49.4406332 215.775726,50.3100264 C216.029683,51.1800792 216.184037,52.1253298 216.236807,53.1444591 Z" id="Fill-70"></path>
                <path d="M222.611478,57.7051451 C222.699208,58.9703166 223.003298,59.9505277 223.521108,60.6444591 C224.038918,61.3390501 224.913588,61.6860158 226.144459,61.6860158 C227.37467,61.6860158 228.24934,61.3390501 228.76781,60.6444591 C229.28562,59.9505277 229.58971,58.9703166 229.676781,57.7051451 C229.711741,57.0375989 229.730211,56.2994723 229.730211,55.4907652 C229.730211,54.6827177 229.711741,53.944591 229.676781,53.2763852 C229.58971,52.0105541 229.28562,51.0310026 228.76781,50.3364116 C228.24934,49.6424802 227.37467,49.2955145 226.144459,49.2955145 C224.913588,49.2955145 224.038918,49.6424802 223.521108,50.3364116 C223.003298,51.0310026 222.699208,52.0105541 222.611478,53.2763852 C222.576517,53.944591 222.558707,54.6827177 222.558707,55.4907652 C222.558707,56.2994723 222.576517,57.0375989 222.611478,57.7051451 Z M233.236807,53.1444591 C233.253298,53.4782322 233.262533,53.8476253 233.262533,54.2519789 C233.262533,54.6563325 233.262533,55.0686016 233.262533,55.4907652 C233.262533,55.9122691 233.262533,56.3258575 233.262533,56.7295515 C233.262533,57.1345646 233.253298,57.5032982 233.236807,57.8370712 C233.184037,58.8562005 233.029683,59.8014512 232.775726,60.6708443 C232.520449,61.5408971 232.116095,62.2968338 231.562005,62.9379947 C231.009235,63.5804749 230.287599,64.0811346 229.400396,64.4412929 C228.512533,64.8007916 227.427441,64.9815303 226.144459,64.9815303 C224.843008,64.9815303 223.753958,64.8007916 222.87533,64.4412929 C221.995383,64.0811346 221.280343,63.5804749 220.726913,62.9379947 C220.172823,62.2968338 219.76781,61.5408971 219.514512,60.6708443 C219.259235,59.8014512 219.105541,58.8562005 219.05277,57.8370712 C219.01715,57.1695251 219,56.4096306 219,55.5567282 C219,54.7044855 219.01715,53.944591 219.05277,53.2763852 C219.105541,52.2572559 219.259235,51.3034301 219.514512,50.4155673 C219.76781,49.5283641 220.172823,48.7592348 220.726913,48.1088391 C221.280343,47.4591029 221.995383,46.944591 222.87533,46.5666227 C223.753958,46.1886544 224.843008,46 226.144459,46 C227.427441,46 228.512533,46.1800792 229.400396,46.5402375 C230.287599,46.9003958 231.009235,47.401715 231.562005,48.042876 C232.116095,48.6846966 232.520449,49.4406332 232.775726,50.3100264 C233.029683,51.1800792 233.184037,52.1253298 233.236807,53.1444591 Z" id="Fill-70-Copy"></path>
                <path d="M14.3331135,128.984169 C12.3350923,128.984169 10.7091029,127.358179 10.7091029,125.360158 C10.7091029,123.361478 12.3350923,121.735488 14.3331135,121.735488 C16.3317942,121.735488 17.9577836,123.361478 17.9577836,125.360158 C17.9577836,127.358179 16.3317942,128.984169 14.3331135,128.984169 Z M14.3331135,119.718338 C11.2229551,119.718338 8.69195251,122.24934 8.69195251,125.360158 C8.69195251,128.470317 11.2229551,131.001319 14.3331135,131.001319 C17.4439314,131.001319 19.9742744,128.470317 19.9742744,125.360158 C19.9742744,122.24934 17.4439314,119.718338 14.3331135,119.718338 Z" id="Fill-72"></path>
                <path d="M261.960422,168.550132 C260.133905,168.550132 258.648417,167.063984 258.648417,165.238127 C258.648417,163.411609 260.133905,161.925462 261.960422,161.925462 C263.786939,161.925462 265.272427,163.411609 265.272427,165.238127 C265.272427,167.063984 263.786939,168.550132 261.960422,168.550132 Z M261.960422,160.082454 C259.118074,160.082454 256.805409,162.395119 256.805409,165.238127 C256.805409,168.080475 259.118074,170.39314 261.960422,170.39314 C264.80343,170.39314 267.116095,168.080475 267.116095,165.238127 C267.116095,162.395119 264.80343,160.082454 261.960422,160.082454 Z" id="Fill-73"></path>
                <path d="M45.9366755,176.864776 C45.5567282,176.485488 44.9406332,176.485488 44.560686,176.864776 C44.1807388,177.244723 44.1807388,177.860818 44.560686,178.240765 L46.158971,179.838391 C46.3489446,180.028364 46.5976253,180.123351 46.8469657,180.123351 C47.0956464,180.123351 47.3443272,180.028364 47.5343008,179.838391 C47.914248,179.459103 47.914248,178.843008 47.5343008,178.463061 L45.9366755,176.864776" id="Fill-74"></path>
                <path d="M46.7605541,181.686675 C46.7605541,181.149736 46.3251979,180.71438 45.7882586,180.71438 L43.5283641,180.71438 C42.9914248,180.71438 42.555409,181.149736 42.555409,181.686675 C42.555409,182.224274 42.9914248,182.659631 43.5283641,182.659631 L45.7882586,182.659631 C46.3251979,182.659631 46.7605541,182.224274 46.7605541,181.686675" id="Fill-75"></path>
                <path d="M46.1451187,183.540897 L44.5468338,185.138522 C44.1668865,185.51847 44.1668865,186.134565 44.5468338,186.513852 C44.7368074,186.703826 44.9854881,186.798813 45.2348285,186.798813 C45.4835092,186.798813 45.7328496,186.703826 45.9228232,186.514512 L47.5204485,184.916227 C47.9003958,184.53628 47.9003958,183.920844 47.5204485,183.540897 C47.1411609,183.16095 46.525066,183.16095 46.1451187,183.540897" id="Fill-76"></path>
                <path d="M49.3687335,184.314644 C48.8311346,184.314644 48.3957784,184.75 48.3957784,185.286939 L48.3957784,187.546834 C48.3957784,188.084433 48.8311346,188.519789 49.3687335,188.519789 C49.9056728,188.519789 50.3416887,188.084433 50.3416887,187.546834 L50.3416887,185.286939 C50.3416887,184.75 49.9056728,184.314644 49.3687335,184.314644" id="Fill-77"></path>
                <path d="M52.598285,183.554749 C52.2183377,183.174802 51.6029024,183.174802 51.2222955,183.554749 C50.8430079,183.934697 50.8430079,184.550132 51.2222955,184.930079 L52.8205805,186.528364 C53.0105541,186.718338 53.2592348,186.813325 53.5085752,186.813325 C53.7572559,186.813325 54.0059367,186.718338 54.1959103,186.528364 C54.5758575,186.148417 54.5758575,185.532322 54.1959103,185.152375 L52.598285,183.554749" id="Fill-78"></path>
                <path d="M55.2288918,180.733509 L52.9689974,180.733509 C52.432058,180.733509 51.9960422,181.169525 51.9960422,181.706464 C51.9960422,182.243404 52.432058,182.67942 52.9689974,182.67942 L55.2288918,182.67942 C55.7658311,182.67942 56.201847,182.243404 56.201847,181.706464 C56.201847,181.169525 55.7658311,180.733509 55.2288918,180.733509" id="Fill-79"></path>
                <path d="M51.9241425,180.137203 C52.1734828,180.137203 52.4221636,180.042216 52.6121372,179.852243 L54.2104222,178.254617 C54.5897098,177.87467 54.5897098,177.259235 54.2104222,176.879288 C53.8304749,176.49934 53.2143799,176.49934 52.8344327,176.879288 L51.2368074,178.476913 C50.8568602,178.85686 50.8568602,179.472296 51.2368074,179.852243 C51.426781,180.042216 51.6754617,180.137203 51.9241425,180.137203" id="Fill-80"></path>
                <path d="M49.3885224,174.873351 C48.8515831,174.873351 48.4155673,175.309367 48.4155673,175.846306 L48.4155673,178.106201 C48.4155673,178.64314 48.8515831,179.079156 49.3885224,179.079156 C49.9254617,179.079156 50.3614776,178.64314 50.3614776,178.106201 L50.3614776,175.846306 C50.3614776,175.309367 49.9254617,174.873351 49.3885224,174.873351" id="Fill-81"></path>
                <path d="M418.150396,218.757256 C417.972955,218.579815 417.685356,218.579815 417.508575,218.757256 C417.331135,218.934697 417.331135,219.221636 417.508575,219.399077 L418.253958,220.145119 C418.342348,220.233509 418.459103,220.277704 418.575198,220.277704 C418.691293,220.277704 418.807388,220.233509 418.895778,220.145119 C419.073219,219.967678 419.073219,219.680079 418.895778,219.503298 L418.150396,218.757256" id="Fill-82"></path>
                <path d="M418.53496,221.007256 C418.53496,220.756596 418.331794,220.55343 418.081135,220.55343 L417.026385,220.55343 C416.775726,220.55343 416.572559,220.756596 416.572559,221.007256 C416.572559,221.257916 416.775726,221.461082 417.026385,221.461082 L418.081135,221.461082 C418.331794,221.461082 418.53496,221.257916 418.53496,221.007256" id="Fill-83"></path>
                <path d="M418.247361,221.872691 L417.501979,222.618074 C417.324538,222.795515 417.324538,223.082454 417.501979,223.259894 C417.590369,223.348285 417.706464,223.39248 417.822559,223.39248 C417.938654,223.39248 418.055409,223.348285 418.143799,223.259894 L418.889182,222.514512 C419.066623,222.337071 419.066623,222.049472 418.889182,221.872691 C418.712401,221.695251 418.424802,221.695251 418.247361,221.872691" id="Fill-84"></path>
                <path d="M419.751979,222.233509 C419.501319,222.233509 419.298153,222.436675 419.298153,222.687335 L419.298153,223.742084 C419.298153,223.992744 419.501319,224.19591 419.751979,224.19591 C420.002639,224.19591 420.205805,223.992744 420.205805,223.742084 L420.205805,222.687335 C420.205805,222.436675 420.002639,222.233509 419.751979,222.233509" id="Fill-85"></path>
                <path d="M421.258575,221.878628 C421.081794,221.701847 420.794195,221.701847 420.616755,221.878628 C420.439314,222.056069 420.439314,222.343668 420.616755,222.521108 L421.362797,223.266491 C421.451187,223.354881 421.567282,223.399077 421.683377,223.399077 C421.799472,223.399077 421.915567,223.354881 422.004617,223.266491 C422.181398,223.08905 422.181398,222.801451 422.004617,222.62467 L421.258575,221.878628" id="Fill-86"></path>
                <path d="M422.486148,220.562665 L421.432058,220.562665 C421.181398,220.562665 420.977573,220.765831 420.977573,221.016491 C420.977573,221.26715 421.181398,221.470317 421.432058,221.470317 L422.486148,221.470317 C422.736807,221.470317 422.939974,221.26715 422.939974,221.016491 C422.939974,220.765831 422.736807,220.562665 422.486148,220.562665" id="Fill-87"></path>
                <path d="M420.944591,220.284301 C421.060686,220.284301 421.176781,220.240106 421.265172,220.151055 L422.011214,219.405673 C422.187995,219.228232 422.187995,218.941293 422.011214,218.763852 C421.833773,218.586412 421.546174,218.586412 421.368734,218.763852 L420.623351,219.509235 C420.44591,219.686675 420.44591,219.974274 420.623351,220.151055 C420.711741,220.240106 420.828496,220.284301 420.944591,220.284301" id="Fill-88"></path>
                <path d="M419.761214,217.827836 C419.510554,217.827836 419.307388,218.031003 419.307388,218.281662 L419.307388,219.336412 C419.307388,219.587071 419.510554,219.790237 419.761214,219.790237 C420.011873,219.790237 420.21504,219.587071 420.21504,219.336412 L420.21504,218.281662 C420.21504,218.031003 420.011873,217.827836 419.761214,217.827836" id="Fill-89"></path>
                <path d="M357.504617,57.5277045 C357.222296,57.2453826 356.763852,57.2453826 356.480871,57.5277045 C356.198549,57.810686 356.198549,58.2684697 356.480871,58.5514512 L357.670185,59.7407652 C357.811346,59.8819261 357.996702,59.9525066 358.182058,59.9525066 C358.367414,59.9525066 358.552111,59.8819261 358.693931,59.7407652 C358.976253,59.4577836 358.976253,58.9993404 358.693931,58.7170185 L357.504617,57.5277045" id="Fill-90"></path>
                <path d="M358.118074,61.1154354 C358.118074,60.7156992 357.794195,60.3918206 357.394459,60.3918206 L355.713061,60.3918206 C355.313325,60.3918206 354.988786,60.7156992 354.988786,61.1154354 C354.988786,61.5151715 355.313325,61.8390501 355.713061,61.8390501 L357.394459,61.8390501 C357.794195,61.8390501 358.118074,61.5151715 358.118074,61.1154354" id="Fill-91"></path>
                <path d="M357.659631,62.494723 L356.470976,63.6840369 C356.187995,63.9663588 356.187995,64.4248021 356.470976,64.7077836 C356.612137,64.8489446 356.797493,64.9195251 356.98285,64.9195251 C357.167546,64.9195251 357.352902,64.8489446 357.494063,64.7077836 L358.683377,63.5184697 C358.965699,63.2361478 358.965699,62.7777045 358.683377,62.4953826 C358.401055,62.2124011 357.942612,62.2124011 357.659631,62.494723" id="Fill-92"></path>
                <path d="M360.058707,63.0705805 C359.658971,63.0705805 359.335092,63.3944591 359.335092,63.7948549 L359.335092,65.4762533 C359.335092,65.8759894 359.658971,66.1998681 360.058707,66.1998681 C360.458443,66.1998681 360.782322,65.8759894 360.782322,65.4762533 L360.782322,63.7948549 C360.782322,63.3944591 360.458443,63.0705805 360.058707,63.0705805" id="Fill-93"></path>
                <path d="M362.461741,62.505277 C362.17876,62.2229551 361.720976,62.2229551 361.437995,62.505277 C361.155673,62.7882586 361.155673,63.2467018 361.437995,63.5290237 L362.626649,64.7183377 C362.76847,64.8594987 362.953826,64.9300792 363.138522,64.9300792 C363.323879,64.9300792 363.509235,64.8594987 363.650396,64.7183377 C363.933377,64.4353562 363.933377,63.9769129 363.650396,63.694591 L362.461741,62.505277" id="Fill-94"></path>
                <path d="M364.418865,60.4063325 L362.737467,60.4063325 C362.337731,60.4063325 362.013852,60.7302111 362.013852,61.1299472 C362.013852,61.5296834 362.337731,61.8542216 362.737467,61.8542216 L364.418865,61.8542216 C364.818602,61.8542216 365.14248,61.5296834 365.14248,61.1299472 C365.14248,60.7302111 364.818602,60.4063325 364.418865,60.4063325" id="Fill-95"></path>
                <path d="M361.960422,59.9624011 C362.145119,59.9624011 362.330475,59.8918206 362.472296,59.7506596 L363.66095,58.5620053 C363.943272,58.2790237 363.943272,57.8205805 363.66095,57.5382586 C363.377968,57.2559367 362.920185,57.2559367 362.637203,57.5382586 L361.448549,58.7269129 C361.165567,59.0098945 361.165567,59.4683377 361.448549,59.7506596 C361.58971,59.8918206 361.775066,59.9624011 361.960422,59.9624011" id="Fill-96"></path>
                <path d="M360.073219,56.0461741 C359.673483,56.0461741 359.349604,56.3700528 359.349604,56.7697889 L359.349604,58.4511873 C359.349604,58.8509235 359.673483,59.1748021 360.073219,59.1748021 C360.472955,59.1748021 360.796834,58.8509235 360.796834,58.4511873 L360.796834,56.7697889 C360.796834,56.3700528 360.472955,56.0461741 360.073219,56.0461741" id="Fill-97"></path>
                <path d="M67.8509235,57.1952507 L64.7783641,60.26781 C64.048153,60.9980211 64.048153,62.182058 64.7783641,62.9129288 C65.1437995,63.2777045 65.6226913,63.4604222 66.1009235,63.4604222 C66.5791557,63.4604222 67.0580475,63.2777045 67.4234828,62.9129288 L70.4960422,59.8403694 C71.2262533,59.1101583 71.2262533,57.9254617 70.4960422,57.1952507 C69.7651715,56.4650396 68.5811346,56.4650396 67.8509235,57.1952507" id="Fill-98"></path>
                <path d="M76.9281003,48.1174142 L73.8562005,51.1899736 C73.1253298,51.9201847 73.1253298,53.1048813 73.8562005,53.8350923 C74.2209763,54.1998681 74.6998681,54.3825858 75.1787599,54.3825858 C75.6569921,54.3825858 76.1358839,54.1998681 76.5013193,53.8350923 L79.573219,50.762533 C80.3034301,50.0323219 80.3034301,48.848285 79.573219,48.1174142 C78.8430079,47.3878628 77.658971,47.3878628 76.9281003,48.1174142" id="Fill-99"></path>
                <path d="M67.4234828,48.1174142 C66.6932718,47.3878628 65.5092348,47.3878628 64.7783641,48.1174142 C64.048153,48.848285 64.048153,50.0323219 64.7783641,50.762533 L67.8509235,53.8350923 C68.2156992,54.1998681 68.694591,54.3825858 69.1734828,54.3825858 C69.651715,54.3825858 70.1306069,54.1998681 70.4960422,53.8350923 C71.2262533,53.1048813 71.2262533,51.9201847 70.4960422,51.1899736 L67.4234828,48.1174142" id="Fill-100"></path>
                <path d="M76.5013193,57.1952507 C75.7704485,56.4650396 74.5864116,56.4650396 73.8562005,57.1952507 C73.1253298,57.9254617 73.1253298,59.1101583 73.8562005,59.8403694 L76.9281003,62.9129288 C77.2935356,63.2777045 77.7724274,63.4604222 78.2506596,63.4604222 C78.7295515,63.4604222 79.2084433,63.2777045 79.573219,62.9129288 C80.3034301,62.182058 80.3034301,60.9980211 79.573219,60.26781 L76.5013193,57.1952507" id="Fill-101"></path>
                <path d="M407.94657,122.287599 C407.635224,122.467018 407.528364,122.864116 407.707784,123.175462 C408.351583,124.290897 407.967018,125.722296 406.850923,126.366095 C405.735488,127.009235 404.30409,126.62467 403.66029,125.508575 C403.01715,124.39314 403.401715,122.961741 404.51715,122.318602 C404.885224,122.106201 405.302111,121.998681 405.723615,122.005937 C406.082454,122.012533 406.378628,121.726253 406.385224,121.368074 C406.391821,121.008575 406.106201,120.712401 405.746702,120.706464 C405.08971,120.694591 404.439974,120.862137 403.868074,121.191953 C402.131266,122.193931 401.532982,124.421504 402.534301,126.158311 C403.53562,127.895119 405.763852,128.493404 407.50066,127.492084 C409.237467,126.490765 409.835752,124.262533 408.834433,122.525726 C408.655013,122.21504 408.257256,122.108179 407.94657,122.287599" id="Fill-102"></path>
                <path d="M144.865435,223.967678 C144.622032,224.10752 144.538918,224.418206 144.67876,224.66095 C145.182058,225.532982 144.881266,226.651715 144.009894,227.154354 C143.137863,227.656992 142.019129,227.35686 141.516491,226.484828 C141.013852,225.612797 141.313984,224.494723 142.186016,223.992084 C142.473615,223.825858 142.799472,223.741425 143.128628,223.747361 C143.408971,223.752639 143.640501,223.529024 143.645778,223.248681 C143.650396,222.968338 143.427441,222.736807 143.147098,222.73219 C142.633245,222.722955 142.12533,222.854222 141.67876,223.111478 C140.32124,223.894459 139.854222,225.635224 140.636544,226.992084 C141.418865,228.349604 143.159631,228.816623 144.51715,228.034301 C145.874011,227.251979 146.341689,225.511214 145.559367,224.153694 C145.418865,223.91095 145.108179,223.827177 144.865435,223.967678" id="Fill-103"></path>
                <path d="M147.754617,13.6312665 C149.491425,12.6299472 150.08971,10.4023747 149.088391,8.66490765 C148.908971,8.35422164 148.511214,8.24736148 148.200528,8.426781 C147.889182,8.60620053 147.782982,9.00329815 147.961741,9.3146438 C148.605541,10.4307388 148.220976,11.8614776 147.105541,12.505277 C145.989446,13.1484169 144.558047,12.7645119 143.914908,11.6484169 C143.271108,10.5323219 143.655673,9.10158311 144.771768,8.45778364 C145.139182,8.24604222 145.556069,8.1378628 145.977573,8.14511873 C146.337071,8.15171504 146.632586,7.86609499 146.639182,7.50725594 C146.645778,7.14841689 146.360158,6.85224274 146.001319,6.84564644 C145.343668,6.83377309 144.693931,7.00197889 144.122032,7.3317942 C142.385224,8.33311346 141.786939,10.560686 142.788259,12.2974934 C143.790237,14.0343008 146.01781,14.6325858 147.754617,13.6312665" id="Fill-104"></path>
                <path d="M315.173483,24.1972296 C315.173483,23.4254617 314.548153,22.7994723 313.775726,22.7994723 L308.751319,22.7994723 L308.751319,17.775066 C308.751319,17.0026385 308.12533,16.3766491 307.352902,16.3766491 C306.581135,16.3766491 305.955145,17.0026385 305.955145,17.775066 L305.955145,22.7994723 L300.930079,22.7994723 C300.158311,22.7994723 299.532322,23.4254617 299.532322,24.1972296 C299.532322,24.969657 300.158311,25.5956464 300.930079,25.5956464 L305.955145,25.5956464 L305.955145,30.6200528 C305.955145,31.3924802 306.581135,32.01781 307.352902,32.01781 C308.12533,32.01781 308.751319,31.3924802 308.751319,30.6200528 L308.751319,25.5956464 L313.775726,25.5956464 C314.548153,25.5956464 315.173483,24.969657 315.173483,24.1972296" id="Fill-105"></path>
                <path d="M148.871372,162.858839 L144.354881,162.858839 L144.354881,158.342348 C144.354881,157.648417 143.792216,157.085752 143.097625,157.085752 C142.403694,157.085752 141.841029,157.648417 141.841029,158.342348 L141.841029,162.858839 L137.324538,162.858839 C136.630607,162.858839 136.067942,163.421504 136.067942,164.115435 C136.067942,164.809367 136.630607,165.372032 137.324538,165.372032 L141.841029,165.372032 L141.841029,169.888522 C141.841029,170.582454 142.403694,171.145119 143.098285,171.145119 C143.792216,171.145119 144.354881,170.582454 144.354881,169.888522 L144.354881,165.372032 L148.871372,165.372032 C149.565303,165.372032 150.127968,164.809367 150.127968,164.115435 C150.127968,163.421504 149.565303,162.858839 148.871372,162.858839" id="Fill-106"></path>
                <path d="M377.137863,171.894459 C376.635884,171.39248 375.822559,171.39248 375.32058,171.894459 L372.055409,175.158971 L368.790897,171.894459 C368.288918,171.39248 367.475594,171.39248 366.973615,171.894459 C366.471636,172.395778 366.471636,173.209763 366.973615,173.711082 L370.238786,176.976253 L366.973615,180.241425 C366.471636,180.742744 366.471636,181.556728 366.973615,182.058047 C367.475594,182.560026 368.288918,182.560026 368.790897,182.058047 L372.055409,178.793536 L375.32058,182.058047 C375.822559,182.560026 376.635884,182.560026 377.137863,182.058047 C377.639182,181.556728 377.639182,180.742744 377.137863,180.241425 L373.872691,176.976253 L377.137863,173.711082 C377.639182,173.209763 377.639182,172.396438 377.137863,171.894459" id="Fill-107"></path>
                <path d="M312.115435,109.12533 L308.986148,109.12533 C308.242084,109.125989 307.639182,109.728892 307.639182,110.472955 C307.639182,110.844987 307.790237,111.181398 308.033641,111.425462 C308.277704,111.668865 308.614116,111.819921 308.986148,111.819921 L312.115435,111.819921 C312.859499,111.819921 313.462401,111.217018 313.462401,110.472955 C313.462401,109.728892 312.859499,109.125989 312.115435,109.12533" id="Fill-108"></path>
                <path d="M321.361478,109.12533 L318.23219,109.12533 C317.488127,109.125989 316.885224,109.728892 316.885224,110.472955 C316.885224,110.844987 317.03562,111.181398 317.279683,111.425462 C317.523087,111.668865 317.860158,111.819921 318.23219,111.819921 L321.361478,111.819921 C322.105541,111.819921 322.708443,111.217018 322.708443,110.472955 C322.708443,109.728892 322.104881,109.125989 321.361478,109.12533" id="Fill-109"></path>
                <path d="M315.173483,102.937995 C314.430079,102.937995 313.826517,103.541557 313.826517,104.28496 L313.826517,107.414248 C313.826517,107.78628 313.977573,108.123351 314.221636,108.366755 C314.46504,108.610818 314.802111,108.761214 315.173483,108.761873 C315.917546,108.761214 316.520449,108.158311 316.521108,107.414248 L316.521108,104.28496 C316.520449,103.541557 315.917546,102.938654 315.173483,102.937995" id="Fill-110"></path>
                <path d="M315.173483,112.184037 C314.430079,112.184037 313.826517,112.786939 313.826517,113.531003 L313.826517,116.66029 C313.826517,117.032322 313.977573,117.369393 314.220976,117.612797 C314.46504,117.856201 314.802111,118.007256 315.173483,118.007256 C315.917546,118.007256 316.520449,117.404354 316.521108,116.66029 L316.521108,113.531003 C316.520449,112.786939 315.917546,112.184037 315.173483,112.184037" id="Fill-111"></path>
                <path d="M290.136544,221.011873 C288.876649,221.011873 287.856201,222.032982 287.856201,223.292216 C287.856201,224.551451 288.876649,225.572559 290.136544,225.572559 C291.395778,225.572559 292.416887,224.551451 292.416887,223.292216 C292.416887,222.032982 291.395778,221.011873 290.136544,221.011873" id="Fill-112"></path>
                <path d="M112.296174,103.908311 C111.406332,103.908311 110.684697,104.629947 110.684697,105.519789 C110.684697,106.409631 111.406332,107.131266 112.296174,107.131266 C113.186016,107.131266 113.907652,106.409631 113.907652,105.519789 C113.907652,104.629947 113.186016,103.908311 112.296174,103.908311" id="Fill-113"></path>
                <path d="M3.74934037,223.390501 C2.85949868,223.390501 2.1378628,224.111478 2.1378628,225.001979 C2.1378628,225.891821 2.85949868,226.613456 3.74934037,226.613456 C4.63918206,226.613456 5.36081794,225.891821 5.36081794,225.001979 C5.36081794,224.111478 4.63918206,223.390501 3.74934037,223.390501" id="Fill-114"></path>
                <path d="M186.955078,56.3945312 L188.021484,47 L198.380859,47 L198.380859,50.0595703 L191.030273,50.0595703 L190.573242,54.0332031 C191.444991,53.567706 192.37174,53.3349609 193.353516,53.3349609 C195.113941,53.3349609 196.493485,53.8808539 197.492188,54.9726562 C198.49089,56.0644586 198.990234,57.5921126 198.990234,59.5556641 C198.990234,60.7490294 198.738447,61.8175409 198.234863,62.7612305 C197.73128,63.7049201 197.00977,64.4370091 196.070312,64.9575195 C195.130855,65.4780299 194.022142,65.7382812 192.744141,65.7382812 C191.626948,65.7382812 190.590174,65.5118838 189.633789,65.059082 C188.677404,64.6062803 187.922041,63.9694051 187.367676,63.1484375 C186.813311,62.3274699 186.519206,61.3922579 186.485352,60.3427734 L190.116211,60.3427734 C190.192383,61.1129596 190.461098,61.7117492 190.922363,62.1391602 C191.383629,62.5665711 191.98665,62.7802734 192.731445,62.7802734 C193.560877,62.7802734 194.199868,62.4819366 194.648438,61.8852539 C195.097007,61.2885712 195.321289,60.4443414 195.321289,59.3525391 C195.321289,58.3030546 195.063154,57.4990262 194.546875,56.9404297 C194.030596,56.3818331 193.298507,56.1025391 192.350586,56.1025391 C191.478837,56.1025391 190.772138,56.3310524 190.230469,56.7880859 L189.875,57.1181641 L186.955078,56.3945312 Z" id="500"></path>
            </g>
        </g>
    </g>
</svg>