<svg xmlns="http://www.w3.org/2000/svg" xmlns:xlink="http://www.w3.org/1999/xlink" width="128.65" height="34.86" viewBox="0 0 128.65 34.86"><defs><path id="a" d="M60.33 46.75h3.22v.56h-2.59v1.6h2.42v.56h-2.42v1.82h2.72v.57h-3.35z"/><path id="b" d="M69.12 47.55l-1.06 2.52h2.1zm-.26-.8h.56l2.16 5.1h-.7l-.53-1.25H67.8l-.53 1.26h-.7z"/><path id="c" d="M77.25 47.64a.84.84 0 0 0-.4-.36c-.16-.07-.33-.1-.53-.1-.13 0-.27.03-.4.06-.13.04-.23.1-.36.17a1 1 0 0 0-.27.26.8.8 0 0 0-.03.7c.03.1.1.17.16.23a3.86 3.86 0 0 0 .83.4l.57.2c.2.07.33.17.5.27.13.1.26.26.33.4.1.16.13.36.13.62a1.4 1.4 0 0 1-.56 1.13c-.17.13-.37.2-.57.27-.23.06-.43.1-.66.1-.13 0-.3 0-.43-.04-.14-.03-.3-.06-.43-.13-.14-.07-.27-.13-.4-.23a.94.94 0 0 1-.3-.33l.53-.44c.1.2.27.34.46.44.2.1.4.13.63.13a1.66 1.66 0 0 0 .77-.23 1 1 0 0 0 .26-.27.7.7 0 0 0 .1-.4c0-.16-.03-.3-.06-.4-.07-.1-.14-.2-.24-.26-.1-.07-.26-.13-.43-.2a6.26 6.26 0 0 0-.6-.2c-.2-.06-.36-.13-.5-.2a1.2 1.2 0 0 1-.65-.66c-.07-.17-.1-.33-.1-.53 0-.23.03-.47.13-.63a1.48 1.48 0 0 1 .96-.73c.23-.07.43-.1.66-.1a2 2 0 0 1 .8.13c.23.1.46.23.63.47z"/><path id="d" d="M82.62 49.67l-1.89-2.92h.76l1.43 2.32 1.5-2.32h.72l-1.89 2.92v2.19h-.6v-2.2z"/><path id="e" d="M92.86 46.75h3.22v.56h-2.59v1.6h2.42v.56H93.5v1.82h2.72v.57h-3.35v-5.11z"/><path id="f" d="M99 46.75h.7l1.56 4.18 1.62-4.18h.63l-1.99 5.1h-.6z"/><path id="g" d="M106.69 46.75h3.22v.56h-2.59v1.6h2.42v.56h-2.42v1.82h2.72v.57h-3.35v-5.11z"/><path id="h" d="M113.56 46.75h.76l2.95 4.24v-4.24h.6v5.1h-.76l-2.95-4.24v4.25h-.6z"/><path id="i" d="M125.16 47.31h-1.7v4.55h-.59V47.3h-1.69v-.56h3.98z"/><path id="j" d="M130.87 47.64a.84.84 0 0 0-.4-.36c-.16-.07-.33-.1-.53-.1-.13 0-.27.03-.4.06-.13.04-.23.1-.36.17a1 1 0 0 0-.27.26.8.8 0 0 0-.03.7c.03.1.1.17.16.23a3.86 3.86 0 0 0 .83.4l.57.2c.2.07.33.17.5.27.13.1.26.26.33.4.1.16.13.36.13.62a1.4 1.4 0 0 1-.56 1.13c-.17.13-.37.2-.57.27-.23.06-.43.1-.66.1-.13 0-.3 0-.43-.04-.14-.03-.3-.06-.43-.13-.14-.07-.27-.13-.4-.23a.94.94 0 0 1-.3-.33l.53-.44c.1.2.27.34.46.44.2.1.4.13.63.13a1.66 1.66 0 0 0 .77-.23 1 1 0 0 0 .26-.27.7.7 0 0 0 .1-.4c0-.16-.03-.3-.06-.4-.07-.1-.14-.2-.24-.26-.1-.07-.26-.13-.43-.2a6.26 6.26 0 0 0-.6-.2c-.2-.06-.36-.13-.5-.2a1.2 1.2 0 0 1-.65-.66c-.07-.17-.1-.33-.1-.53 0-.23.03-.47.13-.63a1.48 1.48 0 0 1 .96-.73c.23-.07.43-.1.66-.1a2 2 0 0 1 .8.13c.23.1.46.23.63.47z"/><path id="k" d="M142.04 47.64a.84.84 0 0 0-.4-.36c-.16-.07-.33-.1-.53-.1-.13 0-.27.03-.4.06-.13.04-.23.1-.36.17a1 1 0 0 0-.27.26.8.8 0 0 0-.03.7c.03.1.1.17.16.23a3.86 3.86 0 0 0 .83.4l.57.2c.2.07.33.17.5.27.13.1.26.26.33.4.1.16.13.36.13.62a1.4 1.4 0 0 1-.56 1.13c-.17.13-.37.2-.57.27-.23.06-.43.1-.66.1-.13 0-.3 0-.43-.04-.14-.03-.3-.06-.43-.13-.14-.07-.27-.13-.4-.23a.94.94 0 0 1-.3-.33l.53-.44c.1.2.27.34.46.44.2.1.4.13.63.13a1.66 1.66 0 0 0 .77-.23 1 1 0 0 0 .26-.27.7.7 0 0 0 .1-.4c0-.16-.03-.3-.06-.4-.07-.1-.14-.2-.24-.26-.1-.07-.26-.13-.43-.2a6.26 6.26 0 0 0-.6-.2c-.2-.06-.36-.13-.5-.2a1.2 1.2 0 0 1-.65-.66c-.07-.17-.1-.33-.1-.53 0-.23.03-.47.13-.63a1.48 1.48 0 0 1 .96-.73c.23-.07.43-.1.66-.1a2 2 0 0 1 .8.13c.23.1.46.23.63.47z"/><path id="l" d="M146.19 46.75h3.22v.56h-2.59v1.6h2.42v.56h-2.42v1.82h2.72v.57h-3.35v-5.11z"/><path id="m" d="M153.65 49h1.06c.16 0 .33-.03.5-.1a.75.75 0 0 0 .36-.26c.1-.1.13-.27.13-.5a.83.83 0 0 0-.1-.43.78.78 0 0 0-.3-.26c-.13-.07-.26-.1-.4-.14-.13-.03-.3-.03-.42-.03h-.87v1.73zm-.6-2.25h1.3c.23 0 .5 0 .72.03.24.04.47.1.67.2.2.1.33.23.46.43.13.2.17.43.17.77 0 .36-.1.66-.34.9-.23.22-.53.36-.92.42l1.46 2.36h-.73l-1.4-2.3h-.76v2.3h-.6v-5.11z"/><path id="n" d="M159.22 46.75h.7l1.56 4.18 1.62-4.18h.63l-1.99 5.1h-.6z"/><path id="o" d="M166.88 46.75h.6v5.1h-.6z"/><path id="p" d="M174.9 47.8c-.16-.2-.33-.36-.56-.46-.23-.1-.46-.16-.7-.16-.3 0-.53.06-.8.16-.26.1-.42.27-.62.47-.2.2-.3.43-.4.66-.1.27-.13.53-.13.8 0 .3.03.56.13.83a2.07 2.07 0 0 0 1 1.13c.23.1.5.16.79.16.3 0 .6-.07.83-.2.23-.13.46-.3.63-.53l.46.4a2 2 0 0 1-.83.66 2.7 2.7 0 0 1-2.12.03 2.6 2.6 0 0 1-1.4-1.43 2.87 2.87 0 0 1 .54-2.98c.23-.23.5-.43.83-.56a2.75 2.75 0 0 1 2.05 0c.34.13.6.33.8.6z"/><path id="q" d="M178.99 46.75h3.22v.56h-2.59v1.6h2.42v.56h-2.42v1.82h2.72v.57h-3.35v-5.11z"/><path id="r" d="M188.27 47.64a.84.84 0 0 0-.4-.36c-.16-.07-.33-.1-.53-.1-.13 0-.27.03-.4.06-.13.04-.23.1-.36.17a1 1 0 0 0-.27.26.8.8 0 0 0-.03.7c.03.1.1.17.16.23a3.86 3.86 0 0 0 .83.4l.57.2c.2.07.33.17.5.27.13.1.26.26.33.4.1.16.13.36.13.62a1.4 1.4 0 0 1-.56 1.13c-.17.13-.37.2-.57.27-.23.06-.43.1-.66.1-.13 0-.3 0-.43-.04-.14-.03-.3-.06-.43-.13-.14-.07-.27-.13-.4-.23a.94.94 0 0 1-.3-.33l.53-.44c.1.2.27.34.46.44.2.1.4.13.63.13a1.66 1.66 0 0 0 .77-.23 1 1 0 0 0 .26-.27.7.7 0 0 0 .1-.4c0-.16-.03-.3-.06-.4-.07-.1-.14-.2-.24-.26-.1-.07-.26-.13-.43-.2a6.26 6.26 0 0 0-.6-.2c-.2-.06-.36-.13-.5-.2a1.2 1.2 0 0 1-.65-.66c-.07-.17-.1-.33-.1-.53 0-.23.03-.47.13-.63a1.48 1.48 0 0 1 .96-.73c.23-.07.43-.1.66-.1a2 2 0 0 1 .8.13c.23.1.46.23.63.47z"/><path id="s" d="M94.06 20.15c1.79 0 3.51.6 4.97 1.73.3.26.73.36 1.13.3.36-.07.7-.27.93-.57.23-.26.33-.6.33-.96a1.68 1.68 0 0 0-.56-1.13 11.14 11.14 0 0 0-6.77-2.32c-6 .03-10.91 4.84-10.91 10.71 0 5.84 4.9 10.61 10.91 10.61 2.45 0 4.88-.8 6.77-2.25.33-.27.56-.67.6-1.1.03-.36-.1-.73-.37-1-.2-.26-.5-.46-.83-.55-.4-.1-.83 0-1.26.26a7.62 7.62 0 0 1-4.91 1.72c-4.41 0-8-3.44-8-7.69-.02-4.24 3.56-7.76 7.97-7.76z"/><path id="t" d="M114.68 31.36h-6.4l3.22-8.55zm-1.8-13.23c-.19-.6-.75-.96-1.42-.96-.6 0-1.16.36-1.42.93l-6.9 18.4c-.17.37-.13.8.03 1.16.17.37.47.63.8.8.1.03.23.07.33.07l.23.03c.63 0 1.16-.37 1.4-.96l1.22-3.25h8.66l1.22 3.28c.24.56.8.96 1.4.96l.26-.03a1.32 1.32 0 0 0 1.1-.9c.13-.36.13-.8 0-1.09z"/><path id="u" d="M144.66 35.6h-2.22V20.16h2.19a7.78 7.78 0 0 1 7.73 7.76 7.7 7.7 0 0 1-7.7 7.7zm0-18.43h-3.71c-.83 0-1.46.66-1.46 1.46v18.44c0 .76.6 1.39 1.43 1.46h3.78a10.7 10.7 0 0 0 10.7-10.68 10.8 10.8 0 0 0-10.74-10.68z"/><path id="v" d="M187.34 35.6h-8.69V18.66a1.48 1.48 0 0 0-2.95 0V37.1c0 .8.66 1.46 1.46 1.46h10.18c.83 0 1.5-.67 1.5-1.46 0-.83-.67-1.5-1.5-1.5z"/><path id="w" d="M126.1 20.21h4.1a3.48 3.48 0 0 1 3.49 3.49 3.53 3.53 0 0 1-3.49 3.51h-4.1zm4.1-2.98l-5.57-.1h-.03c-.83 0-1.46.66-1.46 1.46v18.44c0 .76.56 1.36 1.3 1.42.03 0 .03.04.06.04h.27c.03 0 .03-.04.06-.04.73-.1 1.3-.7 1.3-1.42v-6.9l4.1-.03a6.44 6.44 0 0 0 6.44-6.44 6.51 6.51 0 0 0-6.47-6.43z"/><path id="x" d="M170.5 17.17h-10.71a1.56 1.56 0 1 0 0 3.12h10.71a1.56 1.56 0 1 0 0-3.12z"/><path id="y" d="M170.5 26.29h-10.71a1.56 1.56 0 1 0 0 3.12h10.71a1.56 1.56 0 1 0 0-3.12z"/><path id="z" d="M170.5 35.44h-10.71a1.56 1.56 0 1 0 0 3.12h10.71a1.56 1.56 0 1 0 0-3.12z"/><path id="B" d="M69.72 36.06a1.16 1.16 0 0 1 0-1.65c.46-.47 1.2-.47 1.66 0 .46.46.46 1.19 0 1.65-.47.44-1.2.44-1.66 0zM63.12 24a2.68 2.68 0 0 1 0-3.81 2.68 2.68 0 0 1 3.81 0 2.68 2.68 0 0 1 0 3.81 2.68 2.68 0 0 1-3.81 0zm11.37-1.1a1.16 1.16 0 0 1 0-1.65c.47-.46 1.2-.46 1.66 0 .46.47.46 1.2 0 1.66-.43.46-1.2.46-1.66 0zm-6.3 14.7a3.34 3.34 0 0 0 4.71 0 3.34 3.34 0 0 0 0-4.7 3.31 3.31 0 0 0-2.55-.97l-2.42-5.9c.2-.14.36-.3.53-.47a4.7 4.7 0 0 0 1.32-2.48h2.36c.16.53.43.99.83 1.42a3.34 3.34 0 0 0 4.7 0 3.34 3.34 0 0 0 0-4.7 3.34 3.34 0 0 0-5.43 1.12h-2.52a4.86 4.86 0 0 0-8.12-2.22c-.17.16-.34.36-.5.56-.04.03-.07.07-.1.13-.04.07-.1.14-.14.24a.72.72 0 0 1-.1.16l-.1.2-.1.2c-.03.07-.06.13-.06.2a.61.61 0 0 0-.07.23l-.06.2c-.04.1-.04.17-.07.27 0 .06-.03.1-.03.16-.04.1-.04.2-.04.3 0 .03 0 .1-.03.13a4.6 4.6 0 0 0 .33 2.22l.1.2a1 1 0 0 0 .13.27c.04.03.04.06.07.1a5.29 5.29 0 0 0 1.13 1.36c.03.03.06.03.06.06.1.07.17.14.27.2l.2.14.23.13c.1.06.2.1.27.13l.2.1c.89.36 1.85.46 2.78.3l2.42 5.87c-.07.03-.1.06-.17.13a3.31 3.31 0 0 0-.03 4.71z"/><linearGradient id="A" x1="63.28" x2="77.48" y1="15.91" y2="34.64" gradientUnits="userSpaceOnUse"><stop offset="0" stop-color="#3038cf"/><stop offset=".99" stop-color="#6e217c"/></linearGradient></defs><use fill="#fff" xlink:href="#a" transform="translate(-60.18 -17.13)"/><use fill="#fff" xlink:href="#b" transform="translate(-60.18 -17.13)"/><use fill="#fff" xlink:href="#c" transform="translate(-60.18 -17.13)"/><use fill="#fff" xlink:href="#d" transform="translate(-60.18 -17.13)"/><use fill="#fff" xlink:href="#e" transform="translate(-60.18 -17.13)"/><use fill="#fff" xlink:href="#f" transform="translate(-60.18 -17.13)"/><use fill="#fff" xlink:href="#g" transform="translate(-60.18 -17.13)"/><use fill="#fff" xlink:href="#h" transform="translate(-60.18 -17.13)"/><use fill="#fff" xlink:href="#i" transform="translate(-60.18 -17.13)"/><use fill="#fff" xlink:href="#j" transform="translate(-60.18 -17.13)"/><use fill="#fff" xlink:href="#k" transform="translate(-60.18 -17.13)"/><use fill="#fff" xlink:href="#l" transform="translate(-60.18 -17.13)"/><use fill="#fff" xlink:href="#m" transform="translate(-60.18 -17.13)"/><use fill="#fff" xlink:href="#n" transform="translate(-60.18 -17.13)"/><use fill="#fff" xlink:href="#o" transform="translate(-60.18 -17.13)"/><use fill="#fff" xlink:href="#p" transform="translate(-60.18 -17.13)"/><use fill="#fff" xlink:href="#q" transform="translate(-60.18 -17.13)"/><use fill="#fff" xlink:href="#r" transform="translate(-60.18 -17.13)"/><g transform="translate(-60.18 -17.13)"><use fill="#fff" xlink:href="#s"/></g><g transform="translate(-60.18 -17.13)"><use fill="#fff" xlink:href="#t"/></g><g transform="translate(-60.18 -17.13)"><use fill="#fff" xlink:href="#u"/></g><g transform="translate(-60.18 -17.13)"><use fill="#fff" xlink:href="#v"/></g><g transform="translate(-60.18 -17.13)"><use fill="#fff" xlink:href="#w"/></g><g><use fill="#fff" xlink:href="#x" transform="translate(-60.18 -17.13)"/><use fill="#fff" xlink:href="#y" transform="translate(-60.18 -17.13)"/><use fill="#fff" xlink:href="#z" transform="translate(-60.18 -17.13)"/></g><g transform="translate(-60.18 -17.13)"><use fill="url(#A)" xlink:href="#B"/></g></svg>